<!-- <svg width="354" height="556" viewBox="0 0 354 556" fill="none" xmlns="http://www.w3.org/2000/svg">
<path d="M17.9492 14.0665C12.1233 15.6379 8.35363 18.6326 7.08713 22.7094C5.79083 26.8456 7.22123 31.7675 10.9909 36.215C16.6827 42.9159 26.9339 50.0911 32.6407 53.827V12.7916C30.4504 12.243 25.9952 11.8872 17.9492 14.0665V14.0665ZM33.9221 79.0591C33.1175 78.5106 32.6407 77.6062 32.6407 76.6426V74.5671C9.45623 75.5011 7.99603 86.0565 6.92323 93.8247L6.83383 94.4474C5.93983 100.896 16.9807 120.317 24.684 123.653C28.3345 125.224 33.0877 124.764 36.7829 122.467C40.2546 120.317 44.516 115.603 45.0077 105.418C45.8868 87.2869 34.0413 79.1332 33.9221 79.0591V79.0591ZM45.2014 144.304C35.427 134.43 21.6593 128.886 19.1114 127.907H18.9177C16.0569 127.907 9.93303 128.589 7.60863 131.821C7.17653 132.429 6.68483 133.066 6.14843 133.748C1.76782 139.456 -3.22368 145.92 5.52263 156.03C6.29743 156.935 7.16163 157.957 8.10033 159.084C14.3434 166.526 25.9654 180.373 33.7284 178.416C38.3623 177.245 45.0971 169.684 47.7195 160.315C48.8221 156.401 49.9545 149.107 45.2014 144.304V144.304ZM54.1116 205.442C47.5556 194.975 35.576 186.051 22.8066 182.122C22.5831 182.092 21.9573 181.989 21.0782 181.989C18.8879 181.989 15.1629 182.626 12.4213 186.436C11.9594 187.074 11.4528 187.741 10.9462 188.438C4.33063 197.288 0.397021 204.152 9.96283 211.876C12.7789 214.144 15.4311 216.472 18.0088 218.71C27.5895 227.057 35.1439 233.654 42.5194 231.252C47.8387 229.503 52.86 224.388 55.0056 218.517C56.734 213.759 56.4211 209.118 54.1116 205.442Z" fill="#26045D"/>
<path d="M391.657 393.393L432.378 555.691C432.378 555.691 444.64 546.236 379.109 522.691C361.018 516.191 284.131 455.691 243.864 406.839C203.597 357.987 208.938 334.063 174.251 326.888C145.613 320.958 124.962 296.201 118.019 286.802H206.227C217.238 286.802 226.148 277.936 226.148 266.981C226.148 266.981 226.267 265.765 226.416 263.778C227.429 266.773 228.517 269.857 229.709 273.029L235.177 270.983C231.467 261.125 228.666 252.081 226.61 243.794C226.446 242.045 226.222 240.414 225.91 238.991C220.084 212.499 222.155 194.279 226.148 182.271V181.04C230.901 167.668 237.949 162.494 238.113 162.376L236.459 160.004L234.805 157.602C234.298 157.943 230.32 160.789 226.148 167.283V115.41C230.841 116.908 237.293 119.606 241.376 123.416C244.013 125.877 247.827 125.417 250.033 123.208C251.105 122.141 251.806 120.658 251.791 118.894C251.791 118.82 251.791 118.731 251.791 118.642C251.776 118.197 251.761 117.693 251.731 117.13C251.582 115.173 251.24 112.401 250.301 108.339C249.437 104.529 248.036 99.5476 245.801 93.0394C245.518 92.2092 244.937 90.9491 244.177 89.4814C242.046 85.3156 238.515 79.4004 236.28 76.5096C236.28 76.5096 236.27 76.5046 236.25 76.4948C235.744 75.8276 235.297 75.3236 234.954 75.0419C230.439 71.2764 225.314 67.0068 224.718 62.5445C224.569 61.4771 224.33 59.9353 224.017 58.008C218.415 22.9619 219.517 3.83767 227.28 1.15436C228.145 0.857858 228.964 0.694784 229.769 0.694784C231.08 0.650309 232.317 0.991283 233.494 1.62876C233.494 1.62876 237.144 3.98592 237.859 5.54254C240.228 8.47788 242.568 12.5399 245.205 17.358C248.379 23.1694 251.418 28.6695 255.263 32.0792L258.049 34.2881C260.731 36.3636 263.025 38.2612 265.067 39.9513C270.207 44.2357 274.275 47.6009 280.622 50.5363C283.856 52.0336 287.029 62.6483 289.831 72.0176C293.451 84.1296 297.564 97.8427 304.611 106.575C318.766 124.083 328.079 142.955 328.362 154.637C328.437 157.469 328.69 162.109 329.018 167.994C330.239 189.683 332.489 230.066 328.735 250.495C323.952 276.528 324.831 280.012 332.504 289.841C334.963 292.969 345.825 312.389 357.343 332.952C368.398 352.728 391.672 393.393 391.672 393.393H391.657Z" fill="#26045D"/>
</svg> -->


<svg width="868" height="1035" viewBox="0 0 868 1035" fill="none" xmlns="http://www.w3.org/2000/svg">
<g clip-path="url(#clip0_702_2687)">
<path d="M185.364 70.166C185.364 62.8388 191.304 56.8989 198.631 56.8989H477.24C484.567 56.8989 490.507 62.8388 490.507 70.166V176.303C490.507 183.63 484.567 189.57 477.24 189.57H185.364V70.166Z" fill="#7BB68A"/>
<path d="M282.078 99.1431V114.234H280.067L272.47 102.595V114.234H270.469V99.1431H272.47L280.098 110.814V99.1431H282.078ZM290.199 114.442C289.418 114.442 288.709 114.31 288.074 114.048C287.445 113.778 286.902 113.402 286.446 112.918C285.997 112.434 285.652 111.861 285.41 111.197C285.168 110.534 285.047 109.809 285.047 109.021V108.586C285.047 107.673 285.182 106.861 285.451 106.15C285.721 105.431 286.087 104.823 286.55 104.326C287.013 103.828 287.538 103.451 288.126 103.196C288.713 102.94 289.321 102.812 289.95 102.812C290.751 102.812 291.442 102.95 292.023 103.227C292.61 103.503 293.09 103.89 293.463 104.388C293.837 104.878 294.113 105.459 294.293 106.129C294.472 106.792 294.562 107.518 294.562 108.306V109.166H286.187V107.601H292.645V107.456C292.617 106.958 292.513 106.475 292.334 106.005C292.161 105.535 291.885 105.148 291.504 104.844C291.124 104.54 290.606 104.388 289.95 104.388C289.514 104.388 289.114 104.481 288.747 104.668C288.381 104.847 288.067 105.117 287.804 105.476C287.542 105.835 287.338 106.274 287.193 106.792C287.048 107.311 286.975 107.908 286.975 108.586V109.021C286.975 109.553 287.048 110.054 287.193 110.524C287.345 110.987 287.562 111.394 287.846 111.747C288.136 112.099 288.485 112.376 288.893 112.576C289.307 112.776 289.777 112.877 290.302 112.877C290.979 112.877 291.553 112.738 292.023 112.462C292.493 112.186 292.904 111.816 293.256 111.353L294.417 112.275C294.175 112.642 293.868 112.991 293.495 113.322C293.121 113.654 292.662 113.923 292.116 114.131C291.577 114.338 290.938 114.442 290.199 114.442ZM298.92 105.248V114.234H296.993V103.02H298.817L298.92 105.248ZM298.527 108.202L297.635 108.171C297.642 107.404 297.742 106.696 297.936 106.046C298.129 105.39 298.416 104.82 298.796 104.336C299.176 103.852 299.649 103.479 300.216 103.216C300.783 102.947 301.439 102.812 302.185 102.812C302.71 102.812 303.194 102.888 303.636 103.04C304.079 103.185 304.462 103.417 304.787 103.735C305.112 104.053 305.364 104.46 305.544 104.958C305.723 105.455 305.813 106.056 305.813 106.761V114.234H303.896V106.855C303.896 106.267 303.795 105.797 303.595 105.445C303.401 105.093 303.125 104.837 302.766 104.678C302.406 104.512 301.985 104.429 301.501 104.429C300.935 104.429 300.461 104.529 300.081 104.73C299.701 104.93 299.397 105.207 299.169 105.559C298.941 105.911 298.775 106.316 298.672 106.772C298.575 107.221 298.527 107.698 298.527 108.202ZM305.792 107.145L304.507 107.539C304.514 106.924 304.614 106.333 304.808 105.766C305.008 105.2 305.295 104.695 305.668 104.253C306.048 103.811 306.514 103.462 307.067 103.206C307.62 102.944 308.252 102.812 308.964 102.812C309.565 102.812 310.097 102.892 310.56 103.051C311.03 103.21 311.424 103.455 311.742 103.787C312.067 104.111 312.312 104.529 312.478 105.041C312.644 105.552 312.726 106.16 312.726 106.865V114.234H310.799V106.844C310.799 106.215 310.698 105.728 310.498 105.383C310.305 105.03 310.028 104.785 309.669 104.647C309.316 104.502 308.895 104.429 308.404 104.429C307.983 104.429 307.61 104.502 307.285 104.647C306.96 104.792 306.687 104.992 306.466 105.248C306.245 105.497 306.076 105.784 305.958 106.108C305.848 106.433 305.792 106.779 305.792 107.145ZM321.308 98.3139H323.236V112.058L323.07 114.234H321.308V98.3139ZM330.813 108.534V108.751C330.813 109.567 330.716 110.323 330.523 111.021C330.329 111.712 330.046 112.313 329.673 112.825C329.3 113.336 328.843 113.733 328.304 114.017C327.765 114.3 327.147 114.442 326.449 114.442C325.737 114.442 325.112 114.321 324.573 114.079C324.041 113.83 323.592 113.474 323.226 113.011C322.859 112.548 322.566 111.989 322.345 111.332C322.13 110.676 321.982 109.936 321.899 109.114V108.161C321.982 107.331 322.13 106.589 322.345 105.932C322.566 105.276 322.859 104.716 323.226 104.253C323.592 103.783 324.041 103.427 324.573 103.185C325.105 102.937 325.724 102.812 326.428 102.812C327.133 102.812 327.759 102.95 328.304 103.227C328.85 103.496 329.306 103.883 329.673 104.388C330.046 104.892 330.329 105.497 330.523 106.202C330.716 106.899 330.813 107.677 330.813 108.534ZM328.885 108.751V108.534C328.885 107.974 328.833 107.449 328.729 106.958C328.626 106.461 328.46 106.025 328.232 105.652C328.004 105.272 327.703 104.975 327.33 104.761C326.957 104.54 326.498 104.429 325.952 104.429C325.468 104.429 325.046 104.512 324.687 104.678C324.335 104.844 324.034 105.068 323.785 105.352C323.537 105.628 323.333 105.946 323.174 106.305C323.022 106.658 322.908 107.024 322.832 107.404V109.902C322.942 110.386 323.122 110.852 323.371 111.301C323.626 111.743 323.965 112.106 324.387 112.389C324.815 112.673 325.344 112.814 325.972 112.814C326.491 112.814 326.933 112.711 327.299 112.503C327.672 112.289 327.973 111.996 328.201 111.622C328.436 111.249 328.609 110.817 328.719 110.327C328.83 109.836 328.885 109.311 328.885 108.751ZM338.104 114.442C337.323 114.442 336.615 114.31 335.979 114.048C335.351 113.778 334.808 113.402 334.352 112.918C333.903 112.434 333.558 111.861 333.316 111.197C333.074 110.534 332.953 109.809 332.953 109.021V108.586C332.953 107.673 333.088 106.861 333.357 106.15C333.627 105.431 333.993 104.823 334.456 104.326C334.919 103.828 335.444 103.451 336.031 103.196C336.619 102.94 337.227 102.812 337.856 102.812C338.657 102.812 339.348 102.95 339.929 103.227C340.516 103.503 340.996 103.89 341.369 104.388C341.742 104.878 342.019 105.459 342.198 106.129C342.378 106.792 342.468 107.518 342.468 108.306V109.166H334.093V107.601H340.55V107.456C340.523 106.958 340.419 106.475 340.239 106.005C340.067 105.535 339.79 105.148 339.41 104.844C339.03 104.54 338.512 104.388 337.856 104.388C337.42 104.388 337.019 104.481 336.653 104.668C336.287 104.847 335.973 105.117 335.71 105.476C335.447 105.835 335.244 106.274 335.098 106.792C334.953 107.311 334.881 107.908 334.881 108.586V109.021C334.881 109.553 334.953 110.054 335.098 110.524C335.25 110.987 335.468 111.394 335.751 111.747C336.042 112.099 336.391 112.376 336.798 112.576C337.213 112.776 337.683 112.877 338.208 112.877C338.885 112.877 339.459 112.738 339.929 112.462C340.398 112.186 340.81 111.816 341.162 111.353L342.323 112.275C342.081 112.642 341.773 112.991 341.4 113.322C341.027 113.654 340.568 113.923 340.022 114.131C339.483 114.338 338.844 114.442 338.104 114.442ZM351.449 111.26C351.449 110.983 351.387 110.728 351.262 110.493C351.145 110.251 350.9 110.033 350.526 109.84C350.16 109.639 349.607 109.467 348.868 109.321C348.246 109.19 347.683 109.035 347.179 108.855C346.681 108.675 346.256 108.458 345.904 108.202C345.558 107.946 345.292 107.646 345.106 107.3C344.919 106.955 344.826 106.551 344.826 106.088C344.826 105.645 344.922 105.227 345.116 104.833C345.316 104.44 345.596 104.091 345.955 103.787C346.322 103.483 346.761 103.244 347.272 103.071C347.783 102.899 348.353 102.812 348.982 102.812C349.88 102.812 350.647 102.971 351.283 103.289C351.919 103.607 352.406 104.032 352.745 104.564C353.083 105.089 353.252 105.673 353.252 106.316H351.335C351.335 106.005 351.242 105.704 351.055 105.414C350.875 105.117 350.609 104.871 350.257 104.678C349.911 104.484 349.486 104.388 348.982 104.388C348.45 104.388 348.018 104.471 347.686 104.636C347.362 104.795 347.123 104.999 346.971 105.248C346.826 105.497 346.754 105.759 346.754 106.036C346.754 106.243 346.788 106.43 346.857 106.595C346.933 106.754 347.065 106.903 347.251 107.041C347.438 107.172 347.7 107.297 348.039 107.414C348.377 107.532 348.809 107.649 349.334 107.767C350.253 107.974 351.01 108.223 351.604 108.513C352.199 108.803 352.641 109.159 352.931 109.581C353.221 110.002 353.366 110.513 353.366 111.115C353.366 111.605 353.263 112.054 353.055 112.462C352.855 112.87 352.561 113.222 352.174 113.519C351.794 113.809 351.338 114.037 350.806 114.203C350.281 114.362 349.69 114.442 349.034 114.442C348.046 114.442 347.21 114.265 346.526 113.913C345.841 113.561 345.323 113.105 344.971 112.545C344.618 111.985 344.442 111.394 344.442 110.772H346.37C346.398 111.298 346.55 111.716 346.826 112.027C347.103 112.331 347.441 112.548 347.842 112.68C348.243 112.804 348.64 112.866 349.034 112.866C349.559 112.866 349.998 112.797 350.35 112.659C350.71 112.521 350.982 112.331 351.169 112.089C351.356 111.847 351.449 111.571 351.449 111.26ZM360.793 103.02V104.491H354.729V103.02H360.793ZM356.781 100.294H358.699V111.457C358.699 111.837 358.758 112.123 358.875 112.317C358.993 112.51 359.145 112.638 359.331 112.7C359.518 112.763 359.718 112.794 359.932 112.794C360.091 112.794 360.257 112.78 360.43 112.752C360.61 112.718 360.744 112.69 360.834 112.669L360.844 114.234C360.692 114.283 360.492 114.328 360.243 114.369C360.001 114.417 359.708 114.442 359.362 114.442C358.892 114.442 358.461 114.348 358.067 114.162C357.673 113.975 357.358 113.664 357.123 113.229C356.895 112.787 356.781 112.192 356.781 111.446V100.294ZM365.337 103.02V114.234H363.41V103.02H365.337ZM363.264 100.045C363.264 99.7339 363.358 99.4713 363.544 99.2571C363.738 99.0429 364.021 98.9358 364.394 98.9358C364.76 98.9358 365.04 99.0429 365.234 99.2571C365.434 99.4713 365.534 99.7339 365.534 100.045C365.534 100.342 365.434 100.598 365.234 100.812C365.04 101.019 364.76 101.123 364.394 101.123C364.021 101.123 363.738 101.019 363.544 100.812C363.358 100.598 363.264 100.342 363.264 100.045ZM370.711 98.3139V114.234H368.784V98.3139H370.711ZM376.085 98.3139V114.234H374.158V98.3139H376.085ZM381.459 103.02V114.234H379.532V103.02H381.459ZM379.386 100.045C379.386 99.7339 379.48 99.4713 379.666 99.2571C379.86 99.0429 380.143 98.9358 380.516 98.9358C380.882 98.9358 381.162 99.0429 381.356 99.2571C381.556 99.4713 381.656 99.7339 381.656 100.045C381.656 100.342 381.556 100.598 381.356 100.812C381.162 101.019 380.882 101.123 380.516 101.123C380.143 101.123 379.86 101.019 379.666 100.812C379.48 100.598 379.386 100.342 379.386 100.045ZM386.668 105.414V114.234H384.75V103.02H386.564L386.668 105.414ZM386.212 108.202L385.413 108.171C385.42 107.404 385.534 106.696 385.755 106.046C385.977 105.39 386.288 104.82 386.688 104.336C387.089 103.852 387.566 103.479 388.119 103.216C388.678 102.947 389.297 102.812 389.974 102.812C390.527 102.812 391.024 102.888 391.467 103.04C391.909 103.185 392.285 103.42 392.596 103.745C392.914 104.07 393.156 104.491 393.322 105.01C393.488 105.521 393.571 106.146 393.571 106.886V114.234H391.643V106.865C391.643 106.278 391.556 105.808 391.384 105.455C391.211 105.096 390.959 104.837 390.627 104.678C390.295 104.512 389.888 104.429 389.404 104.429C388.927 104.429 388.492 104.529 388.098 104.73C387.711 104.93 387.376 105.207 387.093 105.559C386.816 105.911 386.599 106.316 386.44 106.772C386.288 107.221 386.212 107.698 386.212 108.202ZM403.961 103.02H405.703V113.996C405.703 114.984 405.502 115.827 405.101 116.525C404.701 117.223 404.141 117.752 403.422 118.111C402.711 118.477 401.888 118.66 400.955 118.66C400.568 118.66 400.112 118.598 399.587 118.474C399.069 118.356 398.558 118.152 398.053 117.862C397.556 117.579 397.138 117.195 396.799 116.712L397.804 115.571C398.274 116.138 398.765 116.532 399.276 116.753C399.795 116.974 400.306 117.085 400.81 117.085C401.418 117.085 401.944 116.971 402.386 116.743C402.828 116.515 403.17 116.176 403.412 115.727C403.661 115.285 403.785 114.739 403.785 114.089V105.486L403.961 103.02ZM396.239 108.751V108.534C396.239 107.677 396.34 106.899 396.54 106.202C396.747 105.497 397.041 104.892 397.421 104.388C397.808 103.883 398.274 103.496 398.82 103.227C399.366 102.95 399.981 102.812 400.665 102.812C401.37 102.812 401.985 102.937 402.51 103.185C403.042 103.427 403.491 103.783 403.858 104.253C404.231 104.716 404.524 105.276 404.739 105.932C404.953 106.589 405.101 107.331 405.184 108.161V109.114C405.108 109.936 404.96 110.676 404.739 111.332C404.524 111.989 404.231 112.548 403.858 113.011C403.491 113.474 403.042 113.83 402.51 114.079C401.978 114.321 401.356 114.442 400.644 114.442C399.974 114.442 399.366 114.3 398.82 114.017C398.281 113.733 397.818 113.336 397.431 112.825C397.044 112.313 396.747 111.712 396.54 111.021C396.34 110.323 396.239 109.567 396.239 108.751ZM398.157 108.534V108.751C398.157 109.311 398.212 109.836 398.323 110.327C398.44 110.817 398.616 111.249 398.851 111.622C399.093 111.996 399.401 112.289 399.774 112.503C400.147 112.711 400.593 112.814 401.111 112.814C401.747 112.814 402.272 112.68 402.686 112.41C403.101 112.141 403.429 111.785 403.671 111.343C403.92 110.9 404.113 110.42 404.251 109.902V107.404C404.175 107.024 404.058 106.658 403.899 106.305C403.747 105.946 403.547 105.628 403.298 105.352C403.056 105.068 402.755 104.844 402.396 104.678C402.037 104.512 401.615 104.429 401.132 104.429C400.606 104.429 400.154 104.54 399.774 104.761C399.401 104.975 399.093 105.272 398.851 105.652C398.616 106.025 398.44 106.461 398.323 106.958C398.212 107.449 398.157 107.974 398.157 108.534ZM285.361 140.751V140.513C285.361 139.704 285.478 138.955 285.713 138.264C285.948 137.566 286.287 136.961 286.729 136.45C287.171 135.932 287.707 135.531 288.335 135.248C288.964 134.957 289.669 134.812 290.45 134.812C291.237 134.812 291.946 134.957 292.575 135.248C293.21 135.531 293.749 135.932 294.191 136.45C294.641 136.961 294.983 137.566 295.218 138.264C295.453 138.955 295.57 139.704 295.57 140.513V140.751C295.57 141.56 295.453 142.31 295.218 143.001C294.983 143.692 294.641 144.296 294.191 144.814C293.749 145.326 293.214 145.726 292.585 146.017C291.963 146.3 291.258 146.442 290.47 146.442C289.683 146.442 288.974 146.3 288.346 146.017C287.717 145.726 287.178 145.326 286.729 144.814C286.287 144.296 285.948 143.692 285.713 143.001C285.478 142.31 285.361 141.56 285.361 140.751ZM287.278 140.513V140.751C287.278 141.311 287.344 141.84 287.475 142.337C287.606 142.828 287.803 143.263 288.066 143.643C288.335 144.023 288.67 144.324 289.071 144.545C289.472 144.759 289.938 144.866 290.47 144.866C290.996 144.866 291.455 144.759 291.849 144.545C292.25 144.324 292.581 144.023 292.844 143.643C293.107 143.263 293.304 142.828 293.435 142.337C293.573 141.84 293.642 141.311 293.642 140.751V140.513C293.642 139.96 293.573 139.438 293.435 138.948C293.304 138.45 293.103 138.012 292.834 137.632C292.571 137.245 292.239 136.941 291.839 136.719C291.445 136.498 290.982 136.388 290.45 136.388C289.925 136.388 289.462 136.498 289.061 136.719C288.667 136.941 288.335 137.245 288.066 137.632C287.803 138.012 287.606 138.45 287.475 138.948C287.344 139.438 287.278 139.96 287.278 140.513ZM305.453 135.02H307.194V145.996C307.194 146.984 306.994 147.827 306.593 148.525C306.192 149.223 305.632 149.752 304.914 150.111C304.202 150.477 303.38 150.66 302.447 150.66C302.06 150.66 301.604 150.598 301.079 150.474C300.561 150.356 300.049 150.152 299.545 149.862C299.047 149.579 298.629 149.195 298.291 148.712L299.296 147.571C299.766 148.138 300.256 148.532 300.768 148.753C301.286 148.974 301.797 149.085 302.302 149.085C302.91 149.085 303.435 148.971 303.877 148.743C304.32 148.515 304.662 148.176 304.903 147.727C305.152 147.285 305.277 146.739 305.277 146.089V137.486L305.453 135.02ZM297.731 140.751V140.534C297.731 139.677 297.831 138.899 298.031 138.202C298.239 137.497 298.532 136.892 298.913 136.388C299.299 135.883 299.766 135.496 300.312 135.227C300.858 134.95 301.473 134.812 302.157 134.812C302.862 134.812 303.477 134.937 304.002 135.185C304.534 135.427 304.983 135.783 305.349 136.253C305.722 136.716 306.016 137.276 306.23 137.932C306.444 138.589 306.593 139.331 306.676 140.161V141.114C306.6 141.936 306.451 142.676 306.23 143.332C306.016 143.989 305.722 144.548 305.349 145.011C304.983 145.474 304.534 145.83 304.002 146.079C303.47 146.321 302.848 146.442 302.136 146.442C301.466 146.442 300.858 146.3 300.312 146.017C299.773 145.733 299.31 145.336 298.923 144.825C298.536 144.313 298.239 143.712 298.031 143.021C297.831 142.323 297.731 141.567 297.731 140.751ZM299.648 140.534V140.751C299.648 141.311 299.704 141.836 299.814 142.327C299.932 142.817 300.108 143.249 300.343 143.622C300.585 143.996 300.892 144.289 301.265 144.503C301.638 144.711 302.084 144.814 302.602 144.814C303.238 144.814 303.763 144.68 304.178 144.41C304.592 144.141 304.921 143.785 305.163 143.343C305.411 142.9 305.605 142.42 305.743 141.902V139.404C305.667 139.024 305.55 138.658 305.391 138.305C305.239 137.946 305.038 137.628 304.789 137.352C304.548 137.068 304.247 136.844 303.888 136.678C303.528 136.512 303.107 136.429 302.623 136.429C302.098 136.429 301.645 136.54 301.265 136.761C300.892 136.975 300.585 137.272 300.343 137.652C300.108 138.025 299.932 138.461 299.814 138.958C299.704 139.449 299.648 139.974 299.648 140.534ZM315.786 130.314H317.714V144.058L317.548 146.234H315.786V130.314ZM325.291 140.534V140.751C325.291 141.567 325.194 142.323 325.001 143.021C324.807 143.712 324.524 144.313 324.151 144.825C323.778 145.336 323.321 145.733 322.782 146.017C322.243 146.3 321.625 146.442 320.927 146.442C320.215 146.442 319.59 146.321 319.051 146.079C318.519 145.83 318.07 145.474 317.704 145.011C317.337 144.548 317.044 143.989 316.823 143.332C316.608 142.676 316.46 141.936 316.377 141.114V140.161C316.46 139.331 316.608 138.589 316.823 137.932C317.044 137.276 317.337 136.716 317.704 136.253C318.07 135.783 318.519 135.427 319.051 135.185C319.583 134.937 320.202 134.812 320.906 134.812C321.611 134.812 322.237 134.95 322.782 135.227C323.328 135.496 323.784 135.883 324.151 136.388C324.524 136.892 324.807 137.497 325.001 138.202C325.194 138.899 325.291 139.677 325.291 140.534ZM323.363 140.751V140.534C323.363 139.974 323.311 139.449 323.207 138.958C323.104 138.461 322.938 138.025 322.71 137.652C322.482 137.272 322.181 136.975 321.808 136.761C321.435 136.54 320.976 136.429 320.43 136.429C319.946 136.429 319.524 136.512 319.165 136.678C318.813 136.844 318.512 137.068 318.263 137.352C318.015 137.628 317.811 137.946 317.652 138.305C317.5 138.658 317.386 139.024 317.31 139.404V141.902C317.42 142.386 317.6 142.852 317.849 143.301C318.104 143.743 318.443 144.106 318.865 144.389C319.293 144.673 319.822 144.814 320.45 144.814C320.969 144.814 321.411 144.711 321.777 144.503C322.15 144.289 322.451 143.996 322.679 143.622C322.914 143.249 323.087 142.817 323.197 142.327C323.308 141.836 323.363 141.311 323.363 140.751ZM332.582 146.442C331.801 146.442 331.093 146.31 330.457 146.048C329.829 145.778 329.286 145.402 328.83 144.918C328.381 144.434 328.036 143.861 327.794 143.197C327.552 142.534 327.431 141.809 327.431 141.021V140.586C327.431 139.673 327.566 138.861 327.835 138.15C328.105 137.431 328.471 136.823 328.934 136.326C329.397 135.828 329.922 135.451 330.509 135.196C331.097 134.94 331.705 134.812 332.334 134.812C333.135 134.812 333.826 134.95 334.407 135.227C334.994 135.503 335.474 135.89 335.847 136.388C336.22 136.878 336.497 137.459 336.676 138.129C336.856 138.792 336.946 139.518 336.946 140.306V141.166H328.571V139.601H335.028V139.456C335.001 138.958 334.897 138.475 334.717 138.005C334.545 137.535 334.268 137.148 333.888 136.844C333.508 136.54 332.99 136.388 332.334 136.388C331.898 136.388 331.497 136.481 331.131 136.668C330.765 136.847 330.451 137.117 330.188 137.476C329.925 137.835 329.722 138.274 329.576 138.792C329.431 139.311 329.359 139.908 329.359 140.586V141.021C329.359 141.553 329.431 142.054 329.576 142.524C329.728 142.987 329.946 143.394 330.229 143.747C330.52 144.099 330.869 144.376 331.276 144.576C331.691 144.776 332.161 144.877 332.686 144.877C333.363 144.877 333.937 144.738 334.407 144.462C334.876 144.186 335.288 143.816 335.64 143.353L336.801 144.275C336.559 144.642 336.251 144.991 335.878 145.322C335.505 145.654 335.046 145.923 334.5 146.131C333.961 146.338 333.322 146.442 332.582 146.442ZM344.092 135.02V136.491H338.029V135.02H344.092ZM340.081 132.294H341.999V143.457C341.999 143.837 342.057 144.123 342.175 144.317C342.292 144.51 342.444 144.638 342.631 144.7C342.817 144.763 343.018 144.794 343.232 144.794C343.391 144.794 343.557 144.78 343.73 144.752C343.909 144.718 344.044 144.69 344.134 144.669L344.144 146.234C343.992 146.283 343.792 146.328 343.543 146.369C343.301 146.417 343.007 146.442 342.662 146.442C342.192 146.442 341.76 146.348 341.366 146.162C340.972 145.975 340.658 145.664 340.423 145.229C340.195 144.787 340.081 144.192 340.081 143.446V132.294ZM353.167 144.317V138.544C353.167 138.101 353.077 137.718 352.897 137.393C352.724 137.061 352.462 136.806 352.109 136.626C351.757 136.446 351.322 136.357 350.803 136.357C350.32 136.357 349.895 136.44 349.528 136.605C349.169 136.771 348.886 136.989 348.679 137.258C348.478 137.528 348.378 137.818 348.378 138.129H346.46C346.46 137.728 346.564 137.331 346.771 136.937C346.979 136.543 347.276 136.187 347.663 135.869C348.057 135.545 348.527 135.289 349.072 135.102C349.625 134.909 350.24 134.812 350.917 134.812C351.733 134.812 352.451 134.95 353.073 135.227C353.702 135.503 354.193 135.921 354.545 136.481C354.904 137.034 355.084 137.728 355.084 138.564V143.788C355.084 144.161 355.115 144.559 355.177 144.98C355.246 145.402 355.347 145.764 355.478 146.069V146.234H353.478C353.381 146.013 353.305 145.72 353.249 145.353C353.194 144.98 353.167 144.635 353.167 144.317ZM353.498 139.435L353.519 140.782H351.581C351.035 140.782 350.548 140.827 350.119 140.917C349.691 141 349.332 141.128 349.041 141.301C348.751 141.473 348.53 141.691 348.378 141.954C348.226 142.209 348.15 142.51 348.15 142.855C348.15 143.208 348.229 143.529 348.388 143.819C348.547 144.11 348.786 144.341 349.104 144.514C349.428 144.68 349.826 144.763 350.295 144.763C350.883 144.763 351.401 144.638 351.85 144.389C352.299 144.141 352.655 143.837 352.918 143.477C353.187 143.118 353.332 142.769 353.353 142.43L354.172 143.353C354.124 143.643 353.992 143.964 353.778 144.317C353.564 144.669 353.277 145.008 352.918 145.333C352.565 145.65 352.144 145.917 351.653 146.131C351.17 146.338 350.624 146.442 350.016 146.442C349.256 146.442 348.589 146.293 348.015 145.996C347.449 145.699 347.006 145.302 346.689 144.804C346.378 144.3 346.222 143.736 346.222 143.115C346.222 142.513 346.34 141.985 346.574 141.529C346.809 141.066 347.148 140.682 347.59 140.378C348.032 140.067 348.565 139.832 349.186 139.673C349.808 139.514 350.503 139.435 351.27 139.435H353.498ZM360.396 130.314V146.234H358.468V130.314H360.396ZM365.77 135.02V146.234H363.842V135.02H365.77ZM363.697 132.045C363.697 131.734 363.79 131.471 363.977 131.257C364.17 131.043 364.454 130.936 364.827 130.936C365.193 130.936 365.473 131.043 365.666 131.257C365.867 131.471 365.967 131.734 365.967 132.045C365.967 132.342 365.867 132.598 365.666 132.812C365.473 133.019 365.193 133.123 364.827 133.123C364.454 133.123 364.17 133.019 363.977 132.812C363.79 132.598 363.697 132.342 363.697 132.045ZM370.978 137.414V146.234H369.061V135.02H370.874L370.978 137.414ZM370.522 140.202L369.724 140.171C369.731 139.404 369.845 138.696 370.066 138.046C370.287 137.39 370.598 136.82 370.999 136.336C371.4 135.852 371.876 135.479 372.429 135.216C372.989 134.947 373.607 134.812 374.284 134.812C374.837 134.812 375.335 134.888 375.777 135.04C376.219 135.185 376.596 135.42 376.907 135.745C377.225 136.07 377.466 136.491 377.632 137.01C377.798 137.521 377.881 138.146 377.881 138.886V146.234H375.953V138.865C375.953 138.278 375.867 137.808 375.694 137.455C375.521 137.096 375.269 136.837 374.937 136.678C374.606 136.512 374.198 136.429 373.714 136.429C373.238 136.429 372.802 136.529 372.408 136.73C372.021 136.93 371.686 137.207 371.403 137.559C371.127 137.911 370.909 138.316 370.75 138.772C370.598 139.221 370.522 139.698 370.522 140.202ZM388.272 135.02H390.013V145.996C390.013 146.984 389.813 147.827 389.412 148.525C389.011 149.223 388.451 149.752 387.733 150.111C387.021 150.477 386.199 150.66 385.266 150.66C384.879 150.66 384.423 150.598 383.898 150.474C383.379 150.356 382.868 150.152 382.364 149.862C381.866 149.579 381.448 149.195 381.11 148.712L382.115 147.571C382.585 148.138 383.075 148.532 383.587 148.753C384.105 148.974 384.616 149.085 385.121 149.085C385.729 149.085 386.254 148.971 386.696 148.743C387.138 148.515 387.48 148.176 387.722 147.727C387.971 147.285 388.095 146.739 388.095 146.089V137.486L388.272 135.02ZM380.55 140.751V140.534C380.55 139.677 380.65 138.899 380.85 138.202C381.058 137.497 381.351 136.892 381.731 136.388C382.118 135.883 382.585 135.496 383.131 135.227C383.677 134.95 384.292 134.812 384.976 134.812C385.68 134.812 386.295 134.937 386.821 135.185C387.353 135.427 387.802 135.783 388.168 136.253C388.541 136.716 388.835 137.276 389.049 137.932C389.263 138.589 389.412 139.331 389.495 140.161V141.114C389.419 141.936 389.27 142.676 389.049 143.332C388.835 143.989 388.541 144.548 388.168 145.011C387.802 145.474 387.353 145.83 386.821 146.079C386.289 146.321 385.667 146.442 384.955 146.442C384.285 146.442 383.677 146.3 383.131 146.017C382.592 145.733 382.129 145.336 381.742 144.825C381.355 144.313 381.058 143.712 380.85 143.021C380.65 142.323 380.55 141.567 380.55 140.751ZM382.467 140.534V140.751C382.467 141.311 382.523 141.836 382.633 142.327C382.751 142.817 382.927 143.249 383.162 143.622C383.404 143.996 383.711 144.289 384.084 144.503C384.457 144.711 384.903 144.814 385.421 144.814C386.057 144.814 386.582 144.68 386.997 144.41C387.411 144.141 387.74 143.785 387.981 143.343C388.23 142.9 388.424 142.42 388.562 141.902V139.404C388.486 139.024 388.368 138.658 388.209 138.305C388.057 137.946 387.857 137.628 387.608 137.352C387.366 137.068 387.066 136.844 386.707 136.678C386.347 136.512 385.926 136.429 385.442 136.429C384.917 136.429 384.464 136.54 384.084 136.761C383.711 136.975 383.404 137.272 383.162 137.652C382.927 138.025 382.751 138.461 382.633 138.958C382.523 139.449 382.467 139.974 382.467 140.534Z" fill="#26045D"/>
<path d="M185.364 249.271C185.364 241.944 191.304 236.004 198.631 236.004H477.24C484.567 236.004 490.507 241.944 490.507 249.271V355.408C490.507 362.735 484.567 368.675 477.24 368.675H185.364V249.271Z" fill="#7BB68A"/>
<path d="M263.996 294.249V309.34H261.996V294.249H263.996ZM269.474 300.519V309.34H267.557V298.125H269.37L269.474 300.519ZM269.018 303.307L268.22 303.276C268.227 302.509 268.341 301.801 268.562 301.152C268.783 300.495 269.094 299.925 269.495 299.441C269.896 298.958 270.372 298.585 270.925 298.322C271.485 298.052 272.103 297.918 272.78 297.918C273.333 297.918 273.831 297.994 274.273 298.146C274.715 298.291 275.092 298.526 275.403 298.851C275.721 299.175 275.963 299.597 276.128 300.115C276.294 300.626 276.377 301.252 276.377 301.991V309.34H274.449V301.97C274.449 301.383 274.363 300.913 274.19 300.561C274.017 300.201 273.765 299.942 273.433 299.783C273.102 299.618 272.694 299.535 272.21 299.535C271.734 299.535 271.298 299.635 270.904 299.835C270.517 300.036 270.182 300.312 269.899 300.664C269.623 301.017 269.405 301.421 269.246 301.877C269.094 302.326 269.018 302.803 269.018 303.307ZM286.768 298.125H288.509V309.101C288.509 310.09 288.309 310.933 287.908 311.63C287.507 312.328 286.947 312.857 286.229 313.216C285.517 313.583 284.695 313.766 283.762 313.766C283.375 313.766 282.919 313.703 282.394 313.579C281.875 313.462 281.364 313.258 280.86 312.968C280.362 312.684 279.944 312.301 279.606 311.817L280.611 310.677C281.081 311.244 281.571 311.637 282.083 311.859C282.601 312.08 283.112 312.19 283.617 312.19C284.225 312.19 284.75 312.076 285.192 311.848C285.635 311.62 285.977 311.282 286.218 310.832C286.467 310.39 286.592 309.844 286.592 309.195V300.592L286.768 298.125ZM279.046 303.857V303.639C279.046 302.782 279.146 302.005 279.346 301.307C279.554 300.602 279.847 299.998 280.227 299.493C280.614 298.989 281.081 298.602 281.627 298.332C282.173 298.056 282.788 297.918 283.472 297.918C284.177 297.918 284.791 298.042 285.317 298.291C285.849 298.533 286.298 298.889 286.664 299.358C287.037 299.821 287.331 300.381 287.545 301.038C287.759 301.694 287.908 302.437 287.991 303.266V304.22C287.915 305.042 287.766 305.781 287.545 306.438C287.331 307.094 287.037 307.654 286.664 308.117C286.298 308.58 285.849 308.936 285.317 309.184C284.785 309.426 284.163 309.547 283.451 309.547C282.781 309.547 282.173 309.405 281.627 309.122C281.088 308.839 280.625 308.442 280.238 307.93C279.851 307.419 279.554 306.818 279.346 306.127C279.146 305.429 279.046 304.672 279.046 303.857ZM280.963 303.639V303.857C280.963 304.417 281.019 304.942 281.129 305.432C281.247 305.923 281.423 306.355 281.658 306.728C281.9 307.101 282.207 307.395 282.58 307.609C282.953 307.816 283.399 307.92 283.917 307.92C284.553 307.92 285.078 307.785 285.493 307.516C285.907 307.246 286.236 306.89 286.478 306.448C286.726 306.006 286.92 305.526 287.058 305.007V302.509C286.982 302.129 286.864 301.763 286.706 301.411C286.554 301.051 286.353 300.734 286.104 300.457C285.863 300.174 285.562 299.949 285.203 299.783C284.843 299.618 284.422 299.535 283.938 299.535C283.413 299.535 282.96 299.645 282.58 299.866C282.207 300.081 281.9 300.378 281.658 300.758C281.423 301.131 281.247 301.566 281.129 302.064C281.019 302.554 280.963 303.079 280.963 303.639ZM296.288 309.547C295.507 309.547 294.799 309.416 294.163 309.153C293.534 308.884 292.992 308.507 292.536 308.024C292.086 307.54 291.741 306.966 291.499 306.303C291.257 305.64 291.136 304.914 291.136 304.126V303.691C291.136 302.779 291.271 301.967 291.541 301.255C291.81 300.537 292.176 299.929 292.639 299.431C293.102 298.933 293.627 298.557 294.215 298.301C294.802 298.046 295.41 297.918 296.039 297.918C296.84 297.918 297.531 298.056 298.112 298.332C298.699 298.609 299.18 298.996 299.553 299.493C299.926 299.984 300.202 300.564 300.382 301.234C300.561 301.898 300.651 302.623 300.651 303.411V304.271H292.276V302.706H298.734V302.561C298.706 302.064 298.603 301.58 298.423 301.11C298.25 300.64 297.974 300.253 297.594 299.949C297.214 299.645 296.695 299.493 296.039 299.493C295.604 299.493 295.203 299.586 294.837 299.773C294.47 299.953 294.156 300.222 293.893 300.581C293.631 300.941 293.427 301.38 293.282 301.898C293.137 302.416 293.064 303.014 293.064 303.691V304.126C293.064 304.658 293.137 305.159 293.282 305.629C293.434 306.092 293.652 306.5 293.935 306.852C294.225 307.205 294.574 307.481 294.982 307.681C295.396 307.882 295.866 307.982 296.391 307.982C297.069 307.982 297.642 307.844 298.112 307.567C298.582 307.291 298.993 306.921 299.345 306.458L300.506 307.381C300.264 307.747 299.957 308.096 299.584 308.428C299.211 308.759 298.751 309.029 298.205 309.236C297.666 309.443 297.027 309.547 296.288 309.547ZM305.02 300.519V309.34H303.102V298.125H304.916L305.02 300.519ZM304.564 303.307L303.766 303.276C303.773 302.509 303.887 301.801 304.108 301.152C304.329 300.495 304.64 299.925 305.041 299.441C305.441 298.958 305.918 298.585 306.471 298.322C307.031 298.052 307.649 297.918 308.326 297.918C308.879 297.918 309.377 297.994 309.819 298.146C310.261 298.291 310.638 298.526 310.949 298.851C311.267 299.175 311.508 299.597 311.674 300.115C311.84 300.626 311.923 301.252 311.923 301.991V309.34H309.995V301.97C309.995 301.383 309.909 300.913 309.736 300.561C309.563 300.201 309.311 299.942 308.979 299.783C308.648 299.618 308.24 299.535 307.756 299.535C307.279 299.535 306.844 299.635 306.45 299.835C306.063 300.036 305.728 300.312 305.445 300.664C305.168 301.017 304.951 301.421 304.792 301.877C304.64 302.326 304.564 302.803 304.564 303.307ZM320.018 303.857V303.618C320.018 302.81 320.135 302.06 320.37 301.369C320.605 300.671 320.943 300.067 321.386 299.555C321.828 299.037 322.363 298.636 322.992 298.353C323.621 298.063 324.326 297.918 325.107 297.918C325.894 297.918 326.603 298.063 327.232 298.353C327.867 298.636 328.406 299.037 328.848 299.555C329.298 300.067 329.64 300.671 329.875 301.369C330.109 302.06 330.227 302.81 330.227 303.618V303.857C330.227 304.665 330.109 305.415 329.875 306.106C329.64 306.797 329.298 307.402 328.848 307.92C328.406 308.431 327.871 308.832 327.242 309.122C326.62 309.405 325.915 309.547 325.127 309.547C324.34 309.547 323.631 309.405 323.003 309.122C322.374 308.832 321.835 308.431 321.386 307.92C320.943 307.402 320.605 306.797 320.37 306.106C320.135 305.415 320.018 304.665 320.018 303.857ZM321.935 303.618V303.857C321.935 304.417 322.001 304.945 322.132 305.443C322.263 305.933 322.46 306.369 322.723 306.749C322.992 307.129 323.327 307.429 323.728 307.65C324.129 307.865 324.595 307.972 325.127 307.972C325.653 307.972 326.112 307.865 326.506 307.65C326.907 307.429 327.238 307.129 327.501 306.749C327.764 306.369 327.96 305.933 328.092 305.443C328.23 304.945 328.299 304.417 328.299 303.857V303.618C328.299 303.066 328.23 302.544 328.092 302.053C327.96 301.556 327.76 301.117 327.491 300.737C327.228 300.35 326.896 300.046 326.496 299.825C326.102 299.604 325.639 299.493 325.107 299.493C324.582 299.493 324.119 299.604 323.718 299.825C323.324 300.046 322.992 300.35 322.723 300.737C322.46 301.117 322.263 301.556 322.132 302.053C322.001 302.544 321.935 303.066 321.935 303.618ZM334.761 300.281V313.652H332.834V298.125H334.596L334.761 300.281ZM342.317 303.639V303.857C342.317 304.672 342.221 305.429 342.027 306.127C341.834 306.818 341.55 307.419 341.177 307.93C340.811 308.442 340.358 308.839 339.819 309.122C339.28 309.405 338.662 309.547 337.964 309.547C337.252 309.547 336.624 309.43 336.078 309.195C335.532 308.96 335.069 308.618 334.689 308.169C334.309 307.719 334.005 307.18 333.777 306.552C333.556 305.923 333.404 305.215 333.321 304.427V303.266C333.404 302.437 333.559 301.694 333.787 301.038C334.015 300.381 334.316 299.821 334.689 299.358C335.069 298.889 335.528 298.533 336.067 298.291C336.606 298.042 337.228 297.918 337.933 297.918C338.638 297.918 339.263 298.056 339.809 298.332C340.355 298.602 340.815 298.989 341.188 299.493C341.561 299.998 341.841 300.602 342.027 301.307C342.221 302.005 342.317 302.782 342.317 303.639ZM340.39 303.857V303.639C340.39 303.079 340.331 302.554 340.213 302.064C340.096 301.566 339.913 301.131 339.664 300.758C339.422 300.378 339.111 300.081 338.731 299.866C338.351 299.645 337.899 299.535 337.373 299.535C336.89 299.535 336.468 299.618 336.109 299.783C335.756 299.949 335.456 300.174 335.207 300.457C334.958 300.734 334.754 301.051 334.596 301.411C334.444 301.763 334.33 302.129 334.254 302.509V305.194C334.392 305.678 334.585 306.134 334.834 306.562C335.083 306.984 335.414 307.326 335.829 307.588C336.244 307.844 336.765 307.972 337.394 307.972C337.912 307.972 338.358 307.865 338.731 307.65C339.111 307.429 339.422 307.129 339.664 306.749C339.913 306.369 340.096 305.933 340.213 305.443C340.331 304.945 340.39 304.417 340.39 303.857ZM346.893 299.887V309.34H344.976V298.125H346.841L346.893 299.887ZM350.397 298.063L350.386 299.846C350.227 299.811 350.075 299.79 349.93 299.783C349.792 299.77 349.633 299.763 349.453 299.763C349.011 299.763 348.621 299.832 348.282 299.97C347.944 300.108 347.657 300.302 347.422 300.55C347.187 300.799 347 301.096 346.862 301.442C346.731 301.78 346.645 302.154 346.603 302.561L346.064 302.872C346.064 302.195 346.13 301.559 346.261 300.965C346.399 300.371 346.61 299.846 346.893 299.39C347.177 298.927 347.536 298.567 347.971 298.312C348.413 298.049 348.939 297.918 349.547 297.918C349.685 297.918 349.844 297.935 350.024 297.97C350.203 297.997 350.328 298.028 350.397 298.063ZM356.828 309.547C356.047 309.547 355.339 309.416 354.703 309.153C354.074 308.884 353.532 308.507 353.076 308.024C352.627 307.54 352.281 306.966 352.039 306.303C351.797 305.64 351.677 304.914 351.677 304.126V303.691C351.677 302.779 351.811 301.967 352.081 301.255C352.35 300.537 352.716 299.929 353.179 299.431C353.642 298.933 354.168 298.557 354.755 298.301C355.342 298.046 355.95 297.918 356.579 297.918C357.381 297.918 358.072 298.056 358.652 298.332C359.239 298.609 359.72 298.996 360.093 299.493C360.466 299.984 360.742 300.564 360.922 301.234C361.102 301.898 361.191 302.623 361.191 303.411V304.271H352.817V302.706H359.274V302.561C359.246 302.064 359.143 301.58 358.963 301.11C358.79 300.64 358.514 300.253 358.134 299.949C357.754 299.645 357.236 299.493 356.579 299.493C356.144 299.493 355.743 299.586 355.377 299.773C355.011 299.953 354.696 300.222 354.434 300.581C354.171 300.941 353.967 301.38 353.822 301.898C353.677 302.416 353.604 303.014 353.604 303.691V304.126C353.604 304.658 353.677 305.159 353.822 305.629C353.974 306.092 354.192 306.5 354.475 306.852C354.765 307.205 355.114 307.481 355.522 307.681C355.936 307.882 356.406 307.982 356.932 307.982C357.609 307.982 358.182 307.844 358.652 307.567C359.122 307.291 359.533 306.921 359.886 306.458L361.046 307.381C360.805 307.747 360.497 308.096 360.124 308.428C359.751 308.759 359.291 309.029 358.745 309.236C358.206 309.443 357.567 309.547 356.828 309.547ZM368.338 298.125V299.597H362.274V298.125H368.338ZM364.327 295.399H366.244V306.562C366.244 306.942 366.303 307.229 366.42 307.422C366.538 307.616 366.69 307.744 366.876 307.806C367.063 307.868 367.263 307.899 367.478 307.899C367.637 307.899 367.802 307.885 367.975 307.858C368.155 307.823 368.29 307.795 368.379 307.775L368.39 309.34C368.238 309.388 368.037 309.433 367.789 309.475C367.547 309.523 367.253 309.547 366.908 309.547C366.438 309.547 366.006 309.454 365.612 309.267C365.218 309.081 364.904 308.77 364.669 308.334C364.441 307.892 364.327 307.298 364.327 306.552V295.399ZM375.495 298.125V299.597H369.431V298.125H375.495ZM371.483 295.399H373.401V306.562C373.401 306.942 373.46 307.229 373.577 307.422C373.695 307.616 373.847 307.744 374.033 307.806C374.22 307.868 374.42 307.899 374.634 307.899C374.793 307.899 374.959 307.885 375.132 307.858C375.312 307.823 375.446 307.795 375.536 307.775L375.546 309.34C375.394 309.388 375.194 309.433 374.945 309.475C374.703 309.523 374.41 309.547 374.064 309.547C373.594 309.547 373.163 309.454 372.769 309.267C372.375 309.081 372.06 308.77 371.825 308.334C371.597 307.892 371.483 307.298 371.483 306.552V295.399ZM382.61 309.547C381.829 309.547 381.121 309.416 380.485 309.153C379.856 308.884 379.314 308.507 378.858 308.024C378.409 307.54 378.063 306.966 377.821 306.303C377.58 305.64 377.459 304.914 377.459 304.126V303.691C377.459 302.779 377.593 301.967 377.863 301.255C378.132 300.537 378.499 299.929 378.962 299.431C379.424 298.933 379.95 298.557 380.537 298.301C381.124 298.046 381.732 297.918 382.361 297.918C383.163 297.918 383.854 298.056 384.434 298.332C385.022 298.609 385.502 298.996 385.875 299.493C386.248 299.984 386.524 300.564 386.704 301.234C386.884 301.898 386.974 302.623 386.974 303.411V304.271H378.599V302.706H385.056V302.561C385.028 302.064 384.925 301.58 384.745 301.11C384.572 300.64 384.296 300.253 383.916 299.949C383.536 299.645 383.018 299.493 382.361 299.493C381.926 299.493 381.525 299.586 381.159 299.773C380.793 299.953 380.478 300.222 380.216 300.581C379.953 300.941 379.749 301.38 379.604 301.898C379.459 302.416 379.386 303.014 379.386 303.691V304.126C379.386 304.658 379.459 305.159 379.604 305.629C379.756 306.092 379.974 306.5 380.257 306.852C380.547 307.205 380.896 307.481 381.304 307.681C381.719 307.882 382.188 307.982 382.714 307.982C383.391 307.982 383.964 307.844 384.434 307.567C384.904 307.291 385.315 306.921 385.668 306.458L386.828 307.381C386.587 307.747 386.279 308.096 385.906 308.428C385.533 308.759 385.073 309.029 384.527 309.236C383.988 309.443 383.349 309.547 382.61 309.547ZM391.508 293.419V309.34H389.58V293.419H391.508ZM401.329 306.365C401.329 306.089 401.266 305.833 401.142 305.598C401.025 305.356 400.779 305.139 400.406 304.945C400.04 304.745 399.487 304.572 398.748 304.427C398.126 304.296 397.563 304.14 397.058 303.96C396.561 303.781 396.136 303.563 395.783 303.307C395.438 303.052 395.172 302.751 394.985 302.406C394.799 302.06 394.705 301.656 394.705 301.193C394.705 300.751 394.802 300.333 394.996 299.939C395.196 299.545 395.476 299.196 395.835 298.892C396.201 298.588 396.64 298.35 397.152 298.177C397.663 298.004 398.233 297.918 398.862 297.918C399.76 297.918 400.527 298.077 401.163 298.395C401.798 298.712 402.286 299.137 402.624 299.669C402.963 300.195 403.132 300.778 403.132 301.421H401.215C401.215 301.11 401.121 300.81 400.935 300.519C400.755 300.222 400.489 299.977 400.137 299.783C399.791 299.59 399.366 299.493 398.862 299.493C398.33 299.493 397.898 299.576 397.566 299.742C397.241 299.901 397.003 300.105 396.851 300.353C396.706 300.602 396.633 300.865 396.633 301.141C396.633 301.349 396.668 301.535 396.737 301.701C396.813 301.86 396.944 302.008 397.131 302.147C397.317 302.278 397.58 302.402 397.919 302.52C398.257 302.637 398.689 302.755 399.214 302.872C400.133 303.079 400.89 303.328 401.484 303.618C402.078 303.909 402.521 304.264 402.811 304.686C403.101 305.108 403.246 305.619 403.246 306.22C403.246 306.711 403.142 307.16 402.935 307.567C402.735 307.975 402.441 308.328 402.054 308.625C401.674 308.915 401.218 309.143 400.686 309.309C400.161 309.468 399.57 309.547 398.914 309.547C397.925 309.547 397.089 309.371 396.405 309.019C395.721 308.666 395.203 308.21 394.85 307.65C394.498 307.091 394.322 306.5 394.322 305.878H396.25C396.277 306.403 396.429 306.821 396.706 307.132C396.982 307.436 397.321 307.654 397.722 307.785C398.122 307.909 398.52 307.972 398.914 307.972C399.439 307.972 399.877 307.903 400.23 307.764C400.589 307.626 400.862 307.436 401.049 307.194C401.235 306.952 401.329 306.676 401.329 306.365ZM410.631 309.547C409.85 309.547 409.142 309.416 408.506 309.153C407.877 308.884 407.335 308.507 406.879 308.024C406.43 307.54 406.084 306.966 405.842 306.303C405.6 305.64 405.48 304.914 405.48 304.126V303.691C405.48 302.779 405.614 301.967 405.884 301.255C406.153 300.537 406.519 299.929 406.982 299.431C407.445 298.933 407.971 298.557 408.558 298.301C409.145 298.046 409.753 297.918 410.382 297.918C411.184 297.918 411.875 298.056 412.455 298.332C413.042 298.609 413.523 298.996 413.896 299.493C414.269 299.984 414.545 300.564 414.725 301.234C414.905 301.898 414.994 302.623 414.994 303.411V304.271H406.62V302.706H413.077V302.561C413.049 302.064 412.946 301.58 412.766 301.11C412.593 300.64 412.317 300.253 411.937 299.949C411.557 299.645 411.039 299.493 410.382 299.493C409.947 299.493 409.546 299.586 409.18 299.773C408.814 299.953 408.499 300.222 408.237 300.581C407.974 300.941 407.77 301.38 407.625 301.898C407.48 302.416 407.407 303.014 407.407 303.691V304.126C407.407 304.658 407.48 305.159 407.625 305.629C407.777 306.092 407.995 306.5 408.278 306.852C408.568 307.205 408.917 307.481 409.325 307.681C409.739 307.882 410.209 307.982 410.735 307.982C411.412 307.982 411.985 307.844 412.455 307.567C412.925 307.291 413.336 306.921 413.689 306.458L414.849 307.381C414.608 307.747 414.3 308.096 413.927 308.428C413.554 308.759 413.094 309.029 412.548 309.236C412.009 309.443 411.37 309.547 410.631 309.547Z" fill="#26045D"/>
<path d="M185.364 428.377C185.364 421.05 191.304 415.11 198.631 415.11H477.24C484.567 415.11 490.507 421.05 490.507 428.377V534.514C490.507 541.841 484.567 547.781 477.24 547.781H185.364V428.377Z" fill="#7BB68A"/>
<path d="M288.584 473.354H290.522L295.466 485.657L300.4 473.354H302.349L296.213 488.445H294.699L288.584 473.354ZM287.952 473.354H289.662L289.942 482.558V488.445H287.952V473.354ZM301.26 473.354H302.971V488.445H300.981V482.558L301.26 473.354ZM308.49 477.23V488.445H306.562V477.23H308.49ZM306.417 474.256C306.417 473.945 306.51 473.682 306.697 473.468C306.89 473.254 307.173 473.147 307.546 473.147C307.913 473.147 308.193 473.254 308.386 473.468C308.586 473.682 308.687 473.945 308.687 474.256C308.687 474.553 308.586 474.809 308.386 475.023C308.193 475.23 307.913 475.334 307.546 475.334C307.173 475.334 306.89 475.23 306.697 475.023C306.51 474.809 306.417 474.553 306.417 474.256ZM313.864 472.525V488.445H311.936V472.525H313.864ZM317.206 477.23H319.134V489.782C319.134 490.466 319.023 491.047 318.802 491.524C318.588 492 318.263 492.36 317.828 492.602C317.4 492.85 316.857 492.975 316.201 492.975C316.028 492.975 315.828 492.958 315.6 492.923C315.365 492.888 315.168 492.847 315.009 492.799L315.019 491.254C315.15 491.282 315.299 491.303 315.465 491.316C315.631 491.337 315.776 491.347 315.9 491.347C316.183 491.347 316.422 491.296 316.615 491.192C316.809 491.088 316.954 490.923 317.051 490.694C317.154 490.466 317.206 490.162 317.206 489.782V477.23ZM317.009 474.256C317.009 473.945 317.106 473.682 317.299 473.468C317.493 473.254 317.773 473.147 318.139 473.147C318.512 473.147 318.795 473.254 318.989 473.468C319.182 473.682 319.279 473.945 319.279 474.256C319.279 474.553 319.182 474.809 318.989 475.023C318.795 475.23 318.512 475.334 318.139 475.334C317.773 475.334 317.493 475.23 317.299 475.023C317.106 474.809 317.009 474.553 317.009 474.256ZM331.173 475.914L324.301 489.845H323.026L329.898 475.914H331.173ZM321.938 482.962V482.724C321.938 481.915 322.055 481.166 322.29 480.475C322.525 479.777 322.863 479.172 323.306 478.661C323.748 478.143 324.283 477.742 324.912 477.459C325.541 477.168 326.246 477.023 327.027 477.023C327.814 477.023 328.523 477.168 329.151 477.459C329.787 477.742 330.326 478.143 330.768 478.661C331.211 479.172 331.549 479.777 331.784 480.475C332.019 481.166 332.137 481.915 332.137 482.724V482.962C332.137 483.771 332.019 484.52 331.784 485.211C331.549 485.902 331.211 486.507 330.768 487.025C330.326 487.537 329.791 487.937 329.162 488.228C328.54 488.511 327.835 488.653 327.047 488.653C326.26 488.653 325.551 488.511 324.923 488.228C324.294 487.937 323.755 487.537 323.306 487.025C322.863 486.507 322.525 485.902 322.29 485.211C322.055 484.52 321.938 483.771 321.938 482.962ZM323.855 482.724V482.962C323.855 483.522 323.921 484.051 324.052 484.548C324.183 485.039 324.38 485.474 324.643 485.854C324.912 486.234 325.247 486.535 325.648 486.756C326.049 486.97 326.515 487.077 327.047 487.077C327.573 487.077 328.032 486.97 328.426 486.756C328.827 486.535 329.158 486.234 329.421 485.854C329.684 485.474 329.88 485.039 330.012 484.548C330.15 484.051 330.219 483.522 330.219 482.962V482.724C330.219 482.171 330.15 481.649 330.012 481.159C329.88 480.661 329.68 480.222 329.411 479.842C329.148 479.455 328.816 479.151 328.416 478.93C328.022 478.709 327.559 478.599 327.027 478.599C326.502 478.599 326.039 478.709 325.638 478.93C325.244 479.151 324.912 479.455 324.643 479.842C324.38 480.222 324.183 480.661 324.052 481.159C323.921 481.649 323.855 482.171 323.855 482.724ZM338.112 486.714L341.18 477.23H343.139L339.107 488.445H337.822L338.112 486.714ZM335.552 477.23L338.713 486.766L338.931 488.445H337.645L333.582 477.23H335.552ZM349.705 488.653C348.924 488.653 348.216 488.521 347.58 488.259C346.951 487.989 346.409 487.613 345.953 487.129C345.503 486.645 345.158 486.072 344.916 485.408C344.674 484.745 344.553 484.019 344.553 483.232V482.796C344.553 481.884 344.688 481.072 344.958 480.361C345.227 479.642 345.593 479.034 346.056 478.536C346.519 478.039 347.044 477.662 347.632 477.407C348.219 477.151 348.827 477.023 349.456 477.023C350.257 477.023 350.948 477.161 351.529 477.438C352.116 477.714 352.596 478.101 352.97 478.599C353.343 479.089 353.619 479.67 353.799 480.34C353.978 481.003 354.068 481.729 354.068 482.517V483.377H345.693V481.812H352.151V481.667C352.123 481.169 352.02 480.685 351.84 480.216C351.667 479.746 351.391 479.359 351.011 479.055C350.631 478.751 350.112 478.599 349.456 478.599C349.021 478.599 348.62 478.692 348.254 478.879C347.887 479.058 347.573 479.328 347.31 479.687C347.048 480.046 346.844 480.485 346.699 481.003C346.554 481.522 346.481 482.119 346.481 482.796V483.232C346.481 483.764 346.554 484.265 346.699 484.735C346.851 485.198 347.069 485.605 347.352 485.958C347.642 486.31 347.991 486.587 348.399 486.787C348.813 486.987 349.283 487.088 349.808 487.088C350.486 487.088 351.059 486.949 351.529 486.673C351.999 486.397 352.41 486.027 352.762 485.564L353.923 486.486C353.681 486.853 353.374 487.202 353.001 487.533C352.628 487.865 352.168 488.134 351.622 488.342C351.083 488.549 350.444 488.653 349.705 488.653ZM358.437 479.625V488.445H356.519V477.23H358.333L358.437 479.625ZM357.981 482.413L357.183 482.382C357.19 481.615 357.304 480.907 357.525 480.257C357.746 479.601 358.057 479.031 358.458 478.547C358.858 478.063 359.335 477.69 359.888 477.427C360.448 477.158 361.066 477.023 361.743 477.023C362.296 477.023 362.794 477.099 363.236 477.251C363.678 477.396 364.055 477.631 364.366 477.956C364.684 478.281 364.925 478.702 365.091 479.221C365.257 479.732 365.34 480.357 365.34 481.097V488.445H363.412V481.076C363.412 480.489 363.326 480.019 363.153 479.666C362.98 479.307 362.728 479.048 362.396 478.889C362.065 478.723 361.657 478.64 361.173 478.64C360.696 478.64 360.261 478.74 359.867 478.941C359.48 479.141 359.145 479.417 358.862 479.77C358.585 480.122 358.368 480.527 358.209 480.983C358.057 481.432 357.981 481.909 357.981 482.413ZM370.548 472.525V488.445H368.62V472.525H370.548ZM375.922 477.23V488.445H373.994V477.23H375.922ZM373.849 474.256C373.849 473.945 373.942 473.682 374.129 473.468C374.322 473.254 374.606 473.147 374.979 473.147C375.345 473.147 375.625 473.254 375.818 473.468C376.019 473.682 376.119 473.945 376.119 474.256C376.119 474.553 376.019 474.809 375.818 475.023C375.625 475.23 375.345 475.334 374.979 475.334C374.606 475.334 374.322 475.23 374.129 475.023C373.942 474.809 373.849 474.553 373.849 474.256ZM386.479 477.23H388.22V488.207C388.22 489.195 388.019 490.038 387.619 490.736C387.218 491.434 386.658 491.962 385.94 492.322C385.228 492.688 384.406 492.871 383.473 492.871C383.086 492.871 382.63 492.809 382.105 492.685C381.586 492.567 381.075 492.363 380.571 492.073C380.073 491.79 379.655 491.406 379.316 490.923L380.322 489.782C380.792 490.349 381.282 490.743 381.794 490.964C382.312 491.185 382.823 491.296 383.328 491.296C383.936 491.296 384.461 491.182 384.903 490.954C385.345 490.726 385.687 490.387 385.929 489.938C386.178 489.496 386.302 488.95 386.302 488.3V479.697L386.479 477.23ZM378.757 482.962V482.745C378.757 481.888 378.857 481.11 379.057 480.413C379.265 479.708 379.558 479.103 379.938 478.599C380.325 478.094 380.792 477.707 381.338 477.438C381.883 477.161 382.498 477.023 383.183 477.023C383.887 477.023 384.502 477.148 385.027 477.396C385.56 477.638 386.009 477.994 386.375 478.464C386.748 478.927 387.042 479.487 387.256 480.143C387.47 480.799 387.619 481.542 387.702 482.371V483.325C387.626 484.147 387.477 484.887 387.256 485.543C387.042 486.2 386.748 486.759 386.375 487.222C386.009 487.685 385.56 488.041 385.027 488.29C384.495 488.532 383.874 488.653 383.162 488.653C382.492 488.653 381.883 488.511 381.338 488.228C380.799 487.944 380.336 487.547 379.949 487.036C379.562 486.524 379.265 485.923 379.057 485.232C378.857 484.534 378.757 483.778 378.757 482.962ZM380.674 482.745V482.962C380.674 483.522 380.729 484.047 380.84 484.538C380.958 485.028 381.134 485.46 381.369 485.833C381.61 486.206 381.918 486.5 382.291 486.714C382.664 486.922 383.11 487.025 383.628 487.025C384.264 487.025 384.789 486.891 385.204 486.621C385.618 486.352 385.946 485.996 386.188 485.554C386.437 485.111 386.631 484.631 386.769 484.113V481.615C386.693 481.235 386.575 480.869 386.416 480.516C386.264 480.157 386.064 479.839 385.815 479.563C385.573 479.279 385.273 479.055 384.913 478.889C384.554 478.723 384.133 478.64 383.649 478.64C383.124 478.64 382.671 478.751 382.291 478.972C381.918 479.186 381.61 479.483 381.369 479.863C381.134 480.236 380.958 480.672 380.84 481.169C380.729 481.66 380.674 482.185 380.674 482.745Z" fill="#26045D"/>
<path d="M93.731 165.68C81.6611 168.952 73.8511 175.188 71.2272 183.677C68.5416 192.289 71.505 202.538 79.315 211.799C91.1071 225.752 112.345 240.693 124.168 248.472V163.025C119.63 161.883 110.401 161.142 93.731 165.68V165.68ZM126.823 301.011C125.156 299.869 124.168 297.986 124.168 295.98V291.658C76.1354 293.603 73.1102 315.582 70.8876 331.757L70.7024 333.054C68.8503 346.482 91.7245 386.921 107.684 393.867C115.247 397.139 125.094 396.182 132.75 391.397C139.943 386.921 148.771 377.105 149.79 355.897C151.611 318.144 127.07 301.166 126.823 301.011V301.011ZM150.191 436.868C129.941 416.309 101.418 404.764 96.1388 402.726H95.7375C89.8106 402.726 77.1233 404.146 72.3076 410.876C71.4124 412.141 70.3937 413.469 69.2824 414.889C60.2068 426.773 49.8656 440.232 67.9859 461.285C69.5911 463.168 71.3816 465.298 73.3263 467.645C86.2606 483.141 110.339 511.973 126.422 507.898C136.022 505.46 149.975 489.716 155.408 470.207C157.692 462.057 160.039 446.869 150.191 436.868V436.868ZM168.651 564.173C155.069 542.379 130.25 523.796 103.794 515.616C103.331 515.554 102.035 515.338 100.214 515.338C95.6758 515.338 87.9584 516.665 82.2785 524.599C81.3215 525.926 80.2719 527.315 79.2224 528.766C65.5164 547.195 57.3668 561.488 77.185 577.571C83.0193 582.294 88.5141 587.14 93.8545 591.801C113.704 609.181 129.354 622.918 144.635 617.917C155.655 614.274 166.058 603.624 170.503 591.4C174.084 581.491 173.436 571.829 168.651 564.173Z" fill="#26045D"/>
<path d="M867.969 955.536L868 1734.43L577.981 1029.16L561.775 983.535C531.585 904.54 489.417 831.997 417.553 817.056C358.222 804.708 315.437 753.156 301.052 733.585H483.799C506.611 733.585 525.071 715.125 525.071 692.313C525.071 692.313 525.318 689.782 525.627 685.645C527.726 691.881 529.979 698.301 532.449 704.908L543.778 700.648C536.092 680.119 530.288 661.289 526.028 644.033C525.689 640.39 525.226 636.995 524.577 634.031C512.507 578.868 516.798 540.929 525.071 515.925V513.363C534.919 485.519 549.52 474.745 549.859 474.498L546.433 469.559L543.006 464.558C541.957 465.268 533.715 471.195 525.071 484.716V376.704C534.795 379.822 548.162 385.44 556.62 393.373C562.084 398.498 569.986 397.541 574.555 392.941C576.777 390.719 578.228 387.632 578.198 383.958C578.198 383.804 578.198 383.619 578.198 383.433C578.167 382.507 578.136 381.458 578.074 380.285C577.765 376.21 577.055 370.437 575.111 361.979C573.32 354.046 570.418 343.674 565.788 330.122C565.201 328.393 563.998 325.769 562.423 322.713C558.009 314.039 550.693 301.722 546.062 295.702C546.062 295.702 546.042 295.692 546.001 295.672C544.951 294.282 544.025 293.233 543.315 292.646C533.962 284.806 523.343 275.915 522.108 266.623C521.799 264.401 521.305 261.19 520.657 257.177C509.05 184.202 511.334 144.38 527.417 138.793C529.208 138.176 530.906 137.836 532.572 137.836C535.289 137.744 537.851 138.454 540.29 139.781C540.29 139.781 547.853 144.689 549.335 147.93C554.243 154.043 559.089 162.501 564.553 172.533C571.128 184.634 577.426 196.087 585.39 203.187L591.163 207.786C596.719 212.108 601.473 216.059 605.702 219.578C616.352 228.5 624.779 235.507 637.93 241.619C644.628 244.737 651.204 266.84 657.007 286.349C664.508 311.569 673.028 340.124 687.63 358.306C716.956 394.762 736.249 434.059 736.836 458.384C736.99 464.28 737.515 473.942 738.194 486.198C740.725 531.36 745.386 615.448 737.607 657.986C727.698 712.193 729.519 719.447 745.417 739.913C750.511 746.427 773.014 786.866 796.876 829.682C819.782 870.862 868 955.536 868 955.536H867.969Z" fill="#26045D"/>
</g>
<defs>
<clipPath id="clip0_702_2687">
<rect width="868" height="1035" fill="white"/>
</clipPath>
</defs>
</svg>
