<svg id="co2" xmlns="http://www.w3.org/2000/svg" viewBox="0 0 109.88 76.71">
  <path d="M109.26,18.02c-1.98,11.54-8.03,22.81-18.46,30.75-9.88,7.53-22.78,11.03-35.94,10.95,.03-.5,.05-1.02,.05-1.58-.01-1.48-.15-2.97-.42-4.43-.2-1.02-.46-2.01-.78-2.98,1.71-2.28,3.83-4.35,6.32-6.21,5.18-3.85,11.24-6.71,16.77-10.19-6.19,2.99-12.67,5.54-18.55,8.97-2.11,1.23-4.14,2.59-5.97,4.09-1.12-2.14-2.58-4.11-4.39-5.86-.46-.45-.94-.87-1.45-1.3,.61-1.22,1.29-2.43,2.01-3.61,3.72-6.12,10.8-10.81,17.8-14.14,7.83-3.74,16.31-6.38,24.46-9.55,6.52-2.54,13.1-6.04,15.07-11.9,.02-.09,.05-.19,.08-.28,.19-.45,.49-.74,.82-.74,.27,0,.52,.19,.7,.49,.04,.07,.08,.16,.12,.25,2.56,5.35,2.88,11.77,1.75,17.28h0Z" fill="#f9f7f0"/>
  <path d="M54.23,76.68c-4.95-8.69-18.23-8.38-38.8-16.62C-1.45,53.32-.45,30.04,.38,22.46v-.03c.05-.45,.25-.78,.56-.87,.22-.07,.45-.01,.68,.16,.09,.08,.19,.17,.28,.26,3.84,3.36,16.31,8.88,31.38,13.28,6.3,1.83,10.7,4.47,13.75,7.38,2.07,1.98,3.52,4.08,4.52,6.18,.84,1.76,1.36,3.5,1.68,5.14,.28,1.5,.4,2.91,.4,4.16,.02,3.13-.59,5.27-.59,5.27-1.87-2.08-3.76-3.87-5.62-5.46-6.79-5.75-13.15-8.36-16.43-9.36-.98-.3-1.69-.47-2.03-.52-.22-.03-.32-.03-.26,0,.79,.4,1.55,.78,2.29,1.18,5.26,2.8,9.34,5.69,12.52,8.49,1.18,1.04,2.25,2.07,3.2,3.08,8.44,9.03,7.83,16.41,7.53,15.89h.01Z" fill="#f9f7f0"/>
</svg>