<svg id="eye" xmlns="http://www.w3.org/2000/svg" xmlns:xlink="http://www.w3.org/1999/xlink" viewBox="0 0 110 77.5">
  <defs>
    <style>
      .cls-1 {
        fill: none;
      }

      .cls-2 {
        fill: #7747FF;
      }

      .cls-3 {
        clip-path: url(#clippath);
      }
    </style>
    <clipPath id="clippath">
      <rect y="0" width="110" height="77.5" fill="none"/>
    </clipPath>
  </defs>
  <g clip-path="#clippath">
    <g>
      <path d="M110,39.28c-.55,1.25-1.08,2.52-1.66,3.75-8.88,18.65-23.48,30.15-43.89,33.62C37.42,81.24,11.49,66.84,.77,42.07c-1.06-2.45-1.01-4.41,.08-6.77C9.18,17.19,22.97,5.78,42.48,1.34c2.61-.59,5.3-.78,7.96-1.16,.29-.04,.58-.12,.87-.18h6.94c1.48,.17,2.96,.28,4.43,.51,20.14,3.13,35.02,13.63,44.53,31.61,1.03,1.96,1.86,4.03,2.79,6.04v1.12h0Zm-55.35,28.35c2.72-.25,5.27-.29,7.76-.73,16.7-2.93,28.82-12.01,36.44-27.1,.37-.73,.38-1.31,.02-2.07-9.1-19.12-29.4-30.21-50.57-27.24-17.31,2.43-29.76,11.79-37.6,27.31-.33,.65-.37,1.17-.03,1.85,9.17,18.01,24.06,27.02,43.97,27.98h0Z" fill="#7747FF"/>
      <path d="M54.82,16.24c-12.46-.02-22.61,10.07-22.62,22.5,0,12.44,10.1,22.52,22.58,22.52,12.51,0,22.6-10.03,22.6-22.48,0-12.46-10.07-22.52-22.57-22.53h0Zm.08,38.55v-6.87c0-.88,.58-1.65,1.43-1.89,3.47-.94,4.98-2.42,5.8-5.71,.22-.87,1.01-1.48,1.91-1.48h4.8c1.17,0,2.08,1.01,1.96,2.17-.73,6.63-6.9,13.84-15.89,13.78h0Z" fill="#7747FF"/>
    </g>
  </g>
</svg>