<svg width="33" height="33" viewBox="0 0 33 33" fill="none" xmlns="http://www.w3.org/2000/svg">
<path d="M6.28148 0.642578C3.04472 0.642578 0.438477 3.24882 0.438477 6.48559V26.7996C0.438477 30.0364 3.04472 32.6426 6.28148 32.6426H17.2915V20.1326H13.9835V15.6286H17.2915V11.7806C17.2915 8.75739 19.246 5.98159 23.7485 5.98159C25.5715 5.98159 26.9195 6.15659 26.9195 6.15659L26.8135 10.3626C26.8135 10.3626 25.4387 10.3496 23.9385 10.3496C22.3148 10.3496 22.0545 11.0977 22.0545 12.3396V15.6286H26.9425L26.7295 20.1326H22.0545V32.6426H26.5955C29.8322 32.6426 32.4385 30.0364 32.4385 26.7996V6.48562C32.4385 3.24885 29.8322 0.64261 26.5955 0.64261H6.28145L6.28148 0.642578Z" fill="#F9F7F0"/>
</svg>
