<svg xmlns="http://www.w3.org/2000/svg" version="1.1" xmlns:xlink="http://www.w3.org/1999/xlink" xmlns:svgjs="http://svgjs.com/svgjs" width="127" height="132"><svg width="127" height="132" viewBox="0 0 127 132" fill="none" xmlns="http://www.w3.org/2000/svg">
<path d="M126.041 89.6762C125.717 112.857 106.24 131.238 83.0499 131.238H66.4094C64.1628 131.143 62.3541 129.276 62.3541 126.99V92.2857C62.3541 90.5143 63.4583 88.8952 65.1528 88.3048C65.5717 88.1524 65.9906 88 66.4094 87.8286C69.7033 86.5333 72.7496 84.7619 75.4912 82.5905C76.5955 81.7333 77.6427 80.8 78.6328 79.8095C85.1633 73.2952 89.1806 64.3238 89.1806 54.381C89.1806 44.4381 85.1633 35.4286 78.6328 28.9143C78.4614 28.7238 78.252 28.5143 78.0616 28.3238C77.3 27.6 76.3861 27.2571 75.4912 27.181C73.1875 27.0095 70.8837 28.781 70.8837 31.4476V49.6952C70.8837 52.0381 68.9607 53.9619 66.6189 53.9619H66.4094C64.1628 53.8667 62.3541 51.981 62.3541 49.6952V34.0571C62.3541 31.5429 61.3259 29.2381 59.6695 27.581C57.4038 25.3333 53.9958 24.2095 50.4925 25.2952C46.5894 26.4952 44.0572 30.3048 44.0572 34.4V49.4857C44.0572 51.7143 42.4388 53.7333 40.2112 53.9238C37.66 54.1524 35.5466 52.1524 35.5466 49.6762V31.3905C35.5466 27.6762 31.0723 25.6952 28.3878 28.2476C28.2545 28.381 28.1212 28.4952 28.007 28.6286C27.9308 28.7048 27.8547 28.781 27.7975 28.8571C21.267 35.3714 17.2497 44.3429 17.2497 54.3238C17.2497 64.3048 21.3622 73.4476 28.007 79.981C31.7197 83.6571 36.251 86.5143 41.2965 88.2857C42.9719 88.8571 44.0762 90.4762 44.0762 92.2476V126.952C44.0762 129.295 42.1723 131.2 39.8114 131.2H0V9.08571C0 4.05714 4.05539 0 9.06276 0H83.1641C99.8617 0 114.332 13.6571 114.446 30.381C114.484 38.1524 111.647 45.2571 106.906 50.6667C106.03 51.6762 106.202 53.2381 107.306 53.981C118.768 61.6381 126.25 74.8 126.022 89.6762H126.041Z" fill="#7BB68A"></path>
</svg><style>@media (prefers-color-scheme: light) { :root { filter: none; } }
</style></svg>