<svg width="354" height="556" viewBox="0 0 354 556" fill="none" xmlns="http://www.w3.org/2000/svg">
<path d="M17.9492 14.0665C12.1233 15.6379 8.35363 18.6326 7.08713 22.7094C5.79083 26.8456 7.22123 31.7675 10.9909 36.215C16.6827 42.9159 26.9339 50.0911 32.6407 53.827V12.7916C30.4504 12.243 25.9952 11.8872 17.9492 14.0665V14.0665ZM33.9221 79.0591C33.1175 78.5106 32.6407 77.6062 32.6407 76.6426V74.5671C9.45623 75.5011 7.99603 86.0565 6.92323 93.8247L6.83383 94.4474C5.93983 100.896 16.9807 120.317 24.684 123.653C28.3345 125.224 33.0877 124.764 36.7829 122.467C40.2546 120.317 44.516 115.603 45.0077 105.418C45.8868 87.2869 34.0413 79.1332 33.9221 79.0591V79.0591ZM45.2014 144.304C35.427 134.43 21.6593 128.886 19.1114 127.907H18.9177C16.0569 127.907 9.93303 128.589 7.60863 131.821C7.17653 132.429 6.68483 133.066 6.14843 133.748C1.76782 139.456 -3.22368 145.92 5.52263 156.03C6.29743 156.935 7.16163 157.957 8.10033 159.084C14.3434 166.526 25.9654 180.373 33.7284 178.416C38.3623 177.245 45.0971 169.684 47.7195 160.315C48.8221 156.401 49.9545 149.107 45.2014 144.304V144.304ZM54.1116 205.442C47.5556 194.975 35.576 186.051 22.8066 182.122C22.5831 182.092 21.9573 181.989 21.0782 181.989C18.8879 181.989 15.1629 182.626 12.4213 186.436C11.9594 187.074 11.4528 187.741 10.9462 188.438C4.33063 197.288 0.397021 204.152 9.96283 211.876C12.7789 214.144 15.4311 216.472 18.0088 218.71C27.5895 227.057 35.1439 233.654 42.5194 231.252C47.8387 229.503 52.86 224.388 55.0056 218.517C56.734 213.759 56.4211 209.118 54.1116 205.442Z" fill="#26045D"/>
<path d="M391.657 393.393L432.378 555.691C432.378 555.691 444.64 546.236 379.109 522.691C361.018 516.191 284.131 455.691 243.864 406.839C203.597 357.987 208.938 334.063 174.251 326.888C145.613 320.958 124.962 296.201 118.019 286.802H206.227C217.238 286.802 226.148 277.936 226.148 266.981C226.148 266.981 226.267 265.765 226.416 263.778C227.429 266.773 228.517 269.857 229.709 273.029L235.177 270.983C231.467 261.125 228.666 252.081 226.61 243.794C226.446 242.045 226.222 240.414 225.91 238.991C220.084 212.499 222.155 194.279 226.148 182.271V181.04C230.901 167.668 237.949 162.494 238.113 162.376L236.459 160.004L234.805 157.602C234.298 157.943 230.32 160.789 226.148 167.283V115.41C230.841 116.908 237.293 119.606 241.376 123.416C244.013 125.877 247.827 125.417 250.033 123.208C251.105 122.141 251.806 120.658 251.791 118.894C251.791 118.82 251.791 118.731 251.791 118.642C251.776 118.197 251.761 117.693 251.731 117.13C251.582 115.173 251.24 112.401 250.301 108.339C249.437 104.529 248.036 99.5476 245.801 93.0394C245.518 92.2092 244.937 90.9491 244.177 89.4814C242.046 85.3156 238.515 79.4004 236.28 76.5096C236.28 76.5096 236.27 76.5046 236.25 76.4948C235.744 75.8276 235.297 75.3236 234.954 75.0419C230.439 71.2764 225.314 67.0068 224.718 62.5445C224.569 61.4771 224.33 59.9353 224.017 58.008C218.415 22.9619 219.517 3.83767 227.28 1.15436C228.145 0.857858 228.964 0.694784 229.769 0.694784C231.08 0.650309 232.317 0.991283 233.494 1.62876C233.494 1.62876 237.144 3.98592 237.859 5.54254C240.228 8.47788 242.568 12.5399 245.205 17.358C248.379 23.1694 251.418 28.6695 255.263 32.0792L258.049 34.2881C260.731 36.3636 263.025 38.2612 265.067 39.9513C270.207 44.2357 274.275 47.6009 280.622 50.5363C283.856 52.0336 287.029 62.6483 289.831 72.0176C293.451 84.1296 297.564 97.8427 304.611 106.575C318.766 124.083 328.079 142.955 328.362 154.637C328.437 157.469 328.69 162.109 329.018 167.994C330.239 189.683 332.489 230.066 328.735 250.495C323.952 276.528 324.831 280.012 332.504 289.841C334.963 292.969 345.825 312.389 357.343 332.952C368.398 352.728 391.672 393.393 391.672 393.393H391.657Z" fill="#26045D"/>
</svg>
