<svg width="316" height="406" viewBox="0 0 316 406" fill="none" xmlns="http://www.w3.org/2000/svg">
<path d="M108.907 13.0021C108.907 13.0021 137.093 -1.56852 159.546 29.2447C240.122 139.599 169.658 268.823 136.217 284.668C69.3359 316.436 80.4828 197.403 80.4828 197.403L108.907 13.0021Z" fill="#26045D"/>
<path d="M46.4844 214.92L67.4246 107.034L121.567 154.488L97.1231 225.748C97.1231 225.748 157.555 299.158 75.2274 268.425C-7.10031 237.612 46.4844 214.999 46.4844 214.999V214.92Z" fill="#7747FF"/>
<path d="M27.2162 32.5091C27.2162 32.5091 144.338 -19.7221 163.208 70.2492C189.801 197.085 112.41 194.776 43.1403 125.745C3.7281 86.4918 7.94799 78.7686 27.2958 32.5091H27.2162Z" fill="#7747FF"/>
<path d="M145.931 36.3309C145.931 36.3309 121.646 92.0653 78.0938 93.0208C78.0938 93.0208 63.9213 71.7621 54.765 91.0302C45.6882 110.298 72.9981 113.324 72.9981 113.324L59.8607 151.781C59.8607 151.781 3.1708 116.35 10.257 70.727C17.3433 25.184 45.6882 1.85516 97.362 0.820093C149.036 -0.214975 152.061 23.1139 146.01 36.2513L145.931 36.3309Z" fill="#26045D"/>
<path d="M106.598 210.143C113.286 210.302 197.764 306.006 128.892 332.997L118.063 393.748L27.694 405.213C27.694 405.213 -44.8404 214.203 45.6883 189.919L49.7489 171.049L111.853 191.273L106.598 210.143Z" fill="#7BB68A"/>
<path d="M151.345 78.3706C151.345 78.3706 150.708 75.8227 148.319 72.9564C147.125 71.5232 145.453 69.9308 143.303 68.8161C142.268 68.1792 140.994 67.7014 139.72 67.3033C138.366 67.0645 137.013 66.6664 135.5 66.8256C134.067 66.8256 132.554 67.0645 131.2 67.6218C129.767 67.9403 128.732 68.9754 127.538 69.6123C126.503 70.4085 125.707 71.364 124.91 72.2398C124.194 73.1156 123.716 74.0711 123.238 74.9469C122.203 76.5393 122.044 78.2114 121.805 79.2464C121.646 80.3611 121.566 80.9185 121.566 80.9185C121.566 80.9185 122.124 80.6 123 79.963C123.955 79.4057 124.91 78.3706 126.344 77.5744C127.06 77.1763 127.697 76.6189 128.414 76.2208C129.21 75.9024 129.927 75.4246 130.723 75.1061C131.519 74.9469 132.315 74.4692 133.111 74.3896C133.908 74.2303 134.704 74.0711 135.5 74.1507C136.296 73.9915 137.172 74.3099 138.048 74.2303C138.924 74.4692 139.8 74.4692 140.675 74.7877C142.427 75.1858 144.179 75.9023 145.771 76.4597C148.876 77.654 151.265 78.6095 151.265 78.6095L151.345 78.3706Z" fill="#26045D"/>
<path d="M241.395 135.22L238.529 186.973L261.858 200.747L274.836 190.237L272.288 131.398L241.395 135.22Z" fill="#7747FF"/>
<path d="M220.614 312.137C228.258 316.914 237.335 319.223 246.173 317.71C255.488 316.118 265.6 310.703 268.626 295.098C274.756 263.966 291.556 198.996 282.4 191.671C273.244 184.346 246.889 188.725 235.902 184.584C224.914 180.444 213.687 251.307 213.687 251.307L161.138 218.821L148.319 267.071L220.614 312.216V312.137Z" fill="#7BB68A"/>
<path d="M134.863 80.4406C134.863 80.4406 123.955 84.4217 123.955 98.833C123.955 113.244 128.493 123.117 136.774 123.356C145.055 123.595 202.381 128.133 202.381 128.133C202.381 128.133 202.62 137.449 214.643 137.449H253.976L251.826 68.1791H211.379C211.379 68.1791 201.824 67.2236 200.232 76.2208L134.863 80.361V80.4406Z" fill="#E0FAE1"/>
<path d="M169.339 77.4947C169.339 77.4947 157.316 81.7146 157.316 96.8425C157.316 111.97 162.332 122.321 171.329 122.64C180.406 122.958 243.306 127.656 243.306 127.656C243.306 127.656 243.625 137.449 256.762 137.449H297.687V68.2587L253.179 64.6758C253.179 64.6758 242.669 63.7203 240.997 73.1156L169.179 77.4947H169.339Z" fill="#E0FAE1"/>
<path d="M252.303 137.529C260.219 137.529 266.635 122.022 266.635 102.894C266.635 83.7653 260.219 68.2587 252.303 68.2587C244.388 68.2587 237.972 83.7653 237.972 102.894C237.972 122.022 244.388 137.529 252.303 137.529Z" fill="#7BB68A"/>
<path d="M297.767 137.529C307.837 137.529 316 122.022 316 102.894C316 83.7653 307.837 68.2587 297.767 68.2587C287.697 68.2587 279.534 83.7653 279.534 102.894C279.534 122.022 287.697 137.529 297.767 137.529Z" fill="#7BB68A"/>
<path d="M155.803 79.5648V189.441L158.828 204.967H194.976V194.776C194.976 194.776 183.67 151.064 188.925 142.226C194.18 133.388 198.32 138.643 198.32 124.71V82.4312C198.32 82.4312 217.27 82.5108 220.455 76.4596L223.56 70.4085C223.56 70.4085 177.221 66.6663 155.803 79.4852V79.5648Z" fill="#7747FF"/>
<path d="M200.072 209.904C196.171 234.905 187.094 283.155 187.094 283.155V283.394C183.829 297.805 170.374 307.678 155.644 306.324C107.394 301.945 26.4196 284.986 13.2025 248.918C10.177 240.558 16.3077 214.044 30.7191 214.442C46.484 214.84 68.3796 220.573 93.9378 228.853C109.703 236.577 123.875 244.3 123.875 244.3C123.716 243.583 123.875 241.672 124.353 239.045C127.14 223.041 142.108 188.406 150.23 185.142C156.599 182.594 196.011 187.69 200.55 193.104C202.938 196.05 201.266 201.942 199.992 209.904H200.072Z" fill="#E0FAE1"/>
</svg>
