<svg width="586" height="338" viewBox="0 0 586 338" fill="none" xmlns="http://www.w3.org/2000/svg">
<path d="M0 294.625C0 261.488 26.8629 234.625 60 234.625H534.807C563.08 234.625 586 257.546 586 285.819C586 314.092 563.08 337.012 534.807 337.012H0V294.625Z" fill="#26045D"/>
<path d="M447.468 67.4389L421.248 128.002C421.248 128.002 413.21 130.516 412.738 132.88C412.48 134.148 425.632 137.694 426.943 131.032C427.266 129.377 457.354 78.8294 457.354 78.8294C457.354 78.8294 451.723 66.9661 447.468 67.4174V67.4389Z" fill="#7747FF"/>
<path d="M449.488 21.3178C449.488 21.3178 442.138 54.0063 459.632 62.1085C471.839 67.7608 477.061 53.426 477.061 53.426L449.509 21.2963" fill="#26045D"/>
<path d="M493.33 17.5136C493.33 17.5136 501.69 48.934 494.082 57.2942L481.918 60.8403L481.424 36.7269L493.308 17.5136" fill="#26045D"/>
<path d="M492.621 212.183L502.636 269.565L496.296 270.253L479.382 215.665L492.621 212.183Z" fill="#7747FF"/>
<path d="M504.785 281.752L477.964 284.502L477.899 283.879V283.815L479.081 282.891L496.103 269.63L503.302 269.372L504.613 280.269L504.721 281.214L504.785 281.752Z" fill="#7BB68A"/>
<path d="M470.012 41.5841L472.248 60.0882L483.187 58.8202L481.424 35.502L470.012 41.5841Z" fill="#7747FF"/>
<path d="M471.388 52.996L470.012 41.5841L481.424 35.502L482.349 47.6447H482.306C478.867 49.2135 474.655 50.6965 471.388 52.9745" fill="#26045D"/>
<path d="M474.654 5.52226C474.654 5.52226 461.609 -3.54712 452.733 12.7649C442.911 30.7962 456.73 39.9515 456.73 39.9515L459.868 25.5738C459.868 25.5738 468.723 20.6737 474.676 5.52226H474.654Z" fill="#26045D"/>
<path d="M477.878 11.7329C477.878 11.7329 456.172 1.67493 453.399 24.0905C450.605 46.7209 468.981 60.7978 483.702 39.7362C497.027 20.6733 490.171 11.1097 477.9 11.7329H477.878Z" fill="#7747FF"/>
<path d="M463.651 9.92767C463.651 9.92767 463.909 25.5949 481.037 30.452C481.037 30.452 486.152 25.2511 486.711 29.9792C487.248 34.7073 481.467 36.749 481.467 36.749L482.735 52.4377C482.735 52.4377 494.598 33.1384 493.567 18.9756C492.707 7.0908 470.592 -9.52207 463.651 9.92767Z" fill="#26045D"/>
<path d="M470.765 54.1566L458.214 58.9921L457.655 59.293C457.655 59.293 461.266 75.519 478.373 70.4256C495.501 65.3106 494.083 53.5118 494.083 53.5118L479.877 52.4373L470.765 54.1781V54.1566Z" fill="#7747FF"/>
<path d="M492.298 222.843L475.492 266.793L482.112 269.092L502.614 232.471L492.298 222.843Z" fill="#7747FF"/>
<path d="M496.64 281.386L496.103 282.783L471.925 273.584L472.183 272.897L472.505 272.209L476.868 262.86L484.648 264.751L494.899 280.719L496.64 281.386Z" fill="#7BB68A"/>
<path d="M460.899 24.284C460.577 26.3042 460.104 28.3029 459.545 30.2586C458.987 32.2143 458.385 34.1486 457.676 36.0613L457.203 35.4166C457.826 35.438 458.449 35.481 459.073 35.5455C459.696 35.61 460.319 35.6959 460.964 35.8249C460.341 35.9753 459.717 36.0828 459.094 36.1902C458.471 36.2762 457.848 36.3622 457.224 36.4052L456.558 36.4696L456.752 35.7819C457.289 33.8262 457.912 31.892 458.578 29.9577C459.245 28.045 460.018 26.1538 460.899 24.3055V24.284Z" fill="#26045D"/>
<path d="M463.801 21.8333C463.801 21.8333 464.102 21.1671 464.983 20.5653C465.413 20.2645 465.993 19.9851 466.638 19.8346C467.283 19.6627 468.035 19.6627 468.744 19.7272C469.088 19.8131 469.454 19.8346 469.776 19.9636C470.098 20.071 470.442 20.1785 470.721 20.3504C471.302 20.6298 471.796 20.9952 472.183 21.3175C472.591 21.6184 472.828 21.9838 473.043 22.2202C473.236 22.4566 473.322 22.5855 473.322 22.5855C473.322 22.5855 473.15 22.5425 472.871 22.4566C472.591 22.3706 472.226 22.1987 471.753 22.0697C471.517 22.0053 471.28 21.9193 471.044 21.8118C470.786 21.7259 470.507 21.6829 470.249 21.5754C469.991 21.468 469.69 21.468 469.411 21.3605C469.131 21.2746 468.83 21.2746 468.551 21.2101C468.271 21.1671 467.971 21.1456 467.691 21.1241C467.412 21.1241 467.132 21.0811 466.853 21.1241C466.316 21.1241 465.8 21.2316 465.349 21.339C464.446 21.5539 463.823 21.8118 463.823 21.8118L463.801 21.8333Z" fill="#26045D"/>
<path d="M453.012 23.6812C453.012 23.6812 453.12 23.1224 453.507 22.4346C453.893 21.7254 454.603 20.8443 455.699 20.3285C455.957 20.1995 456.279 20.1566 456.58 20.0706C456.902 20.0706 457.203 20.0276 457.482 20.1351C457.783 20.1781 458.041 20.307 458.256 20.4574C458.493 20.5864 458.664 20.7368 458.793 20.9088C458.944 21.0807 459.073 21.2096 459.159 21.3601C459.245 21.5105 459.309 21.6395 459.352 21.7469C459.46 21.9618 459.503 22.0908 459.503 22.0908L459.18 21.8974C459.18 21.8974 458.965 21.7684 458.836 21.661C458.729 21.5535 458.536 21.5105 458.385 21.4246C458.235 21.3386 458.063 21.2741 457.869 21.2311C457.697 21.1667 457.504 21.1452 457.311 21.1452C457.117 21.1022 456.924 21.1881 456.73 21.1881C456.537 21.2526 456.343 21.2741 456.15 21.4031C455.742 21.5535 455.376 21.8544 454.989 22.0908C454.624 22.3702 454.28 22.6281 454.001 22.8645C453.378 23.3588 452.969 23.6812 452.969 23.6812H453.012Z" fill="#26045D"/>
<path d="M454.946 29.291C454.946 29.291 454.839 28.7967 454.882 28.0445C454.882 27.6791 454.968 27.2278 455.118 26.755C455.226 26.5186 455.29 26.2607 455.505 26.0243C455.677 25.7879 456.021 25.53 456.451 25.5085C456.838 25.53 457.182 25.7234 457.375 25.9169C457.633 26.0888 457.74 26.3252 457.891 26.5186C458.192 26.9269 458.321 27.3353 458.493 27.6791C458.729 28.3884 458.815 28.8827 458.815 28.8827C458.815 28.8827 458.471 28.5173 458.02 27.937C457.783 27.6791 457.547 27.3353 457.246 27.0344C457.096 26.9055 456.967 26.712 456.816 26.6261C456.666 26.4971 456.537 26.4756 456.451 26.4541C456.408 26.4541 456.3 26.4756 456.193 26.6261C456.085 26.755 455.978 26.9269 455.871 27.0989C455.699 27.4642 455.527 27.8511 455.398 28.1735C455.118 28.8612 454.946 29.3125 454.946 29.3125V29.291Z" fill="#26045D"/>
<path d="M466.939 29.3767C466.939 29.3767 466.831 28.8824 466.874 28.1302C466.874 27.7648 466.96 27.3135 467.111 26.8407C467.218 26.6043 467.283 26.3464 467.498 26.11C467.67 25.8736 468.013 25.6157 468.443 25.5942C468.83 25.6157 469.174 25.8091 469.367 25.981C469.625 26.153 469.733 26.3894 469.883 26.5828C470.184 26.9911 470.313 27.3995 470.485 27.7433C470.721 28.4525 470.807 28.9468 470.807 28.9468C470.807 28.9468 470.463 28.5815 470.012 28.0012C469.776 27.7433 469.539 27.3995 469.238 27.0986C469.088 26.9696 468.959 26.7762 468.809 26.6902C468.658 26.5613 468.529 26.5398 468.443 26.5183C468.4 26.5183 468.293 26.5398 468.185 26.6902C468.078 26.8192 467.97 26.9911 467.863 27.1631C467.691 27.5284 467.519 27.9153 467.39 28.2376C467.111 28.9253 466.939 29.3767 466.939 29.3767Z" fill="#26045D"/>
<path d="M459.782 38.9837L470.399 37.9951C470.399 37.9951 468.314 42.7017 464.446 42.6587C459.352 42.5942 459.782 38.9837 459.782 38.9837Z" fill="#26045D"/>
<path d="M462.597 42.4223C463.887 40.7675 465.843 39.5854 468.508 39.3705C468.894 39.349 469.217 39.3705 469.582 39.392C470.119 38.6183 470.399 37.9951 470.399 37.9951L459.782 38.9837C459.782 38.9837 459.481 41.6271 462.597 42.4223Z" fill="#26045D"/>
<path d="M459.954 57.6171C459.954 57.6171 465.327 72.3602 479.06 68.8571C492.793 65.354 490.537 52.8675 490.537 52.8675C490.537 52.8675 500.122 51.4921 505.774 56.4781C511.276 61.3566 526.32 77.6686 526.707 82.891C527.115 88.1135 512.179 112.721 512.179 112.721L505.28 109.39L511.534 85.7924L501.261 79.7533C501.261 79.7533 500.315 108.552 493.717 113.946C487.12 119.362 469.067 110.808 469.067 110.808L456.086 84.1375C456.086 84.1375 432.059 126.862 429.093 126.196C424.537 125.186 420.819 123.338 422.129 120.866C436.83 93.2499 443.793 58.3478 459.954 57.5741V57.6171Z" fill="#E0FAE1"/>
<path d="M501.025 79.3448C490.795 91.0147 475.837 94.3029 460.9 94.3029L469.067 110.83C469.067 110.83 487.12 119.383 493.718 113.968C500.315 108.552 501.261 79.7747 501.261 79.7747L501.626 79.9896C501.411 79.7747 501.218 79.5598 501.025 79.3448Z" fill="#7BB68A"/>
<path d="M488.516 247.859L492.578 264.085L507.364 256.929L493.696 208.358L488.516 247.859Z" fill="#7BB68A"/>
<path d="M493.695 208.359L486.754 160.067L496.747 194.497L493.717 208.359H493.695ZM505.107 111.712C503.925 110.229 499.262 106.016 498.338 104.383C495.071 104.662 466.466 105.973 466.466 105.973C466.466 105.973 450.347 133.074 454.431 149.923C457.16 161.142 478.587 223.037 478.587 223.037L482.434 233.439L472.806 255.984L492.578 264.086C492.578 264.086 510.824 222.801 517.143 206.145C532.359 166.02 505.107 111.712 505.107 111.712Z" fill="#E0FAE1"/>
<path d="M505.602 109.519L504.205 110.443C504.205 110.443 499.671 107.628 498.102 109.455C497.263 110.443 500.079 124.026 508.461 119.147C509.9 118.309 511.921 112.7 511.921 112.7C511.921 112.7 509.578 111.174 505.624 109.498L505.602 109.519Z" fill="#7747FF"/>
<path d="M270.593 164.923C270.593 171.65 265.156 177.088 258.429 177.088H98.6619C91.9351 177.088 86.4978 171.65 86.4978 164.923V114.376C86.4978 107.649 91.9351 102.211 98.6619 102.211H258.429C265.156 102.211 270.593 107.649 270.593 114.376V164.923Z" fill="#FFD2B9"/>
<path d="M277.815 164.923C277.815 171.65 272.377 177.088 265.651 177.088H105.883C99.1566 177.088 93.7192 171.65 93.7192 164.923V114.376C93.7192 107.649 99.1566 102.211 105.883 102.211H265.651C272.377 102.211 277.815 107.649 277.815 114.376V164.923Z" fill="#F9F7F0"/>
<path d="M310.675 237.5C310.675 243.862 306.828 249.02 302.057 249.02H285.551C280.802 249.02 276.933 243.862 276.933 237.5V141.563C276.933 135.201 280.78 130.043 285.551 130.043H302.057C306.806 130.043 310.675 135.201 310.675 141.563V237.5Z" fill="#FFD2B9"/>
<path d="M302.68 237.5C302.68 243.862 298.145 249.02 292.536 249.02H282.521C276.912 249.02 272.377 243.862 272.377 237.5V141.563C272.377 135.201 276.912 130.043 282.521 130.043H292.536C298.145 130.043 302.68 135.201 302.68 141.563V237.5Z" fill="#F9F7F0"/>
<path d="M310.137 234.964C310.137 242.722 306.29 249.019 301.519 249.019H99.2418C94.4922 249.019 90.6238 242.722 90.6238 234.964V185.749C90.6238 177.99 94.4707 171.693 99.2418 171.693H301.519C306.269 171.693 310.137 177.99 310.137 185.749V234.964Z" fill="#FFD2B9"/>
<path d="M119.917 237.5C119.917 243.862 116.07 249.02 111.299 249.02H94.7936C90.044 249.02 86.1755 243.862 86.1755 237.5V141.563C86.1755 135.201 90.0225 130.043 94.7936 130.043H111.299C116.049 130.043 119.917 135.201 119.917 141.563V237.5Z" fill="#FFD2B9"/>
<path d="M111.6 237.5C111.6 243.862 107.753 249.02 102.982 249.02H86.4977C81.7481 249.02 77.8796 243.862 77.8796 237.5V141.563C77.8796 135.201 81.7266 130.043 86.4977 130.043H103.003C107.753 130.043 111.621 135.201 111.621 141.563V237.5H111.6Z" fill="#F9F7F0"/>
<path d="M384.928 177.604C384.928 184.33 390.365 189.768 397.092 189.768H451.444C458.171 189.768 463.608 184.33 463.608 177.604V127.056C463.608 120.329 458.171 114.892 451.444 114.892H397.092C390.365 114.892 384.928 120.329 384.928 127.056V177.604Z" fill="#7747FF"/>
<path d="M377.707 177.604C377.707 184.33 383.144 189.768 389.871 189.768H444.223C450.949 189.768 456.387 184.33 456.387 177.604V127.056C456.387 120.329 450.949 114.892 444.223 114.892H389.871C383.144 114.892 377.707 120.329 377.707 127.056V177.604Z" fill="#26045D"/>
<path d="M345.512 225.852C345.512 228.818 347.919 231.225 350.885 231.225C353.851 231.225 356.258 228.818 356.258 225.852V153.383C356.258 150.417 353.851 148.01 350.885 148.01C347.919 148.01 345.512 150.417 345.512 153.383V225.852Z" fill="#7747FF"/>
<path d="M344.846 223.101C344.846 227.851 348.693 231.719 353.464 231.719H369.969C374.719 231.719 378.587 227.872 378.587 223.101V151.341C378.587 146.592 374.741 142.723 369.969 142.723H353.464C348.714 142.723 344.846 146.57 344.846 151.341V223.101Z" fill="#7747FF"/>
<path d="M352.841 223.101C352.841 227.851 357.376 231.719 362.985 231.719H373C378.609 231.719 383.144 227.872 383.144 223.101V151.341C383.144 146.592 378.609 142.723 373 142.723H362.985C357.376 142.723 352.841 146.57 352.841 151.341V223.101Z" fill="#26045D"/>
<path d="M345.405 239.692C345.405 246.484 349.252 251.986 354.023 251.986H450.884C455.634 251.986 459.503 246.484 459.503 239.692V196.667C459.503 189.875 455.656 184.374 450.884 184.374H354.023C349.273 184.374 345.405 189.875 345.405 196.667V239.692Z" fill="#7747FF"/>
<path d="M410.653 239.951C413.683 244.507 419.787 253.899 422.817 256.929C423.569 257.681 427.889 261.485 427.889 261.485C427.889 261.485 424.364 249.601 421.549 234.943C417.53 236.211 414.564 238.382 410.653 239.929" fill="#7747FF"/>
<path d="M384.562 240.445C390.902 259.207 398.252 261.485 398.252 261.485C398.252 261.485 394.233 242.443 391.418 227.786C387.399 229.054 388.495 238.897 384.584 240.466" fill="#7747FF"/>
<path d="M418.196 251.083C415.66 247.537 412.931 243.389 411.083 240.595C410.932 240.38 410.782 240.165 410.653 239.95C414.564 238.382 417.53 236.232 421.549 234.964V235.007V235.136H421.57V235.265H421.592V235.394H421.613C422.645 240.681 423.763 245.581 424.751 249.686C422.881 249.987 421.033 250.331 419.185 250.739C418.82 250.825 418.497 250.933 418.175 251.062" fill="#26045D"/>
<path d="M388.022 249.02C386.905 246.699 385.766 243.948 384.648 240.703V240.66V240.574H384.627V240.531V240.466C388.517 238.897 387.442 229.076 391.461 227.786V227.937C392.772 234.599 394.298 242.143 395.587 248.397C393.073 248.525 390.58 248.74 388.087 249.041" fill="#26045D"/>
<path d="M399.134 261.592V264.064H368.208L368.637 262.366H369.024C371.99 258.691 389.527 252.072 389.527 252.072C390.236 252.652 391.332 252.996 392.858 252.996C394.062 252.996 395.222 252.609 396.211 251.964C397.758 254.866 398.661 259.895 398.919 261.592H399.134Z" fill="#7BB68A"/>
<path d="M390.687 69.4802L393.954 92.8844L411.168 94.3673L409.513 56.22L390.687 69.4802Z" fill="#7747FF"/>
<path d="M393.374 88.8012L390.666 69.4589L409.557 57.5097L410.008 67.9545V79.1516C404.721 82.8051 399.37 85.7709 393.374 88.8012Z" fill="#26045D"/>
<path d="M403.088 43.1096C413.081 45.839 412.308 52.1145 412.308 52.1145C412.308 52.1145 411.62 56.9501 410.954 62.7098C411.985 61.6137 413.619 61.2269 415.188 61.9576C418.54 63.505 415.231 73.1546 410.03 71.9726C409.6 74.702 409.127 75.2823 408.676 76.013C406.978 78.6994 398.317 85.1683 392.514 85.4477C386.711 85.7486 382.456 78.549 381.661 72.4884C380.243 61.8071 384.304 45.839 384.304 45.839C384.304 45.839 386.54 38.5749 403.088 43.1096Z" fill="#7747FF"/>
<path d="M387.399 76.7872C387.958 77.1096 388.56 77.3245 389.162 77.4535C388.56 77.346 387.958 77.1311 387.399 76.7872Z" fill="#26045D"/>
<path d="M393.266 53.9418C393.266 53.9418 393.438 53.254 394.083 52.4804C394.405 52.0935 394.857 51.6637 395.437 51.3628C395.716 51.1909 396.06 51.0619 396.404 50.9545C396.769 50.89 397.135 50.7825 397.543 50.8255C397.93 50.8255 398.338 50.89 398.704 51.0404C399.091 51.1264 399.37 51.4058 399.692 51.5777C399.972 51.7926 400.187 52.0505 400.402 52.2869C400.595 52.5233 400.724 52.7812 400.853 53.0176C401.132 53.4475 401.175 53.8988 401.24 54.1782C401.283 54.4576 401.304 54.6295 401.304 54.6295C401.304 54.6295 401.154 54.5435 400.917 54.3716C400.659 54.2212 400.402 53.9418 400.015 53.7269C399.821 53.6194 399.649 53.469 399.456 53.3615C399.241 53.2755 399.048 53.1466 398.833 53.0606C398.618 53.0176 398.403 52.8887 398.188 52.8672C397.973 52.8242 397.758 52.7812 397.543 52.8027C397.328 52.7597 397.092 52.8457 396.855 52.8457C396.619 52.9102 396.383 52.9102 396.146 52.9961C395.673 53.1036 395.201 53.297 394.771 53.4475C393.933 53.7698 393.288 54.0277 393.288 54.0277L393.266 53.9418Z" fill="#26045D"/>
<path d="M382.606 54.9518C382.606 54.9518 382.757 54.3286 383.402 53.6408C383.724 53.297 384.132 52.9531 384.691 52.7167C384.97 52.6093 385.25 52.4803 385.572 52.4158C385.895 52.3514 386.217 52.3084 386.561 52.3299C386.905 52.3299 387.227 52.4158 387.549 52.5018C387.872 52.5663 388.151 52.7812 388.431 52.9101C388.946 53.254 389.355 53.6408 389.591 54.0277C389.871 54.393 389.978 54.7799 390.064 55.0163C390.15 55.2742 390.171 55.4246 390.171 55.4246C390.171 55.4246 390.021 55.3817 389.785 55.2742C389.548 55.1882 389.247 54.9948 388.86 54.8659C388.667 54.8014 388.495 54.6939 388.302 54.6295C388.108 54.565 387.893 54.5005 387.7 54.436C387.292 54.3501 386.883 54.2641 386.475 54.2641C386.067 54.2211 385.637 54.2641 385.207 54.3286C384.777 54.393 384.347 54.5005 383.96 54.5865C383.144 54.8014 382.585 54.9518 382.585 54.9518H382.606Z" fill="#26045D"/>
<path d="M390.58 59.1647C390.258 60.0674 389.978 60.9485 389.634 61.8082C389.29 62.6678 389.011 63.5705 388.667 64.4086C388.517 64.8385 388.323 65.2683 388.151 65.6981C388.001 66.128 387.872 66.5793 387.722 67.0091C387.421 67.8688 387.098 68.7499 386.776 69.6096L386.626 69.0723C386.905 69.2872 387.163 69.5666 387.485 69.76C387.786 69.9749 388.13 70.1683 388.474 70.3618C389.162 70.7271 389.892 71.0495 390.644 71.3719C389.828 71.3719 389.011 71.1999 388.216 70.985C387.829 70.8561 387.421 70.7486 387.034 70.5337C386.647 70.3618 386.282 70.1254 385.916 69.8675L385.658 69.6955L385.766 69.3302C386.024 68.4275 386.303 67.5249 386.583 66.6223C386.862 65.7196 387.206 64.8385 387.636 64.0003C388.065 63.1621 388.431 62.3025 388.947 61.4858C389.441 60.6906 389.957 59.8954 390.58 59.1647Z" fill="#26045D"/>
<path d="M394.706 61.6349C394.706 61.6349 394.62 61.1406 394.706 60.3884C394.728 60.0231 394.835 59.5718 395.007 59.1204C395.115 58.884 395.222 58.6476 395.416 58.4112C395.609 58.1748 395.953 57.9384 396.383 57.9384C396.77 57.9814 397.092 58.1748 397.285 58.3897C397.543 58.5832 397.629 58.8196 397.78 59.013C398.059 59.4213 398.188 59.8512 398.317 60.195C398.51 60.9257 398.575 61.42 398.575 61.42C398.575 61.42 398.231 61.0332 397.844 60.4529C397.608 60.1735 397.393 59.8297 397.113 59.5073C396.985 59.3568 396.834 59.1634 396.705 59.0775C396.555 58.927 396.426 58.9055 396.361 58.884C396.318 58.884 396.211 58.884 396.103 59.0345C395.996 59.1419 395.867 59.3139 395.76 59.4858C395.566 59.8512 395.373 60.2165 395.244 60.5389C394.943 61.2051 394.728 61.6564 394.728 61.6564L394.706 61.6349Z" fill="#26045D"/>
<path d="M384.304 60.6896C384.304 60.6896 384.261 60.1953 384.412 59.4431C384.476 59.0777 384.605 58.6479 384.82 58.1966C384.949 57.9816 385.078 57.7452 385.293 57.5303C385.508 57.3154 385.873 57.1005 386.303 57.1435C386.69 57.2294 386.991 57.4444 387.163 57.6593C387.399 57.8742 387.464 58.1106 387.592 58.3255C387.829 58.7553 387.915 59.1852 388.022 59.5505C388.151 60.2812 388.173 60.797 388.173 60.797C388.173 60.797 387.872 60.3887 387.528 59.7654C387.335 59.4645 387.141 59.0992 386.905 58.7553C386.776 58.6049 386.668 58.39 386.539 58.304C386.41 58.1536 386.281 58.1106 386.217 58.0891L385.938 58.218C385.809 58.3255 385.68 58.4759 385.551 58.6264C385.314 58.9702 385.099 59.3141 384.928 59.6365C384.562 60.2812 384.326 60.6896 384.326 60.6896H384.304Z" fill="#26045D"/>
<path d="M398.252 75.2184C398.252 75.2184 398.08 75.3259 397.758 75.5193C397.65 75.5838 397.521 75.6482 397.371 75.7342C397.178 75.8417 396.984 75.9491 396.748 76.0566C395.007 76.9377 391.955 78.0983 389.161 77.4535C388.56 77.3246 387.958 77.1097 387.399 76.7873C387.184 76.6583 386.969 76.5294 386.754 76.379C386.539 76.2285 386.324 76.0566 386.131 75.8417C385.895 75.6482 385.68 75.4118 385.486 75.1539C385.465 75.1324 385.443 75.111 385.422 75.068C385.207 74.8101 385.013 74.5307 384.82 74.2083L398.252 75.2184Z" fill="#26045D"/>
<path d="M415.166 41.7778C413.49 40.7462 412.243 40.9182 411.384 41.348C411.319 41.1976 411.276 41.0686 411.19 40.9182C402.981 22.3281 377.707 35.2444 377.707 35.2444C378.609 35.9107 379.49 36.3405 380.372 36.6414C376.525 37.501 373.537 38.1028 373.537 38.1028C375.858 40.166 378.351 41.1116 380.565 41.5199C378.416 43.2822 377.341 46.0976 377.341 46.0976C389.828 50.6108 399.134 49.3858 403.625 48.2253C403.84 49.7941 404.721 55.2315 404.721 55.2315C404.721 55.2315 408.418 58.0039 408.525 61.7004C408.31 63.3337 408.074 65.3539 407.773 67.3526C408.977 67.8469 410.18 68.3197 411.405 68.7711C411.663 66.9013 411.835 64.7307 411.878 62.2162C412.652 61.6789 413.447 61.5284 413.447 61.5284C417.036 56.349 418.605 43.884 415.188 41.7993L415.166 41.7778Z" fill="#26045D"/>
<path d="M393.373 88.8006C393.373 88.8006 400.895 94.6033 410.781 83.4492C410.781 83.4492 425.095 80.5264 442.847 89.9181C455.827 96.7739 465.52 106.144 464.768 113.731C464.016 121.339 454.065 143.711 451.035 144.463L444.63 140.724L448.434 112.592L432.724 106.381C432.724 106.381 442.739 144.27 439.322 160.603L390.171 152.501L386.496 117.535L379.662 138.639L397.156 145.667L391.074 152.888C391.074 152.888 371.688 152.136 362.941 146.054C362.941 146.054 364.252 95.4199 393.438 88.8006H393.373Z" fill="#E0FAE1"/>
<path d="M390.386 156.564L368.336 167.46C368.336 167.46 359.976 174.295 363.522 186.459C369.733 207.757 383.036 248.032 383.036 248.032L396.984 247.022L384.304 187.469L430.682 158.326L390.386 156.564Z" fill="#7BB68A"/>
<path d="M419.787 156.564C419.787 156.564 380.501 161.894 380.006 180.635C379.491 199.397 413.447 250.568 413.447 250.568L427.631 246.011C427.631 246.011 405.323 188.243 401.283 185.191L430.941 184.675L430.683 158.326L419.787 156.564Z" fill="#E0FAE1"/>
<path d="M428.77 261.592V264.064H397.865L398.295 262.366H398.682C401.648 258.691 419.163 252.072 419.163 252.072C419.872 252.652 420.969 252.996 422.516 252.996C423.719 252.996 424.858 252.609 425.869 251.964C427.416 254.866 428.319 259.895 428.576 261.592H428.77Z" fill="#7BB68A"/>
<path d="M387.485 127.421L389.054 142.443L390.881 143.389L390.365 156.563L439.279 160.625C442.396 145.753 434.379 113.065 432.918 107.283C421.979 119.254 403.733 125.744 387.485 127.421Z" fill="#7BB68A"/>
<path d="M397.22 146.054L390.902 143.389L390.536 152.867C392.256 153.447 403.345 159.658 405.237 152.76C405.795 150.761 399.09 146.656 397.22 146.054Z" fill="#7747FF"/>
<path d="M438.506 241.412C438.506 247.257 442.353 251.985 447.124 251.985H463.629C468.379 251.985 472.247 247.257 472.247 241.412V153.318C472.247 147.473 468.4 142.745 463.629 142.745H447.124C442.374 142.745 438.506 147.473 438.506 153.318V241.412Z" fill="#26045D"/>
<path d="M448.585 142.982C447.875 142.53 447.188 142.079 446.5 141.606C446.392 141.542 446.113 141.348 445.984 141.262L445.834 141.176C445.619 141.047 445.425 140.94 445.253 140.789C440.74 141.692 432.337 152.287 447.467 146.614C449.896 145.711 450.949 144.851 451.207 144.099C450.282 143.863 449.38 143.497 448.585 142.982Z" fill="#7747FF"/>
<path d="M446.221 128.904L444.631 140.724L451.035 144.464C452.368 144.142 455.011 139.671 457.633 134.127C453.636 132.751 449.832 131.096 446.221 128.883V128.904Z" fill="#7BB68A"/>
<path d="M245.341 258.777C242.547 263.14 240.226 266.019 238.27 267.61C237.948 267.868 237.626 268.104 237.325 268.319C237.045 268.491 236.787 268.641 236.53 268.749C236.1 268.964 235.67 269.093 235.283 269.157C235.111 269.157 234.961 269.2 234.789 269.2C233.327 269.2 232.102 268.19 231.028 266.342C230.555 265.547 230.361 264.751 230.383 263.978C230.383 263.569 230.447 263.161 230.555 262.774C230.576 262.731 230.576 262.667 230.598 262.624C231.543 259.336 235.541 256.327 237.561 254.307C236.766 256.585 237.862 259.121 240.419 259.357C242.117 259.529 243.772 259.357 245.341 258.777Z" fill="#7BB68A"/>
<path d="M285.164 198.387C279.705 209.39 260.75 236.577 248.693 253.147C248.5 253.512 248.285 253.899 248.048 254.307C238.979 270.061 234.509 271.114 233.026 264.322C232.08 259.938 236.314 255.296 239.43 252.567C239.473 252.459 239.516 252.352 239.581 252.244C251.852 229.463 257.676 194.088 268.336 175.971C269.174 169.33 270.442 162.775 272.205 156.414L286.217 163.743C296.232 164.839 291.783 185.019 285.164 198.387Z" fill="#26045D"/>
<path d="M229.115 127.056L231.006 143.776C231.006 143.776 211.621 154.801 216.177 176.658C220.454 197.161 272.807 185.599 272.807 185.599L273.559 163.548L288.582 164.494L262.534 151.384C262.534 151.384 271.281 131.999 262.534 117.557C253.787 103.115 229.093 127.056 229.093 127.056H229.115Z" fill="#E0FAE1"/>
<path d="M265.585 141.326C266.918 134.492 267.283 125.315 262.577 117.557C253.83 103.115 229.136 127.056 229.136 127.056L230.447 137.802C240.183 143.475 254.023 144.679 265.585 141.326Z" fill="#7BB68A"/>
<path d="M254.002 183.815C240.978 183.084 222.152 180.656 215.812 172.467C215.704 175.068 216.113 174.681 216.757 177.797C220.948 198.321 272.829 185.599 272.829 185.599L273.817 184.159C267.155 185.577 260.535 185.169 254.002 183.836V183.815Z" fill="#7BB68A"/>
<path d="M314.994 71.7589C314.371 73.4138 311.577 77.9485 311.577 77.9485C310.675 79.6248 309.944 80.9788 309.385 82.0104H309.428C307.73 93.4223 300.509 116.783 297.156 117.944C295.072 118.653 287.722 117.428 279.662 115.644C280.114 114.226 280.35 112.7 280.35 111.088L280.178 111.239C280.221 111.131 280.243 111.024 280.243 110.916C280.243 109.004 275.235 107.456 269.067 107.413C269.046 107.37 269.024 107.306 269.003 107.241C271.496 104.512 272.119 101.03 271.904 98.5588C279.877 101.331 289.291 103.33 289.291 103.33C289.291 103.33 289.763 102.384 290.559 100.901C293.009 95.1631 298.36 83.6867 301.283 77.4542V77.2822C298.188 74.8537 298.124 67.4822 298.102 66.8589C298.059 65.7628 298.338 63.2913 298.338 63.2913C299.929 62.969 300.423 64.0005 300.488 66.5795C300.552 69.2015 301.906 69.1155 301.906 69.1155C301.906 69.1155 302.83 69.3089 303.905 67.5466C304.979 65.7413 306.118 56.4571 307.709 55.5114C308.633 54.9741 320.711 56.5 314.994 71.7589Z" fill="#7747FF"/>
<path d="M247.339 82.6117C245.018 82.9985 242.461 82.7836 239.796 81.8595C239.774 78.2704 239.71 74.0151 239.495 69.5449C239.28 65.3756 238.958 61.0558 238.464 56.8435C238.356 55.8334 238.227 54.8018 238.077 53.8132C246.587 50.3101 248.994 45.0017 249.596 41.4986C253.572 42.8096 257.226 46.2267 259.332 53.3189C263.716 68.1265 257.505 80.9783 247.339 82.6117Z" fill="#26045D"/>
<path d="M260.299 91.0361H260.385C260.385 91.0361 260.364 91.0791 260.364 91.1006C260.364 91.1651 260.364 91.208 260.321 91.251C260.256 91.4015 260.213 91.5519 260.149 91.6809C260.127 91.7453 260.084 91.8098 260.063 91.8743C259.031 94.1094 257.118 95.2054 254.883 95.6138C255.356 94.0019 255.421 92.4116 255.378 91.4015C255.378 91.0361 255.356 90.7567 255.335 90.5633C255.335 90.3699 255.292 90.2624 255.292 90.2624L258.086 90.6923C258.988 90.5848 259.762 90.6923 260.299 91.0361Z" fill="#26045D"/>
<path d="M254.883 95.6137C253.98 98.5365 251.68 101.588 245.964 101.76C245.878 101.782 245.813 101.782 245.727 101.782C237.947 101.911 232.703 96.0865 230.21 92.4115C233.8 92.5834 237.604 91.9387 237.604 91.9387C237.646 90.0689 237.689 88.5001 237.689 87.0601C237.689 84.868 237.625 82.9982 237.453 80.8921C238.248 81.2789 239.022 81.6013 239.796 81.8592C242.461 82.7833 245.018 82.9982 247.339 82.6114L247.747 87.7908L247.876 89.4027L255.334 90.5632C255.334 90.7567 255.377 91.036 255.377 91.4014C255.42 92.4115 255.355 94.0019 254.883 95.6137Z" fill="#26045D"/>
<path d="M247.34 82.6117C245.019 82.9985 242.461 82.7836 239.796 81.8595C239.023 81.6016 238.249 81.2792 237.454 80.8924C237.131 77.3893 236.487 73.2844 235.24 66.1493C235.111 65.3971 234.982 64.6234 234.832 63.8067C234.251 60.454 234.23 57.5312 234.638 55.0167C235.885 54.6513 237.024 54.243 238.077 53.8132C246.588 50.3101 248.995 45.0017 249.596 41.4986C253.572 42.8096 257.226 46.2267 259.332 53.3189C263.716 68.1265 257.505 80.9783 247.34 82.6117Z" fill="#7747FF"/>
<path d="M250.262 62.5604C251.122 63.2482 251.831 64.0004 252.519 64.7526C252.884 65.1179 253.207 65.5048 253.55 65.8486C253.722 66.0205 253.894 66.1925 254.066 66.3429C254.217 66.4934 254.453 66.6008 254.41 66.6008L254.926 67.267C254.84 67.5249 254.754 67.7399 254.625 67.9548C254.518 68.1697 254.389 68.3631 254.238 68.5565C253.959 68.9219 253.615 69.2657 253.228 69.5236C252.454 70.0609 251.487 70.2329 250.649 70.1039C251.487 69.889 252.239 69.5236 252.777 68.9649C253.056 68.6855 253.271 68.3846 253.464 68.0407C253.55 67.8688 253.636 67.6969 253.701 67.5249C253.765 67.353 253.83 67.1596 253.873 67.0091L254.389 67.6754C254.088 67.6754 253.916 67.5679 253.744 67.5035C253.593 67.4175 253.464 67.3315 253.335 67.2456C253.099 67.0521 252.884 66.8802 252.691 66.6868C252.325 66.2784 251.982 65.8701 251.681 65.4188C251.079 64.5376 250.563 63.592 250.262 62.5604Z" fill="#26045D"/>
<path d="M252.497 72.7684L242.031 72.575C242.031 72.575 248.07 82.8049 252.497 72.7684Z" fill="#26045D"/>
<path d="M247.189 55.9624C247.189 55.9624 246.587 55.683 245.706 55.3606C244.825 55.0382 243.643 54.6729 242.526 54.7159C241.967 54.7159 241.408 54.8448 240.914 55.0597C240.656 55.1457 240.441 55.2961 240.226 55.4036C239.99 55.511 239.818 55.683 239.624 55.8119C239.452 55.9624 239.259 56.0698 239.13 56.1988C239.001 56.3277 238.872 56.4567 238.765 56.5426C238.571 56.7361 238.421 56.8435 238.421 56.8435C238.421 56.8435 238.464 56.6931 238.593 56.4352C238.722 56.1773 238.85 55.7689 239.173 55.3821C239.323 55.1887 239.474 54.9308 239.71 54.7589C239.947 54.5654 240.161 54.329 240.462 54.2001C240.763 54.0496 241.064 53.8777 241.408 53.8132C241.752 53.7058 242.096 53.6843 242.461 53.6413C243.17 53.6413 243.858 53.7488 244.46 54.0067C245.062 54.2216 245.556 54.5439 245.964 54.8233C246.759 55.4251 247.146 55.9624 247.146 55.9624H247.189Z" fill="#26045D"/>
<path d="M258.622 55.0807C258.622 55.0807 258.106 54.8443 257.333 54.4574C256.946 54.2855 256.516 54.0921 256.065 53.9416C255.828 53.8556 255.592 53.7912 255.356 53.7267C255.119 53.6407 254.883 53.6407 254.646 53.5978C254.41 53.5978 254.174 53.5548 253.959 53.6192L253.636 53.6622L253.335 53.7697C253.12 53.8342 252.949 53.9631 252.755 54.0491C252.562 54.135 252.411 54.2855 252.261 54.4144C251.938 54.6508 251.702 54.9087 251.53 55.0807C251.337 55.2526 251.229 55.36 251.229 55.36C251.229 55.36 251.251 55.2096 251.337 54.9732C251.423 54.7368 251.487 54.35 251.767 53.9631C251.895 53.7697 252.003 53.5333 252.218 53.3613C252.411 53.1679 252.605 52.953 252.906 52.8241C253.163 52.6521 253.464 52.5232 253.808 52.4587C254.131 52.3513 254.453 52.3942 254.797 52.3727C255.119 52.4372 255.442 52.4587 255.742 52.5662C256.043 52.6521 256.323 52.7811 256.559 52.9315C257.075 53.2109 257.483 53.5333 257.784 53.8557C258.429 54.4789 258.687 55.0377 258.687 55.0377L258.622 55.0807Z" fill="#26045D"/>
<path d="M271.281 123.66C271.281 123.768 271.281 123.875 271.281 123.982C271.281 124.111 271.281 124.24 271.26 124.348C271.26 124.563 271.217 124.778 271.195 124.971C271.131 125.551 271.045 126.089 270.959 126.604C270.916 126.884 270.851 127.163 270.808 127.421C270.508 128.947 270.142 130.086 269.863 130.838C269.798 130.989 269.755 131.096 269.712 131.204C269.54 131.633 269.433 131.848 269.433 131.848C268.444 132.472 267.456 133.03 266.467 133.546C265.908 133.847 265.35 134.148 264.791 134.427C264.404 134.621 264.017 134.814 263.63 134.986C263.243 135.18 262.878 135.351 262.491 135.502C262.255 135.631 262.018 135.738 261.782 135.824C261.073 136.125 260.385 136.426 259.697 136.684C259.182 136.877 258.644 137.071 258.107 137.264C257.505 137.479 256.903 137.673 256.302 137.866C255.356 138.167 254.432 138.446 253.529 138.661C253.293 138.726 253.078 138.79 252.863 138.833C252.799 138.855 252.734 138.876 252.67 138.876C252.218 139.005 251.767 139.112 251.316 139.198C249.381 139.628 247.512 139.951 245.728 140.166C244.524 140.316 243.385 140.402 242.268 140.466C241.967 140.466 241.666 140.509 241.387 140.509C241 140.509 240.613 140.552 240.226 140.552C239.818 140.552 239.409 140.552 239.023 140.552C238.679 140.552 238.356 140.552 238.034 140.552C237.475 140.552 236.916 140.531 236.401 140.509C234.918 140.423 233.564 140.294 232.36 140.101C231.952 140.037 231.565 139.972 231.2 139.908C230.985 139.865 230.791 139.822 230.598 139.779C230.405 139.779 230.211 139.714 230.018 139.671C227.761 139.134 226.386 138.489 226.106 137.93L225.891 137.372C225.805 137.157 225.719 136.899 225.633 136.619C225.633 136.555 225.59 136.49 225.569 136.405L224.043 130.645C223.097 126.626 222.087 121.318 221.464 115.472C221.335 114.354 221.228 113.215 221.142 112.076C221.185 111.947 221.228 111.818 221.249 111.711C221.593 110.636 221.829 109.669 222.044 108.724C222.496 106.531 222.625 104.597 222.603 102.77C222.603 102.018 222.603 101.309 222.517 100.578C222.345 98.2572 221.4 96.323 220.54 95.055C220.153 94.4532 219.766 93.9804 219.508 93.701C219.315 93.4646 219.186 93.3357 219.186 93.3357L220.776 92.6909C220.776 92.6909 220.948 92.6265 221.034 92.605L224.946 90.9931C226.02 91.8528 227.826 92.2396 229.717 92.3686L230.125 92.2611C230.125 92.2611 230.19 92.3686 230.211 92.4116H230.233C232.726 96.0866 237.97 101.911 245.749 101.782C245.835 101.782 245.9 101.782 245.986 101.76C251.703 101.588 254.002 98.5366 254.905 95.6138C255.378 94.0019 255.442 92.4116 255.399 91.4015C255.399 91.0361 255.378 90.7567 255.356 90.5633C255.356 90.3699 255.313 90.2624 255.313 90.2624L258.107 90.6923L260.321 91.0361H260.407L261.245 91.1866C261.975 92.3901 262.685 93.5291 263.308 94.6467C265.93 99.2243 267.757 103.437 269.003 107.241C269.025 107.305 269.046 107.37 269.068 107.413C269.54 108.917 269.949 110.378 270.25 111.754C270.4 112.334 270.508 112.893 270.615 113.452C270.679 113.774 270.744 114.075 270.787 114.354C271.045 115.88 271.217 117.299 271.303 118.61C271.432 120.501 271.389 122.156 271.281 123.66Z" fill="#E0FAE1"/>
<path d="M239.001 140.574C231.651 140.574 226.6 139.026 226.084 137.93C225.504 136.727 222.689 127.163 221.442 115.45C221.313 114.333 221.227 113.194 221.12 112.055C221.507 110.851 221.786 109.755 222.001 108.702C222.237 108.874 222.474 109.046 222.732 109.196C223.419 109.626 224.129 110.013 224.881 110.357C233.134 119.792 246.007 125.874 258.257 125.874C262.04 125.874 265.779 125.293 269.304 124.047H269.368C269.905 124.047 270.572 123.897 271.281 123.639C270.894 128.947 269.411 131.827 269.411 131.827C258.472 138.597 247.275 140.552 239.001 140.552V140.574Z" fill="#7BB68A"/>
<path d="M262.341 46.5272C257.785 37.1569 251.724 34.7069 246.437 34.8573C241.859 30.8385 232.64 31.0963 228.277 33.6968C222.625 37.071 218.348 44.464 219.53 59.551C220.905 76.9805 222.216 80.2042 223.935 89.4026C224.064 90.0473 224.408 90.5846 224.924 90.9929C225.999 91.8526 227.804 92.2394 229.695 92.3684L230.104 92.2609C230.104 92.2609 230.168 92.3684 230.19 92.4114H230.211C233.8 92.5833 237.604 91.9386 237.604 91.9386C237.647 90.0688 237.69 88.4999 237.69 87.06C237.69 84.8679 237.626 82.9981 237.454 80.892C237.131 77.3889 236.486 73.284 235.24 66.1489C235.111 65.3967 234.982 64.623 234.832 63.8063C234.251 60.4536 234.23 57.5308 234.638 55.0163C235.885 54.6509 237.024 54.2426 238.077 53.8128C246.587 50.3097 248.995 45.0013 249.596 41.4982C253.572 42.8092 257.226 46.2263 259.332 53.3185C263.716 68.1261 257.505 80.9779 247.34 82.6113L247.748 87.7907L247.877 89.4026L255.334 90.5631C255.334 90.3697 255.292 90.2622 255.292 90.2622L258.085 90.6921C258.988 90.5846 259.762 90.6921 260.299 91.0359H260.385C260.492 90.7565 260.578 90.4342 260.643 90.0903C264.941 70.0388 266.768 55.5966 262.341 46.5272ZM233.736 78.6569L234.165 86.8236L233.714 78.6569H233.736Z" fill="#26045D"/>
<path d="M252.282 62.431C252.282 62.431 252.39 62.388 252.54 62.2805C252.691 62.1731 252.927 62.0656 253.206 61.8937C253.744 61.5928 254.431 61.206 255.076 61.034C255.227 60.9911 255.377 60.9481 255.506 60.9696L255.828 61.034C256.022 61.0985 256.215 61.3564 256.344 61.5928C256.473 61.8507 256.602 62.0871 256.645 62.2591C256.709 62.431 256.774 62.5384 256.774 62.5384C256.752 62.5384 256.989 62.1301 256.967 61.4209C256.967 61.249 256.903 61.034 256.86 60.8191C256.752 60.6257 256.645 60.3678 256.409 60.1959C256.301 60.0884 256.172 60.0239 256.022 59.981C255.893 59.9165 255.742 59.8735 255.592 59.8735C255.291 59.8305 255.033 59.8735 254.775 59.938C253.787 60.2174 253.142 60.8836 252.734 61.4209C252.54 61.6788 252.411 61.9797 252.347 62.1301C252.282 62.302 252.261 62.431 252.261 62.431H252.282Z" fill="#26045D"/>
<path d="M242.246 63.9577C242.246 63.9577 242.353 63.9147 242.504 63.8073C242.654 63.6998 242.891 63.5924 243.17 63.4204C243.707 63.1195 244.395 62.7327 245.04 62.5608C245.19 62.5178 245.341 62.4748 245.47 62.4963L245.792 62.5608C245.985 62.6252 246.179 62.8617 246.308 63.1195C246.437 63.3774 246.566 63.6139 246.609 63.7858C246.673 63.9577 246.738 64.0652 246.738 64.0652C246.716 64.0652 246.952 63.6568 246.931 62.9476C246.931 62.7757 246.867 62.5608 246.802 62.3459C246.695 62.1524 246.587 61.8945 246.351 61.7226C246.243 61.6152 246.114 61.5507 245.985 61.5077C245.856 61.4432 245.706 61.4002 245.556 61.4002C245.255 61.3573 244.997 61.4002 244.739 61.4647C243.75 61.7441 243.106 62.4103 242.697 62.9476C242.504 63.2055 242.375 63.5064 242.31 63.6568C242.246 63.8288 242.224 63.9577 242.224 63.9577H242.246Z" fill="#26045D"/>
<path d="M258.945 121.275C259.869 119.577 258.085 117.987 258.085 117.987C258.085 116.483 256.903 115.322 256.903 115.322C256.796 114.162 255.076 114.806 253.679 115.537C254.776 114.785 255.872 113.732 255.463 112.808C254.969 111.69 248.994 116.655 248.994 116.655C247.404 118.739 248.393 122.393 248.736 123.424C245.513 124.391 238.657 125.745 232.725 128.991C232.553 127.572 230.361 111.84 226.084 101.825C224 96.9469 221.399 92.5197 221.399 92.5197C221.399 92.5197 210.138 97.914 213.297 110.701C215.446 119.448 223.248 141.563 227.073 143.368C234.058 146.678 253.916 128.754 256.129 127.185C256.108 127.185 256.065 127.185 256.044 127.185C256.71 126.755 257.29 126.412 257.677 126.197C260.492 124.606 258.945 121.297 258.945 121.297V121.275ZM232.167 129.291C231.801 129.356 231.651 129.399 231.629 129.399C231.737 129.356 232.059 129.27 232.338 129.206L232.167 129.291ZM253.615 115.58C252.927 116.053 252.261 116.397 251.96 116.547C252.24 116.354 252.884 115.967 253.615 115.58Z" fill="#7747FF"/>
<path d="M221.399 92.5408C221.399 92.5408 209.987 94.4965 212.91 111.346C212.91 111.346 224.129 113.065 230.963 109.626C237.797 106.209 221.399 92.5408 221.399 92.5408Z" fill="#E0FAE1"/>
<path d="M272.678 198.278C266.144 209.948 242.525 240.036 230.211 254.994C230.168 255.059 230.125 255.102 230.082 255.166C221.85 267.029 217.96 267.158 216.907 260.861C216.112 256.069 221.378 251.319 224.623 248.891C225.182 247.859 225.826 246.763 226.6 245.645C234.874 233.61 238.786 213.58 243.815 198.923C249.875 181.193 259.052 168.448 267.369 165.182C288.581 156.821 281.382 182.697 272.678 198.278Z" fill="#7747FF"/>
<path d="M229.029 256.671C226.342 260.367 224.15 262.731 222.388 263.935C222.13 264.107 221.894 264.257 221.657 264.408C221.421 264.537 221.206 264.644 220.991 264.73C220.776 264.816 220.561 264.881 220.346 264.924C220.153 264.967 219.981 264.988 219.809 264.988C218.842 264.988 218.132 264.408 217.617 263.312C217.402 262.882 217.23 262.366 217.101 261.786C217.015 261.506 216.95 261.184 216.908 260.862C216.843 260.518 216.822 260.196 216.822 259.852C216.822 259.572 216.822 259.314 216.886 259.035C216.907 258.777 216.972 258.498 217.036 258.218C217.165 257.681 217.38 257.144 217.617 256.606C217.832 256.134 218.111 255.661 218.39 255.21C218.433 255.167 218.455 255.124 218.498 255.059C218.82 254.565 219.186 254.07 219.572 253.598C219.551 253.641 219.529 253.684 219.508 253.727C220.217 252.824 221.012 251.964 221.829 251.212C221.872 251.685 222.001 252.179 222.259 252.674C223.656 255.403 226.192 256.649 229.029 256.671Z" fill="#7BB68A"/>
<path d="M217.037 258.217C217.166 257.68 217.38 257.143 217.617 256.605C217.359 257.143 217.166 257.68 217.037 258.217Z" fill="#26045D"/>
<path d="M280.243 110.916C280.243 110.916 280.243 111.131 280.179 111.238C280.136 111.346 280.093 111.453 280.028 111.561C279.964 111.69 279.878 111.776 279.792 111.883C279.706 111.969 279.62 112.055 279.512 112.162C279.362 112.248 279.211 112.377 279.018 112.485C278.868 112.592 278.696 112.678 278.524 112.764C278.33 112.85 278.137 112.936 277.922 113.022C277.729 113.108 277.514 113.194 277.277 113.258C277.041 113.344 276.783 113.43 276.547 113.495H276.525C275.601 113.774 274.526 113.968 273.344 114.14H273.28C272.936 114.183 272.592 114.226 272.227 114.269C271.84 114.269 271.432 114.333 271.023 114.355C270.937 114.355 270.873 114.355 270.787 114.376C270.529 114.376 270.271 114.398 270.013 114.398C269.626 114.398 269.239 114.398 268.853 114.398C266.016 114.398 263.437 114.075 261.46 113.559C259.869 113.13 258.666 112.592 258.021 111.969C257.913 111.862 257.828 111.754 257.742 111.647C257.677 111.539 257.613 111.453 257.57 111.346C257.484 111.174 257.462 111.045 257.462 110.894C257.462 110.551 257.613 110.228 257.913 109.906C259.289 108.466 263.673 107.391 268.853 107.391H269.068C275.236 107.434 280.243 108.982 280.243 110.894V110.916Z" fill="#FFD2B9"/>
<path d="M280.35 111.087C280.35 112.699 280.114 114.225 279.663 115.643C278.352 120.049 275.149 123.402 271.238 124.347C270.507 124.541 269.734 124.627 268.96 124.627C268.573 124.627 268.186 124.627 267.799 124.562C266.961 124.455 266.123 124.24 265.349 123.918C263.372 123.122 261.631 121.704 260.32 119.834C260.019 120.135 259.697 120.35 259.31 120.522H259.224C259.224 120.522 259.181 119.512 259.009 119.211C258.88 118.996 259.396 118.932 259.59 118.76C258.794 117.363 258.193 115.794 257.892 114.096H257.849C257.247 114.096 256.71 114.311 256.258 114.698C256.194 114.741 254.088 115.407 253.765 115.514C255.399 114.354 255.528 113.602 255.528 113.602C256.172 112.914 256.731 112.785 257.698 112.785C257.655 112.334 257.612 111.839 257.612 111.367C257.655 111.474 257.72 111.56 257.784 111.667C257.87 111.775 257.956 111.882 258.064 111.99C258.708 112.613 259.912 113.15 261.502 113.58C263.48 114.096 266.058 114.418 268.895 114.418C269.282 114.418 269.669 114.418 270.056 114.418C270.314 114.418 270.572 114.397 270.83 114.375H271.066C271.474 114.375 271.883 114.311 272.269 114.289C272.635 114.246 272.979 114.203 273.323 114.16H273.387C274.569 113.989 275.644 113.795 276.568 113.516H276.589C276.826 113.451 277.084 113.365 277.32 113.279C277.556 113.215 277.771 113.129 277.965 113.043C278.18 112.957 278.373 112.871 278.566 112.785C278.738 112.699 278.91 112.613 279.061 112.506C279.254 112.398 279.405 112.269 279.555 112.183C279.663 112.076 279.749 111.99 279.834 111.904C279.92 111.796 280.006 111.71 280.071 111.581C280.135 111.474 280.178 111.367 280.221 111.259L280.393 111.109L280.35 111.087Z" fill="#F9F7F0"/>
<path d="M253.615 115.579C252.927 116.052 252.261 116.396 251.96 116.546C252.239 116.353 252.884 115.966 253.615 115.579Z" fill="#7747FF"/>
<path d="M269.003 107.241C269.003 107.241 268.896 107.348 268.853 107.413L260.148 91.6809L259.955 91.337V91.2725H260.32L260.535 91.2295L261.223 91.1866C261.76 91.38 270.314 94.2813 271.303 96.2585C271.582 96.8173 271.797 97.6125 271.883 98.5581C272.098 101.03 271.474 104.511 268.981 107.241H269.003Z" fill="#E0FAE1"/>
<path d="M177.32 290.068C177.32 290.068 172.764 293.249 165.049 292.153C165.049 292.153 163.695 302.469 165.479 303.372C167.262 304.253 196.319 311.968 200.187 309.282C204.077 306.617 177.32 290.068 177.32 290.068Z" fill="#7BB68A"/>
<path d="M150.177 294.044C150.177 294.044 147.018 296.773 139.216 296.902C139.216 296.902 138.657 308.443 140.57 309.023C142.483 309.625 172.377 312.656 175.795 309.41C179.212 306.165 150.177 294.022 150.177 294.022V294.044Z" fill="#7BB68A"/>
<path d="M138.657 233.975L141.129 165.654L185.186 166.149C185.186 166.149 198.06 207.734 195.094 227.528C192.128 247.322 178.545 291.207 178.545 291.207L169.884 292.776L166.037 292.926C166.037 292.926 165.393 245.86 175.773 229.527L165.93 209.368C160.364 235.351 152.455 274.057 151.187 294.452L146.824 296.924H139.216L138.657 294.861C138.657 294.861 129.738 257.724 138.657 233.975Z" fill="#E0FAE1"/>
<path d="M164.963 292.926L169.884 292.776C169.884 292.776 180.114 240.896 183.08 231.246C186.046 221.596 169.712 185.577 169.712 185.577L165.93 209.346L175.773 229.505V229.548H175.752V229.591H175.73V229.634V229.677H175.709V229.72V229.784H175.666V229.827H175.644V229.87V229.913L175.601 229.978V230.021V230.064H175.58V230.107V230.15H175.558V230.193V230.236H175.515V230.279V230.322H175.494V230.365V230.408H175.451V230.451L175.408 230.515C171.045 238.102 168.702 251.19 167.477 263.376C166.704 270.984 165.156 293.012 165.156 293.012L164.963 292.926Z" fill="#7BB68A"/>
<path d="M167.241 69.6739L169.949 50.3316L151.058 38.3824L150.263 55.64L150.112 63.0545C155.399 66.7081 161.266 66.6221 167.262 69.6739" fill="#7747FF"/>
<path d="M157.548 20.9318C147.555 23.6612 148.328 29.9367 148.328 29.9367C148.328 29.9367 149.016 34.7723 149.682 40.532C148.651 39.4359 147.017 39.0491 145.448 39.7798C142.096 41.3272 145.405 50.9768 150.606 49.7948C151.036 52.5242 151.509 54.6303 151.96 55.3396C153.658 58.026 162.319 64.4949 168.122 64.7743C173.925 65.0752 179.469 56.3926 178.997 50.2891C178.524 44.1855 177.772 20.6954 177.772 20.6954C177.772 20.6954 174.14 16.3756 157.591 20.9103L157.548 20.9318Z" fill="#7747FF"/>
<path d="M190.796 108.639H191.441C191.441 109.735 191.032 110.745 190.345 111.454C189.657 112.185 188.69 112.636 187.637 112.636C186.584 112.636 185.617 112.185 184.929 111.454C184.241 110.723 183.833 109.735 183.833 108.639C183.833 107.543 184.241 106.532 184.929 105.823C185.617 105.093 186.584 104.641 187.637 104.641C188.69 104.641 189.657 105.093 190.345 105.823C191.032 106.554 191.441 107.543 191.441 108.639H190.13C190.13 107.886 189.829 107.199 189.378 106.704C188.905 106.21 188.303 105.931 187.615 105.931C186.928 105.931 186.304 106.232 185.853 106.704C185.402 107.199 185.101 107.865 185.101 108.639C185.101 109.412 185.402 110.079 185.853 110.573C186.326 111.067 186.928 111.347 187.615 111.347C188.303 111.347 188.926 111.046 189.378 110.573C189.829 110.079 190.13 109.412 190.13 108.639H190.774H190.796Z" fill="#FFD2B9"/>
<path d="M187.292 102.75C187.292 104.685 192.386 106.254 198.683 106.254C204.98 106.254 210.073 104.685 210.073 102.75C210.073 100.816 204.98 99.2473 198.683 99.2473C192.386 99.2473 187.292 100.816 187.292 102.75Z" fill="#FFD2B9"/>
<path d="M198.683 106.253C204.615 106.253 209.472 104.856 210.009 103.073L210.16 102.922C210.16 110.401 205.045 116.44 198.769 116.44C192.494 116.44 187.508 110.53 187.379 103.158C188.066 104.899 192.859 106.232 198.662 106.232L198.683 106.253Z" fill="#FFD2B9"/>
<path d="M191.655 170.383C174.935 175.562 137.131 174.724 137.131 174.724C137.131 174.724 129.717 117.901 129.33 103.802C129.008 91.5094 134.037 74.1658 141.215 66.214L145.793 58.1117L172.635 72.8118L167.005 79.2593C171.84 85.7067 175.752 92.369 176.955 95.8721C181.339 108.66 191.655 170.383 191.655 170.383Z" fill="#7BB68A"/>
<path d="M145.75 19.9652C147.469 18.9121 148.758 19.1056 149.596 19.5784C149.962 17.6227 150.95 15.2371 153.336 12.9375C158.838 7.60765 167.219 13.6897 171.582 13.1309C175.945 12.5507 174.247 8.76819 174.247 8.76819C179.255 11.9489 178.094 15.8604 177.75 16.7415L179.384 12.9375C182.049 18.8262 178.008 21.1043 178.008 21.1043L179.577 20.7389C176.246 27.7451 163.179 26.0903 159.01 25.3596C158.086 25.6604 157.29 26.1333 156.603 26.7135L153.357 31.3557C152.82 32.6022 152.605 33.5478 152.605 33.5478C152.605 33.5478 152.455 37.8461 152.347 41.5426C153.1 47.4957 154.518 55.0607 156.99 55.2112C161.051 55.4691 160.536 49.8813 167.133 49.8813C171.195 49.8813 175.73 48.5488 178.438 50.4186C178.782 48.9786 178.975 47.0444 178.911 44.315C178.911 44.315 181.576 54.8243 180.802 58.7572C180.071 70.5345 163.824 70.6635 152.928 57.2313C152.928 57.2313 149.296 53.3414 149.059 40.3821C148.286 39.8448 147.49 39.6943 147.49 39.6943C143.901 34.5364 142.332 22.0499 145.75 19.9652Z" fill="#26045D"/>
<path d="M166.854 33.7843C166.854 33.7843 166.682 33.0966 166.038 32.3229C165.715 31.9361 165.264 31.5062 164.684 31.2054C164.404 31.0334 164.06 30.9045 163.716 30.797C163.351 30.7325 162.986 30.6251 162.577 30.6681C162.191 30.6681 161.782 30.7325 161.417 30.883C161.03 30.969 160.751 31.2483 160.428 31.4203C160.149 31.6352 159.934 31.8931 159.719 32.1295C159.526 32.3659 159.397 32.6238 159.268 32.8602C158.988 33.29 158.945 33.7413 158.881 34.0207C158.838 34.3216 158.816 34.4721 158.816 34.4721C158.816 34.4721 158.967 34.3861 159.203 34.2142C159.461 34.0637 159.719 33.7843 160.106 33.5694C160.299 33.462 160.471 33.3115 160.665 33.2041C160.88 33.1181 161.073 32.9891 161.288 32.9032C161.503 32.8602 161.718 32.7313 161.933 32.7098C162.148 32.6668 162.362 32.6238 162.577 32.6453C162.792 32.6023 163.029 32.6883 163.265 32.6668C163.502 32.7312 163.738 32.7313 163.974 32.8172C164.447 32.9247 164.92 33.1181 165.35 33.2685C166.188 33.5909 166.833 33.8488 166.833 33.8488L166.854 33.7843Z" fill="#26045D"/>
<path d="M178.008 32.7742C178.008 32.7742 177.858 32.151 177.213 31.4633C176.891 31.1194 176.482 30.7755 175.923 30.5391C175.644 30.4317 175.365 30.3027 175.042 30.2383C174.72 30.1738 174.398 30.1308 174.054 30.1523C173.71 30.1523 173.387 30.2383 173.065 30.3242C172.743 30.3887 172.463 30.6036 172.184 30.7326C171.668 31.0764 171.26 31.4633 171.023 31.8501C170.744 32.2155 170.637 32.6023 170.551 32.8387C170.465 33.0966 170.443 33.2471 170.443 33.2471C170.443 33.2471 170.594 33.2041 170.83 33.0966C171.066 33.0106 171.367 32.8172 171.754 32.6883C171.948 32.6238 172.119 32.5163 172.313 32.4519C172.506 32.3874 172.721 32.3229 172.915 32.2584C173.323 32.1725 173.731 32.0865 174.14 32.0865C174.548 32.0435 174.978 32.0865 175.408 32.151C175.837 32.2155 176.267 32.3229 176.654 32.4089C177.471 32.6238 178.03 32.7742 178.03 32.7742H178.008Z" fill="#26045D"/>
<path d="M170.035 36.9865C170.357 37.8892 170.637 38.7703 170.981 39.63C171.324 40.4896 171.604 41.3923 171.948 42.2305C172.098 42.6603 172.292 43.0901 172.463 43.5199C172.614 43.9498 172.743 44.4011 172.893 44.8309C173.194 45.6906 173.517 46.5717 173.839 47.4314L173.989 46.8941C173.71 47.109 173.452 47.3884 173.13 47.5818C172.829 47.7967 172.485 47.9901 172.141 48.1836C171.453 48.5489 170.723 48.8713 169.97 49.1937C170.787 49.1937 171.604 49.0217 172.399 48.8068C172.786 48.6779 173.194 48.5704 173.581 48.3555C173.968 48.1836 174.333 47.9472 174.699 47.6893L174.956 47.5173L174.849 47.152C174.591 46.2493 174.312 45.3467 174.011 44.4441C173.731 43.5414 173.388 42.6603 172.958 41.8221C172.549 40.9839 172.163 40.1028 171.647 39.3076C171.152 38.5124 170.637 37.7173 170.013 36.9865H170.035Z" fill="#26045D"/>
<path d="M161.481 39.8017C161.481 39.8017 161.503 39.4363 161.739 38.899C161.847 38.6411 162.04 38.3402 162.32 38.0394C162.47 37.8889 162.62 37.7385 162.878 37.588C163.115 37.4591 163.502 37.3301 163.931 37.4161C164.297 37.5021 164.576 37.717 164.705 37.8889C164.899 38.0609 164.942 38.2543 165.049 38.4262C165.221 38.7701 165.264 39.0924 165.307 39.3718C165.328 39.9306 165.285 40.296 165.285 40.296C165.285 40.296 165.049 39.9736 164.791 39.4793C164.619 39.2429 164.49 38.942 164.297 38.6841C164.189 38.5552 164.103 38.4047 163.996 38.3188C163.888 38.1898 163.781 38.1468 163.695 38.1253C163.652 38.1253 163.545 38.1253 163.394 38.1898C163.265 38.2543 163.115 38.3617 162.964 38.4692C162.685 38.7056 162.427 38.9205 162.234 39.1354C161.782 39.5653 161.503 39.8446 161.503 39.8446L161.481 39.8017Z" fill="#26045D"/>
<path d="M173.28 38.3618C173.28 38.3618 173.302 37.9964 173.538 37.4591C173.645 37.2012 173.839 36.9004 174.118 36.5995C174.269 36.449 174.419 36.2986 174.677 36.1482C174.913 36.0192 175.3 35.8903 175.73 35.9762C176.095 36.0622 176.375 36.2771 176.504 36.449C176.697 36.621 176.74 36.8144 176.848 36.9863C177.02 37.3302 177.063 37.6526 177.106 37.9319C177.127 38.4907 177.084 38.8561 177.084 38.8561C177.084 38.8561 176.848 38.5337 176.59 38.0394C176.418 37.803 176.289 37.5021 176.095 37.2442C175.988 37.1153 175.902 36.9648 175.795 36.8789C175.687 36.7499 175.58 36.7069 175.494 36.6854C175.451 36.6854 175.343 36.6854 175.193 36.7499C175.064 36.8144 174.913 36.9219 174.763 37.0293C174.484 37.2657 174.226 37.4806 174.032 37.6955C173.581 38.1254 173.302 38.4048 173.302 38.4048L173.28 38.3618Z" fill="#26045D"/>
<path d="M175.816 52.0301L162.384 53.0402C162.384 53.0402 171.518 59.1223 175.816 52.0301Z" fill="#7747FF"/>
<path d="M174.14 117.773C174.14 117.773 174.505 111.669 177.88 109.799C177.88 109.799 187.185 107.134 187.185 108.66C187.185 111.003 181.082 111.196 181.082 111.196C181.082 111.196 188.324 109.885 187.551 112.271C187.551 112.271 188.303 114.162 187.551 115.882C187.551 115.882 188.797 118.589 186.906 120.072C186.906 120.072 189.313 123.64 185.273 124.07C181.232 124.478 169.197 126.95 169.197 126.95L167.607 118.955L174.119 117.773H174.14Z" fill="#7747FF"/>
<path d="M154.776 85.9006C154.776 85.9006 157.054 75.0044 147.684 70.4482C138.314 65.892 115.511 116.053 122.088 128.991C128.686 141.907 167.456 131.785 173.022 127.723C173.022 127.723 174.29 116.827 171.239 114.807C168.208 112.786 140.828 120.136 137.798 118.353C137.798 118.353 151.488 104.663 154.776 85.9221V85.9006Z" fill="#E0FAE1"/>
<path d="M223.763 172.639C223.763 181.537 267.175 188.758 320.732 188.758C374.289 188.758 417.701 181.537 417.701 172.639C417.701 163.742 374.289 156.521 320.732 156.521C267.175 156.521 223.763 163.742 223.763 172.639Z" fill="#26045D"/>
<path d="M417.68 172.639H223.763V161.549H417.68V172.639Z" fill="#26045D"/>
<path d="M223.763 161.55C223.763 170.447 267.175 177.668 320.732 177.668C374.289 177.668 417.701 170.447 417.701 161.55C417.701 152.652 374.289 145.431 320.732 145.431C267.175 145.431 223.763 152.652 223.763 161.55Z" fill="#7747FF"/>
<path d="M306.053 179.667H335.411V277.797C335.411 280.741 333.025 283.127 330.081 283.127H306.075V179.667H306.053Z" fill="#26045D"/>
<path d="M350.455 157.079C350.455 158.498 343.922 159.658 335.863 159.658C327.803 159.658 321.27 158.498 321.27 157.079C321.27 156.778 321.076 155.962 321.592 155.704C323.569 154.694 329.48 154.5 335.863 154.5C342.246 154.5 348.371 154.672 350.262 155.704C350.713 155.962 350.455 156.8 350.455 157.079Z" fill="#F9F7F0"/>
<path d="M350.455 156.091C350.455 157.509 343.922 158.67 335.863 158.67C327.803 158.67 321.27 157.509 321.27 156.091C321.27 154.672 327.803 153.512 335.863 153.512C343.922 153.512 350.455 154.672 350.455 156.091Z" fill="#FFD2B9"/>
<path d="M335.862 157.702C330.855 157.702 326.793 156.992 326.793 156.09C326.793 155.187 330.855 154.478 335.862 154.478C340.87 154.478 344.932 155.187 344.932 156.09C344.932 156.992 340.87 157.702 335.862 157.702Z" fill="#FFD2B9"/>
<path d="M343.234 149.106H342.589C342.589 150.202 342.998 151.212 343.685 151.921C344.373 152.652 345.34 153.103 346.393 153.103C347.446 153.103 348.414 152.652 349.101 151.921C349.789 151.191 350.197 150.202 350.197 149.106C350.197 148.01 349.789 147 349.101 146.269C348.414 145.538 347.446 145.087 346.393 145.087C345.319 145.087 344.373 145.538 343.685 146.269C342.998 147 342.589 147.988 342.589 149.106H343.9C343.9 148.332 344.18 147.666 344.653 147.172C345.104 146.677 345.727 146.398 346.415 146.398C347.103 146.398 347.726 146.699 348.177 147.172C348.628 147.666 348.929 148.332 348.929 149.106C348.929 149.88 348.628 150.546 348.177 151.04C347.726 151.534 347.103 151.814 346.415 151.814C345.727 151.814 345.104 151.513 344.653 151.04C344.201 150.546 343.9 149.88 343.9 149.106H343.256H343.234Z" fill="#FFD2B9"/>
<path d="M346.716 143.238C346.716 145.173 341.623 146.742 335.326 146.742C329.029 146.742 323.935 145.173 323.935 143.238C323.935 141.304 329.029 139.735 335.326 139.735C341.623 139.735 346.716 141.304 346.716 143.238Z" fill="#FFD2B9"/>
<path d="M343.729 147.537C343.729 149.471 339.882 151.04 335.153 151.04C330.425 151.04 326.578 149.471 326.578 147.537C326.578 145.603 330.425 144.034 335.153 144.034C339.882 144.034 343.729 145.603 343.729 147.537Z" fill="#FFD2B9"/>
<path d="M335.347 146.741C329.415 146.741 324.558 145.344 324.021 143.561L323.87 143.41C323.87 150.889 328.985 156.928 335.261 156.928C341.536 156.928 346.522 151.018 346.651 143.647C345.964 145.387 341.171 146.72 335.368 146.72L335.347 146.741Z" fill="#F9F7F0"/>
<path d="M387.119 163.957C387.119 165.375 380.586 166.536 372.527 166.536C364.467 166.536 357.934 165.375 357.934 163.957C357.934 163.656 357.741 162.839 358.256 162.581C360.234 161.571 366.144 161.378 372.527 161.378C378.91 161.378 385.035 161.55 386.926 162.581C387.377 162.839 387.119 163.677 387.119 163.957Z" fill="#F9F7F0"/>
<path d="M387.119 162.989C387.119 164.408 380.586 165.568 372.527 165.568C364.467 165.568 357.934 164.408 357.934 162.989C357.934 161.571 364.467 160.41 372.527 160.41C380.586 160.41 387.119 161.571 387.119 162.989Z" fill="#FFD2B9"/>
<path d="M372.526 164.579C367.519 164.579 363.457 163.87 363.457 162.967C363.457 162.065 367.519 161.355 372.526 161.355C377.534 161.355 381.596 162.065 381.596 162.967C381.596 163.87 377.534 164.579 372.526 164.579Z" fill="#FFD2B9"/>
<path d="M379.898 156.005H379.253C379.253 157.101 379.662 158.111 380.35 158.821C381.037 159.551 382.004 160.003 383.057 160.003C384.11 160.003 385.078 159.551 385.765 158.821C386.453 158.09 386.861 157.101 386.861 156.005C386.861 154.909 386.453 153.899 385.765 153.168C385.078 152.438 384.11 151.986 383.057 151.986C381.983 151.986 381.037 152.438 380.35 153.168C379.662 153.899 379.253 154.888 379.253 156.005H380.564C380.564 155.232 380.844 154.565 381.317 154.071C381.768 153.577 382.391 153.297 383.079 153.297C383.767 153.297 384.39 153.598 384.841 154.071C385.293 154.565 385.593 155.232 385.593 156.005C385.593 156.779 385.293 157.445 384.841 157.939C384.39 158.434 383.767 158.713 383.079 158.713C382.391 158.713 381.768 158.412 381.317 157.939C380.865 157.445 380.564 156.779 380.564 156.005H379.92H379.898Z" fill="#FFD2B9"/>
<path d="M383.38 150.116C383.38 152.05 378.287 153.619 371.99 153.619C365.693 153.619 360.599 152.05 360.599 150.116C360.599 148.182 365.693 146.613 371.99 146.613C378.287 146.613 383.38 148.182 383.38 150.116Z" fill="#FFD2B9"/>
<path d="M380.392 154.415C380.392 156.349 376.545 157.918 371.817 157.918C367.089 157.918 363.242 156.349 363.242 154.415C363.242 152.48 367.089 150.911 371.817 150.911C376.545 150.911 380.392 152.48 380.392 154.415Z" fill="#FFD2B9"/>
<path d="M371.989 153.619C366.058 153.619 361.201 152.222 360.663 150.438L360.513 150.288C360.513 157.767 365.628 163.806 371.903 163.806C378.179 163.806 383.165 157.896 383.294 150.524C382.606 152.265 377.814 153.597 372.011 153.597L371.989 153.619Z" fill="#F9F7F0"/>
<path d="M281.661 162.495H303.754L304.635 127.185H284.498L281.661 162.495Z" fill="#E0FAE1"/>
<path d="M312.545 127.185H284.498V165.633H312.545V127.185Z" fill="#26045D"/>
<path d="M292.622 135.073C292.622 134.901 292.751 134.772 292.923 134.772H298.403C298.575 134.772 298.704 134.901 298.704 135.073V140.553C298.704 140.725 298.575 140.854 298.403 140.854H292.6V135.051L292.622 135.073Z" fill="#E0FAE1"/>
<path d="M299.348 135.073C299.348 134.901 299.477 134.772 299.649 134.772H305.13C305.302 134.772 305.43 134.901 305.43 135.073V140.553C305.43 140.725 305.302 140.854 305.13 140.854H299.327V135.051L299.348 135.073Z" fill="#E0FAE1"/>
<path d="M302.723 145.002C302.723 145.002 302.787 144.852 302.873 144.852H305.302C305.302 144.852 305.452 144.916 305.452 145.002V147.431C305.452 147.431 305.388 147.581 305.302 147.581H302.701V144.981L302.723 145.002Z" fill="#E0FAE1"/>
<path d="M292.622 141.799C292.622 141.627 292.751 141.498 292.923 141.498H298.403C298.575 141.498 298.704 141.627 298.704 141.799V147.28C298.704 147.452 298.575 147.581 298.403 147.581H292.6V141.778L292.622 141.799Z" fill="#E0FAE1"/>
<path d="M300.875 132.837C300.66 132.837 300.488 133.009 300.488 133.224C300.488 133.439 300.66 133.611 300.875 133.611V132.837ZM306.591 139.328C306.591 139.543 306.763 139.715 306.978 139.715C307.193 139.715 307.365 139.543 307.365 139.328H306.591ZM300.875 133.611H306.677V132.837H300.875V133.611ZM306.591 133.525V139.328H307.365V133.525H306.591ZM306.677 133.611C306.677 133.611 306.591 133.568 306.591 133.525H307.365C307.365 133.138 307.043 132.816 306.656 132.816V133.59L306.677 133.611Z" fill="#E0FAE1"/>
<path d="M300.875 149.214C300.66 149.214 300.488 149.042 300.488 148.827C300.488 148.612 300.66 148.441 300.875 148.441V149.214ZM306.591 142.724C306.591 142.509 306.763 142.337 306.978 142.337C307.193 142.337 307.365 142.509 307.365 142.724H306.591ZM300.875 148.441H306.677V149.214H300.875V148.441ZM306.591 148.526V142.724H307.365V148.526H306.591ZM306.677 148.441C306.677 148.441 306.591 148.484 306.591 148.526H307.365C307.365 148.913 307.043 149.236 306.656 149.236V148.462L306.677 148.441Z" fill="#E0FAE1"/>
<path d="M297.221 132.838C297.436 132.838 297.608 133.009 297.608 133.224C297.608 133.439 297.436 133.611 297.221 133.611V132.838ZM291.504 139.328C291.504 139.543 291.332 139.715 291.117 139.715C290.902 139.715 290.73 139.543 290.73 139.328H291.504ZM297.221 133.611H291.418V132.838H297.221V133.611ZM291.504 133.525V139.328H290.73V133.525H291.504ZM291.418 133.611C291.418 133.611 291.504 133.568 291.504 133.525H290.73C290.73 133.138 291.053 132.816 291.44 132.816V133.59L291.418 133.611Z" fill="#E0FAE1"/>
<path d="M297.221 149.214C297.436 149.214 297.608 149.042 297.608 148.827C297.608 148.612 297.436 148.441 297.221 148.441V149.214ZM291.504 142.724C291.504 142.509 291.332 142.337 291.117 142.337C290.902 142.337 290.73 142.509 290.73 142.724H291.504ZM297.221 148.441H291.418V149.214H297.221V148.441ZM291.504 148.526V142.724H290.73V148.526H291.504ZM291.418 148.441C291.418 148.441 291.504 148.484 291.504 148.526H290.73C290.73 148.913 291.053 149.236 291.44 149.236V148.462L291.418 148.441Z" fill="#E0FAE1"/>
<path d="M292.063 156.328C292.063 156.951 291.526 157.445 290.903 157.445H290.451C290.451 157.445 290.344 157.402 290.344 157.338V156.392C290.344 156.392 290.365 156.306 290.43 156.285H290.473C290.473 156.285 290.645 156.199 290.709 156.134C290.731 156.113 290.774 156.091 290.795 156.07C290.967 155.898 291.074 155.661 291.074 155.382C291.074 155.103 290.967 154.866 290.795 154.694C290.795 154.694 290.752 154.651 290.731 154.651C290.666 154.651 290.602 154.694 290.602 154.759V155.253C290.602 155.253 290.559 155.361 290.494 155.361C290.494 155.361 290.387 155.318 290.387 155.253V154.823C290.387 154.823 290.365 154.694 290.322 154.651C290.258 154.587 290.172 154.565 290.064 154.587C289.957 154.63 289.892 154.716 289.892 154.823V155.232C289.892 155.232 289.849 155.339 289.785 155.361C289.721 155.361 289.656 155.318 289.656 155.253V154.759C289.656 154.759 289.527 154.608 289.463 154.673C289.291 154.866 289.183 155.103 289.183 155.382C289.183 155.661 289.291 155.898 289.484 156.07C289.592 156.177 289.699 156.242 289.849 156.285C289.892 156.285 289.914 156.349 289.914 156.392V157.338C289.914 157.338 289.871 157.445 289.807 157.445H288.732V154.157C288.732 154.028 288.839 153.921 288.968 153.921H290.967C291.418 153.921 291.805 154.286 291.805 154.737C291.805 154.952 291.719 155.146 291.612 155.275C291.59 155.296 291.612 155.339 291.612 155.361C291.913 155.576 292.128 155.919 292.128 156.328H292.063Z" fill="#E0FAE1"/>
<path d="M293.503 157.444C292.901 157.444 292.407 156.992 292.407 156.348C292.407 155.703 292.901 155.251 293.503 155.251C294.105 155.251 294.599 155.703 294.599 156.348C294.599 156.992 294.105 157.444 293.503 157.444ZM293.503 156.971C293.847 156.971 294.062 156.734 294.062 156.348C294.062 155.961 293.847 155.724 293.503 155.724C293.159 155.724 292.944 155.961 292.944 156.348C292.944 156.734 293.159 156.971 293.503 156.971Z" fill="#E0FAE1"/>
<path d="M295.287 157.444H294.771V155.897C294.771 155.897 294.814 155.789 294.878 155.789H295.287V156.069C295.394 155.897 295.588 155.768 295.803 155.768V156.305H295.674C295.437 156.305 295.287 156.391 295.287 156.671V157.444Z" fill="#E0FAE1"/>
<path d="M296.64 155.746C296.855 155.746 297.049 155.854 297.156 156.004V155.338C297.156 155.338 297.199 155.23 297.264 155.23H297.672V157.423H297.156V157.186C297.07 157.337 296.898 157.444 296.64 157.444C296.232 157.444 295.91 157.122 295.91 156.584C295.91 156.047 296.232 155.725 296.64 155.725V155.746ZM296.791 156.198C296.597 156.198 296.425 156.348 296.425 156.606C296.425 156.864 296.597 157.014 296.791 157.014C296.984 157.014 297.156 156.864 297.156 156.606C297.156 156.348 296.984 156.198 296.791 156.198Z" fill="#E0FAE1"/>
<path d="M298.661 157.465C298.166 157.465 297.823 157.143 297.823 156.606C297.823 156.068 298.166 155.746 298.661 155.746C299.155 155.746 299.477 156.068 299.477 156.563C299.477 156.606 299.477 156.67 299.477 156.713H298.338C298.338 156.928 298.489 157.036 298.661 157.036C298.811 157.036 298.876 156.971 298.919 156.885H299.456C299.37 157.208 299.091 157.465 298.661 157.465ZM298.338 156.455H298.983C298.983 156.283 298.833 156.176 298.661 156.176C298.489 156.176 298.36 156.283 298.338 156.455Z" fill="#E0FAE1"/>
<path d="M300.165 157.444H299.649V155.897C299.649 155.897 299.692 155.789 299.757 155.789H300.165V156.069C300.273 155.897 300.466 155.768 300.681 155.768V156.305H300.552C300.316 156.305 300.165 156.391 300.165 156.671V157.444Z" fill="#E0FAE1"/>
<path d="M301.691 157.443H300.896V155.402C300.896 155.402 300.939 155.294 301.003 155.294H301.669C302.121 155.294 302.357 155.552 302.357 155.832C302.357 156.111 302.185 156.261 301.97 156.326C302.207 156.369 302.4 156.584 302.4 156.863C302.4 157.186 302.142 157.443 301.691 157.443ZM301.626 155.509H301.261C301.261 155.509 301.154 155.552 301.154 155.617V156.197H301.626C301.884 156.197 302.035 156.068 302.035 155.853C302.035 155.638 301.884 155.509 301.605 155.509H301.626ZM301.648 156.433H301.261C301.261 156.433 301.154 156.476 301.154 156.541V157.186H301.648C301.927 157.186 302.099 157.057 302.099 156.82C302.099 156.584 301.927 156.433 301.648 156.433Z" fill="#E0FAE1"/>
<path d="M304.012 157.444H303.733V157.207C303.625 157.379 303.432 157.465 303.217 157.465C302.852 157.465 302.551 157.229 302.551 156.777V155.939C302.551 155.939 302.594 155.832 302.658 155.832H302.83V156.756C302.83 157.078 303.002 157.25 303.281 157.25C303.561 157.25 303.754 157.078 303.754 156.734V155.939C303.754 155.939 303.797 155.832 303.862 155.832H304.034V157.465L304.012 157.444Z" fill="#E0FAE1"/>
<path d="M304.979 155.789C305.237 155.789 305.474 155.918 305.581 156.111V155.359C305.581 155.359 305.624 155.251 305.688 155.251H305.86V157.444H305.581V157.143C305.474 157.315 305.28 157.465 304.979 157.465C304.549 157.465 304.206 157.121 304.206 156.627C304.206 156.133 304.549 155.789 304.979 155.789ZM305.022 156.025C304.721 156.025 304.463 156.24 304.463 156.627C304.463 157.014 304.721 157.229 305.022 157.229C305.323 157.229 305.581 157.014 305.581 156.627C305.581 156.24 305.323 156.025 305.022 156.025Z" fill="#E0FAE1"/>
<path d="M306.828 155.789C307.086 155.789 307.322 155.918 307.429 156.111V155.359C307.429 155.359 307.472 155.251 307.537 155.251H307.709V157.444H307.429V157.143C307.322 157.315 307.129 157.465 306.828 157.465C306.398 157.465 306.054 157.121 306.054 156.627C306.054 156.133 306.398 155.789 306.828 155.789ZM306.871 156.025C306.57 156.025 306.312 156.24 306.312 156.627C306.312 157.014 306.57 157.229 306.871 157.229C307.172 157.229 307.429 157.014 307.429 156.627C307.429 156.24 307.172 156.025 306.871 156.025Z" fill="#E0FAE1"/>
<path d="M309.235 155.811H309.449L308.461 158.196H308.181L308.504 157.423L307.902 155.961C307.902 155.961 307.924 155.811 308.01 155.811H308.16L308.676 157.122L309.149 155.875C309.149 155.875 309.213 155.811 309.256 155.811H309.235Z" fill="#E0FAE1"/>
</svg>
