<svg width="267" height="291" viewBox="0 0 267 291" fill="none" xmlns="http://www.w3.org/2000/svg">
<path d="M145.145 137.088C148.618 149.85 194.137 192.096 194.137 192.096C194.137 192.096 195.243 189.928 197.079 186.5C202.94 172.72 216.122 144.564 222.603 130.696C225.545 137.331 231.605 142.485 240.696 142.839C236.781 169.226 220.082 223.172 212.318 225.848C202.343 229.299 150.055 191.211 129.11 184.487C108.164 177.763 88.1467 179.953 88.1467 179.953C88.1467 179.953 125.46 153.5 128.933 166.262L145.145 137.088V137.088Z" fill="#7747FF"/>
<path d="M237.4 148.501C237.4 148.501 240.253 143.591 245.672 133.439L253.546 119.128C253.546 119.128 280.332 91.5027 250.627 114.152C250.627 114.152 249.012 113.953 249.609 112.294C250.207 110.635 261.973 89.2909 260.027 88.4062C258.081 87.5214 246.225 107.516 244.943 107.45C243.66 107.361 254.21 82.5891 251.379 82.1246C248.526 81.6601 239.855 105.437 238.02 104.774C236.184 104.11 239.059 82.4121 236.737 81.5717C234.414 80.7312 230.411 105.238 227.912 109.418C225.479 113.466 223.333 113.002 223.333 113.002C223.333 113.002 220.214 113.223 220.037 107.162C219.883 101.168 218.732 98.8017 215.083 99.5537C215.083 99.5537 214.397 105.26 214.508 107.804C214.574 109.219 214.729 126.295 221.94 131.89L219.75 144.83L237.4 148.523V148.501Z" fill="#7747FF"/>
<path d="M139.152 48.8815C139.152 48.8815 147.203 51.4251 146.782 61.2013C146.362 70.9775 140.589 73.3663 140.589 73.3663C140.589 73.3663 140.08 61.8206 139.129 48.8815H139.152Z" fill="#7BB68A"/>
<path d="M122.718 84.6243L116.082 132.267L81.821 113.068L84.4089 57.6622L122.718 84.6243Z" fill="#7747FF"/>
<path d="M117.232 123.95L122.718 84.6241L84.2762 60.2941L82.6394 95.4177L82.3298 110.502C93.0792 117.912 105.023 117.779 117.21 123.95" fill="#7747FF"/>
<path d="M97.5028 24.7947C77.1762 30.3685 78.7245 43.1307 78.7245 43.1307C78.7245 43.1307 80.1401 52.9511 81.4671 64.6959C79.3659 62.4398 76.0703 61.6657 72.8411 63.1697C66.0287 66.3326 72.7747 85.9514 83.3251 83.5405C84.2098 89.0922 85.1609 93.3831 86.0677 94.8429C89.5182 100.328 107.146 113.444 118.957 114.064C130.769 114.661 142.027 97.0326 141.053 84.5801C140.08 72.1497 138.554 24.3966 138.554 24.3966C138.554 24.3966 131.145 15.5935 97.5028 24.8168V24.7947Z" fill="#7747FF"/>
<path d="M73.5046 22.826C77.0214 20.6805 79.6313 21.1007 81.3565 22.0297C82.0864 18.0484 84.1213 13.2045 88.9873 8.5155C100.201 -2.30029 117.21 10.0638 126.102 8.89151C134.993 7.74136 131.521 0 131.521 0C141.717 6.45851 139.35 14.421 138.643 16.2347L141.96 8.49338C147.379 20.4814 139.151 25.082 139.151 25.082L142.336 24.33C135.546 38.5741 108.982 35.2121 100.489 33.7302C98.6308 34.3495 96.9941 35.3006 95.5785 36.4729L88.9652 45.9173C87.8814 48.4609 87.4169 50.3852 87.4169 50.3852C87.4169 50.3852 87.0851 59.1219 86.8861 66.6199C88.4122 78.7407 91.3318 94.1349 96.3084 94.4446C104.559 94.9533 103.519 83.6288 116.923 83.6288C125.195 83.6288 134.418 80.8861 139.925 84.7126C140.611 81.793 140.501 77.7896 140.346 72.2601C140.346 72.2601 146.295 93.6926 144.747 101.677C143.287 125.653 110.199 125.897 88.0362 98.5807C88.0362 98.5807 80.6267 90.6845 80.1622 64.3196C78.6139 63.2137 76.9771 62.9262 76.9771 62.9262C69.6782 52.4201 66.4931 27.0505 73.4604 22.7817L73.5046 22.826Z" fill="#26045D"/>
<path d="M116.436 50.9604C116.436 50.9604 116.104 49.5669 114.755 47.9744C114.091 47.2003 113.207 46.3155 111.99 45.6741C111.415 45.3202 110.73 45.0548 110.022 44.8115C109.27 44.6788 108.518 44.4576 107.699 44.524C106.903 44.524 106.107 44.6788 105.355 44.9663C104.559 45.1433 103.983 45.6962 103.364 46.0501C102.789 46.4704 102.369 47.0233 101.926 47.4657C101.506 47.9302 101.285 48.4831 101.02 48.9476C100.467 49.8545 100.378 50.7613 100.246 51.3143C100.135 51.9114 100.113 52.2432 100.113 52.2432C100.113 52.2432 100.422 52.0663 100.909 51.7124C101.418 51.4027 101.971 50.8277 102.745 50.3853C103.121 50.1641 103.497 49.8545 103.895 49.6333C104.337 49.4342 104.735 49.213 105.156 48.9918C105.598 48.8813 106.018 48.638 106.461 48.6158C106.903 48.5274 107.323 48.4389 107.788 48.461C108.23 48.3725 108.717 48.5274 109.181 48.5274C109.646 48.6601 110.154 48.6601 110.641 48.837C111.614 49.0803 112.565 49.4563 113.428 49.766C115.109 50.4516 116.436 50.9382 116.436 50.9382V50.9604Z" fill="#26045D"/>
<path d="M139.151 48.8811C139.151 48.8811 138.842 47.5982 137.559 46.2269C136.917 45.5412 136.055 44.8334 134.949 44.3247C134.396 44.0814 133.799 43.8381 133.135 43.7054C132.472 43.5727 131.808 43.4842 131.122 43.5285C130.437 43.5285 129.751 43.6833 129.11 43.8824C128.446 44.0372 127.893 44.4353 127.34 44.7007C126.301 45.3864 125.482 46.1827 124.974 46.9789C124.398 47.7088 124.177 48.5051 124 48.9917C123.846 49.5004 123.779 49.81 123.779 49.81C123.779 49.81 124.089 49.6994 124.575 49.5004C125.062 49.3234 125.681 48.9474 126.433 48.682C126.809 48.5493 127.163 48.3502 127.561 48.2175C127.96 48.1069 128.38 47.9521 128.778 47.8194C129.618 47.6425 130.415 47.4434 131.277 47.4655C132.118 47.3992 132.98 47.4876 133.865 47.5982C134.728 47.7309 135.59 47.9521 136.387 48.1291C138.068 48.5714 139.173 48.859 139.173 48.859L139.151 48.8811Z" fill="#26045D"/>
<path d="M122.917 57.463C123.558 59.2988 124.155 61.1125 124.841 62.8598C125.571 64.6072 126.102 66.4209 126.809 68.1682C127.141 69.0529 127.495 69.9155 127.849 70.7782C128.159 71.6629 128.402 72.5697 128.734 73.4545C129.331 75.2239 129.972 76.9712 130.68 78.7407L131.012 77.6569C130.437 78.0993 129.928 78.6522 129.242 79.0282C128.623 79.4706 127.915 79.8466 127.23 80.2447C125.814 80.9746 124.332 81.6603 122.806 82.3238C124.465 82.2796 126.124 81.9921 127.738 81.5276C128.535 81.2622 129.353 81.0189 130.127 80.6207C130.923 80.289 131.675 79.7803 132.405 79.2715L132.936 78.8955L132.737 78.1656C132.228 76.3077 131.653 74.4719 131.056 72.6361C130.503 70.8003 129.795 69.0087 128.911 67.2835C128.048 65.5583 127.296 63.8109 126.234 62.1963C125.217 60.5596 124.177 58.9449 122.939 57.4851L122.917 57.463Z" fill="#26045D"/>
<path d="M105.532 63.1915C105.532 63.1915 105.598 62.4395 106.062 61.3557C106.284 60.8248 106.682 60.2055 107.235 59.5862C107.544 59.2987 107.854 58.9669 108.385 58.6794C108.871 58.4139 109.646 58.1706 110.53 58.3034C111.282 58.5024 111.835 58.9005 112.123 59.2544C112.543 59.6083 112.609 59.9843 112.808 60.3382C113.162 61.046 113.229 61.6874 113.339 62.2404C113.384 63.3684 113.295 64.0983 113.295 64.0983C113.295 64.0983 112.808 63.4348 112.278 62.4173C111.946 61.9529 111.68 61.3335 111.26 60.8027C111.061 60.5373 110.884 60.2276 110.641 60.0507C110.42 59.7853 110.176 59.6968 110.044 59.6526C109.933 59.6526 109.734 59.6304 109.447 59.7853C109.159 59.918 108.849 60.117 108.562 60.3382C108.009 60.8027 107.478 61.2672 107.058 61.7096C106.151 62.5722 105.554 63.1694 105.554 63.1694L105.532 63.1915Z" fill="#26045D"/>
<path d="M129.53 60.2723C129.53 60.2723 129.596 59.5203 130.061 58.4365C130.282 57.9056 130.68 57.2863 131.233 56.667C131.543 56.3795 131.852 56.0477 132.383 55.7602C132.87 55.4948 133.644 55.2515 134.528 55.3842C135.281 55.5832 135.833 55.9814 136.121 56.3352C136.541 56.6891 136.608 57.0651 136.807 57.419C137.161 58.1268 137.227 58.7682 137.337 59.3212C137.382 60.4492 137.293 61.1791 137.293 61.1791C137.293 61.1791 136.807 60.5156 136.276 59.4981C135.944 59.0337 135.679 58.4144 135.258 57.8835C135.059 57.6181 134.882 57.3084 134.639 57.1315C134.418 56.8661 134.175 56.7776 134.042 56.7334C133.931 56.7334 133.732 56.7113 133.445 56.8661C133.157 56.9988 132.848 57.1979 132.56 57.419C132.007 57.8835 131.476 58.348 131.056 58.7904C130.149 59.653 129.552 60.2502 129.552 60.2502L129.53 60.2723Z" fill="#26045D"/>
<path d="M161.999 216.271C161.535 210.742 161.181 205.433 160.54 200.103L119.997 125.321C119.997 125.321 112.057 123.375 109.535 121.052C107.014 118.73 108.429 120.499 103.917 118.243C95.5122 114.041 82.6395 95.4175 82.6395 95.4175C82.6395 95.4175 83.2145 111.409 81.2018 113.068C79.189 114.727 33.1169 144.63 28.9144 147.196C24.6899 149.762 4.11997 220.695 4.11997 224.809C4.11997 228.923 -1.91829 275.946 0.625301 281.033C3.16889 286.12 5.38071 293.419 18.4083 289.615C31.4359 285.811 46.9407 282.648 46.9407 282.648C46.9407 282.648 85.4706 264.422 86.9083 264.179C88.3681 263.936 132.803 262.012 133.533 261.282C134.263 260.552 133.423 257.654 128.712 257.787C124 257.92 122.187 257.898 122.187 257.898C122.187 257.898 140.302 249.205 140.302 248.365C140.302 247.524 137.758 245.467 135.347 246.197C132.936 246.927 141.983 243.653 141.076 241.795C140.169 239.938 130.415 241.795 130.415 241.795C130.415 241.795 138.421 237.261 137.537 235.824C136.652 234.364 128.667 236.421 128.667 236.421C128.667 236.421 115.396 240.911 112.388 239.827C112.388 239.827 121.7 235.182 120.815 230.803C120.815 230.803 109.646 235.005 105.178 235.182C100.732 235.337 96.9278 234.784 95.0478 237.372C93.1898 239.96 88.8989 246.927 87.041 247.414C85.1831 247.9 35.0412 255.509 32.9399 257.057C32.9399 257.057 38.4695 232.041 38.4695 230.648C38.4695 229.255 52.227 202.248 52.227 202.248L73.1287 200.324L149.348 215.187C149.348 215.187 156.204 226.755 164.808 233.081C163.105 227.662 162.464 221.933 161.999 216.293V216.271Z" fill="#7747FF"/>
<path d="M162.375 203.531C160.473 202.514 151.162 210.3 147.623 214.856C146.782 215.895 146.273 216.78 146.229 217.333C145.986 220.275 146.229 286.364 146.229 286.364H44.8837C44.8837 286.364 45.1491 285.037 45.5915 282.913C46.4541 282.737 46.9407 282.648 46.9407 282.648C46.9407 282.648 85.4705 264.423 86.9082 264.179C88.368 263.936 132.803 262.012 133.533 261.282C134.263 260.552 133.423 257.655 128.712 257.787C124 257.898 122.187 257.898 122.187 257.898C122.187 257.898 140.301 249.205 140.301 248.365C140.301 247.524 137.758 245.467 135.347 246.175C135.104 246.242 134.993 246.286 134.949 246.286C135.435 245.954 141.85 243.366 141.076 241.796C140.213 240.004 131.211 241.641 130.459 241.796C131.145 241.398 138.377 237.217 137.537 235.824C136.652 234.386 128.645 236.443 128.645 236.443C128.645 236.443 115.396 240.933 112.388 239.849C112.388 239.849 121.7 235.205 120.815 230.825C120.815 230.825 109.624 235.05 105.178 235.205C100.732 235.359 96.9278 234.806 95.0477 237.394C93.1898 239.982 88.8989 246.949 87.0409 247.436C85.9129 247.723 67.2009 250.621 52.0721 253.209C52.1163 253.054 52.1385 252.921 52.1827 252.789C53.9743 245.932 49.0419 219.257 48.4668 219.412C47.8697 219.545 43.247 232.661 43.247 232.661C41.6102 231.865 40.0398 231.135 38.5137 230.471C20.0229 222.354 8.94167 222.951 4.25262 223.858C2.50529 224.212 1.66479 224.61 1.66479 224.61C1.66479 215.232 16.5724 168.739 21.3721 157.57C22.5001 154.938 24.6677 152.239 27.3219 149.652C29.1356 147.838 31.1926 146.09 33.2938 144.454C41.1678 138.305 49.7939 133.682 49.7939 133.682C49.8161 133.682 49.8603 133.704 49.8824 133.704C125.527 159.671 119.997 125.344 119.997 125.344C123.116 125.919 135.568 132.178 141.695 135.341C143.796 136.403 165.782 157.238 168.458 166.837C168.458 166.837 153.926 172.013 156.005 179.024C160.031 192.649 163.415 204.106 162.375 203.553V203.531Z" fill="#7BB68A"/>
<path d="M78.459 77.2148C84.2736 77.2148 88.9872 71.7386 88.9872 64.9834C88.9872 58.2282 84.2736 52.7521 78.459 52.7521C72.6444 52.7521 67.9307 58.2282 67.9307 64.9834C67.9307 71.7386 72.6444 77.2148 78.459 77.2148Z" fill="#7BB68A"/>
<path d="M74.2566 74.8479C78.7519 74.8479 82.3961 70.3521 82.3961 64.8063C82.3961 59.2604 78.7519 54.7646 74.2566 54.7646C69.7613 54.7646 66.1171 59.2604 66.1171 64.8063C66.1171 70.3521 69.7613 74.8479 74.2566 74.8479Z" fill="#E0FAE1"/>
<path d="M75.6721 53.9244C75.6721 53.9244 80.9141 22.8041 97.0824 18.6017C113.251 14.3992 128.933 12.298 135.546 25.8564L130.636 21.3443C130.636 21.3443 121.501 13.1606 103.475 21.1674C85.4483 29.1741 78.835 54.7649 78.835 54.7649L75.6721 53.9244Z" fill="#7BB68A"/>
<path d="M135.988 89.3351L110.53 92.0556C110.53 92.0556 127.827 108.335 135.988 89.3351Z" fill="#7747FF"/>
<path d="M131.299 91.8568C131.034 91.8568 130.857 91.8568 130.791 91.8568L130.879 89.468C130.879 89.468 141.098 89.7777 143.531 83.85C145.964 77.8781 141.385 73.1669 141.186 72.9678L142.889 71.2869C143.133 71.5302 148.795 77.3251 145.765 84.7789C143.044 91.4808 133.622 91.901 131.299 91.901V91.8568Z" fill="#7BB68A"/>
<path d="M129.11 92.5868C130.832 92.5868 132.228 91.7153 132.228 90.6404C132.228 89.5654 130.832 88.694 129.11 88.694C127.387 88.694 125.991 89.5654 125.991 90.6404C125.991 91.7153 127.387 92.5868 129.11 92.5868Z" fill="#7BB68A"/>
<path d="M69.9661 284.263C69.9661 286.054 71.4259 287.514 73.2174 287.514H217.339C219.109 287.514 220.746 286.585 221.675 285.081L266.353 211.693C268.101 208.818 266.11 205.124 262.748 205.013L152.113 201.165C147.269 200.988 142.757 203.73 140.678 208.11L107.014 278.711C106.24 280.326 104.625 281.343 102.834 281.321L73.2617 281.033C71.448 281.033 69.9882 282.471 69.9882 284.285L69.9661 284.263Z" fill="#FFD2B9"/>
</svg>
