<svg width="584" height="432" viewBox="0 0 584 432" fill="none" xmlns="http://www.w3.org/2000/svg">
<path d="M564.173 236.065C560.292 254.507 520.614 264.752 481.401 271.924C438.121 279.841 393.134 286.423 351.593 295.768C314.429 304.089 276.893 315.794 257.147 331.069C253.328 334.018 249.758 337.03 246.498 340.073C249.168 341.128 251.745 342.184 254.167 343.302C263.791 347.679 271.522 352.616 277.483 357.925C287.17 354.168 297.943 350.784 309.12 347.71C340.323 339.172 374.754 332.808 407.602 325.356C378.231 334.018 346.066 341.128 318.59 350.753C305.395 355.348 294.124 360.533 285.059 366.245C286.766 368.667 288.163 371.12 289.188 373.666C290.616 377.298 291.392 381.024 291.423 384.718C291.423 386.116 291.299 387.42 291.175 388.661C361.031 388.879 429.428 380.155 481.867 361.371C537.255 341.532 569.358 313.434 579.914 284.653C586.744 268.944 583.546 250.346 564.204 236.065H564.173Z" fill="#26045D"/>
<path d="M247.833 391.331C242.834 388.816 237.122 386.239 230.881 383.662C213.992 376.677 192.352 369.474 164.44 362.488C160.497 361.495 156.461 360.532 152.301 359.539C151.928 359.446 152.518 359.446 153.667 359.539C155.53 359.663 159.224 360.066 164.471 360.812C181.858 363.326 215.668 369.846 251.652 384.19C261.556 388.133 271.584 392.573 281.488 397.789C281.488 397.789 284.748 392.48 284.686 384.656C284.686 381.551 284.065 378.012 282.575 374.286C280.929 370.219 278.135 365.872 273.695 361.464C268.386 356.248 260.686 350.97 249.665 346.033C233.489 338.768 210.173 332.217 176.704 327.622C78.9673 314.241 1.87712 296.637 3.771 289.838C4.54718 287.075 -27.4004 369.008 81.8547 389.53C191.079 410.052 261.556 409.338 287.822 430.978C289.405 432.282 292.634 413.871 247.833 391.331Z" fill="#26045D"/>
<path d="M164.658 72.5393C179.995 71.9184 186.577 70.987 192.849 68.1617C192.445 45.1557 193.842 25.5649 186.888 15.5367C173.444 -3.92989 146.62 10.7244 146.62 10.7244C155.934 24.3541 162.795 52.1413 166.241 68.379C166.241 68.379 158.697 69.0931 164.627 72.5393H164.658Z" fill="#26045D"/>
<path d="M269.381 304.772C269.381 313.962 263.823 321.413 256.931 321.413H233.087C226.225 321.413 220.637 313.962 220.637 304.772V166.209C220.637 157.019 226.194 149.567 233.087 149.567H256.931C263.792 149.567 269.381 157.019 269.381 166.209V304.803" fill="#FFD2B9"/>
<path d="M257.831 304.772C257.831 313.962 251.28 321.414 243.176 321.414H228.708C220.605 321.414 214.054 313.962 214.054 304.772V166.209C214.054 157.019 220.605 149.567 228.708 149.567H243.176C251.28 149.567 257.831 157.019 257.831 166.209V304.803" fill="#FCE4D5"/>
<path d="M125.818 109.331V217.53H68.4736C65.6172 217.53 62.9161 216.847 60.5566 215.605C54.8128 212.749 50.9009 206.788 50.9009 199.957V126.903C50.9009 117.217 58.7558 109.331 68.4736 109.331H125.818Z" fill="#FFD2B9"/>
<path d="M211.477 126.903V199.957C211.477 203.559 210.39 206.943 208.496 209.706C205.36 214.425 199.989 217.53 193.904 217.53H125.817V109.331H193.904C203.622 109.331 211.477 117.217 211.477 126.903Z" fill="#FFD2B9"/>
<path d="M78.9047 109.331H125.817V217.53H78.9047C73.3162 217.53 68.3797 214.922 65.1508 210.886C62.7602 207.905 61.332 204.087 61.332 199.957V126.903C61.332 117.217 69.187 109.331 78.9047 109.331Z" fill="#FCE4D5"/>
<path d="M221.908 126.903V199.957C221.908 203.559 220.822 206.943 218.928 209.706C215.792 214.425 210.421 217.53 204.336 217.53H125.817V109.331H204.336C214.054 109.331 221.908 117.217 221.908 126.903Z" fill="#FCE4D5"/>
<path d="M69.3117 209.706H125.818V321.414H69.3117C62.4503 321.414 56.8618 312.317 56.8618 301.109V230.011C56.8618 224.36 58.29 219.269 60.5564 215.605C61.8294 213.525 63.4128 211.879 65.1514 210.886C66.4554 210.11 67.8525 209.706 69.3117 209.706Z" fill="#FFD2B9"/>
<path d="M268.603 230.011V301.109C268.603 312.317 263.046 321.414 256.153 321.414H125.817V209.706H256.153C263.046 209.706 268.603 218.803 268.603 230.011Z" fill="#FFD2B9"/>
<path d="M99.1791 304.772C99.1791 313.962 93.6217 321.413 86.7292 321.413H62.885C56.0236 321.413 50.4351 313.962 50.4351 304.772V166.209C50.4351 157.019 55.9925 149.567 62.885 149.567H86.7292C93.5906 149.567 99.1791 157.019 99.1791 166.209V304.803V304.772Z" fill="#FFD2B9"/>
<path d="M87.164 304.772C87.164 313.962 81.6066 321.414 74.7141 321.414H50.8698C44.0084 321.414 38.4199 313.962 38.4199 304.772V166.209C38.4199 157.019 43.9774 149.567 50.8698 149.567H74.7141C81.5755 149.567 87.164 157.019 87.164 166.209V304.803V304.772Z" fill="#FCE4D5"/>
<path d="M200.734 312.472C200.734 312.472 196.17 316.415 184.9 316.601C184.9 316.601 184.093 333.273 186.856 334.112C189.619 334.981 232.806 339.359 237.743 334.671C242.679 329.982 200.734 312.441 200.734 312.441V312.472Z" fill="#7BB68A"/>
<path d="M370.531 217.468C370.531 227.185 378.386 235.04 388.104 235.04H466.622C476.34 235.04 484.195 227.185 484.195 217.468V144.445C484.195 134.727 476.34 126.872 466.622 126.872H388.104C378.386 126.872 370.531 134.727 370.531 144.445V217.468Z" fill="#7747FF"/>
<path d="M360.1 217.468C360.1 227.185 367.955 235.04 377.673 235.04H456.191C465.909 235.04 473.764 227.185 473.764 217.468V144.445C473.764 134.727 465.909 126.872 456.191 126.872H377.673C367.955 126.872 360.1 134.727 360.1 144.445V217.468Z" fill="#26045D"/>
<path d="M312.598 283.195C312.598 290.056 318.155 295.645 325.048 295.645H348.892C355.753 295.645 361.342 290.087 361.342 283.195V179.559C361.342 172.698 355.784 167.109 348.892 167.109H325.048C318.186 167.109 312.598 172.667 312.598 179.559V283.226" fill="#7747FF"/>
<path d="M324.147 283.195C324.147 290.056 330.698 295.645 338.802 295.645H353.27C361.373 295.645 367.924 290.087 367.924 283.195V179.559C367.924 172.698 361.373 167.109 353.27 167.109H338.802C330.698 167.109 324.147 172.667 324.147 179.559V283.226" fill="#26045D"/>
<path d="M313.405 307.164C313.405 316.974 318.962 324.923 325.855 324.923H465.784C472.646 324.923 478.234 316.974 478.234 307.164V245.007C478.234 235.196 472.677 227.248 465.784 227.248H325.855C318.993 227.248 313.405 235.196 313.405 245.007V307.164Z" fill="#7747FF"/>
<path d="M407.664 307.536C412.042 314.118 420.859 327.685 425.237 332.063C426.323 333.149 432.564 338.645 432.564 338.645C432.564 338.645 427.472 321.476 423.405 300.302C417.599 302.133 413.315 305.269 407.664 307.504" fill="#7747FF"/>
<path d="M369.973 308.249C379.132 335.353 389.75 338.644 389.75 338.644C389.75 338.644 383.944 311.137 379.877 289.962C374.071 291.794 375.654 306.014 370.004 308.28" fill="#7747FF"/>
<path d="M418.562 323.618C414.898 318.496 410.955 312.503 408.285 308.467C408.068 308.157 407.85 307.846 407.664 307.536C413.315 305.269 417.599 302.165 423.405 300.333V300.395V300.581H423.436V300.768H423.467V300.954H423.498C424.988 308.591 426.603 315.67 428.031 321.6C425.33 322.035 422.66 322.532 419.99 323.122C419.462 323.246 418.996 323.401 418.531 323.587" fill="#7747FF"/>
<path d="M374.972 320.637C373.357 317.284 371.712 313.31 370.097 308.622V308.56V308.435H370.066V308.373V308.28C375.686 306.014 374.134 291.825 379.939 289.962V290.18C381.833 299.804 384.038 310.702 385.9 319.737C382.268 319.923 378.666 320.233 375.065 320.668" fill="#7747FF"/>
<path d="M391.022 338.799V342.37H346.345L346.966 339.917H347.525C351.81 334.608 377.144 325.045 377.144 325.045C378.169 325.884 379.752 326.38 381.956 326.38C383.695 326.38 385.372 325.822 386.8 324.89C389.035 329.082 390.339 336.347 390.712 338.799H391.022Z" fill="#7BB68A"/>
<path d="M433.837 338.799V342.37H389.191L389.812 339.917H390.371C394.656 334.608 419.959 325.045 419.959 325.045C420.984 325.884 422.567 326.38 424.803 326.38C426.541 326.38 428.187 325.822 429.646 324.89C431.881 329.082 433.185 336.347 433.558 338.799H433.837Z" fill="#7BB68A"/>
<path d="M447.901 309.647C447.901 318.092 453.459 324.922 460.351 324.922H484.196C491.057 324.922 496.645 318.092 496.645 309.647V182.384C496.645 173.94 491.088 167.109 484.196 167.109H460.351C453.49 167.109 447.901 173.94 447.901 182.384V309.647Z" fill="#26045D"/>
<path d="M375.406 63.3813L380.063 96.788L404.621 98.8682L402.262 44.5046L375.406 63.3813Z" fill="#7747FF"/>
<path d="M402.975 61.2381L402.354 46.3665L402.975 45.9629V61.2381Z" fill="#FFD2B9"/>
<path d="M379.256 90.9504L375.406 63.3805L402.324 46.3356L402.976 61.2072V77.1655C395.431 82.3504 387.794 86.6038 379.256 90.9194" fill="#7747FF"/>
<path d="M393.072 25.8132C407.322 29.7252 406.236 38.6667 406.236 38.6667C406.236 38.6667 405.242 45.5592 404.311 53.7867C405.77 52.2033 408.099 51.6755 410.365 52.7001C415.146 54.9044 410.427 68.6583 403.007 66.9818C402.386 70.8627 401.703 71.701 401.082 72.7255C398.66 76.5754 386.304 85.7653 378.045 86.2C369.786 86.6347 363.701 76.3891 362.552 67.7269C360.534 52.4827 366.309 29.7252 366.309 29.7252C366.309 29.7252 369.476 19.3864 393.072 25.8443V25.8132Z" fill="#7747FF"/>
<path d="M379.101 41.2444C379.101 41.2444 379.349 40.2509 380.281 39.1643C380.747 38.6054 381.368 38.0155 382.206 37.5498C382.609 37.3014 383.106 37.1151 383.603 36.9599C384.131 36.8668 384.659 36.7115 385.217 36.7736C385.776 36.7736 386.335 36.8668 386.863 37.0841C387.422 37.2083 387.825 37.6119 388.26 37.8292C388.664 38.1087 388.974 38.5123 389.253 38.8227C389.533 39.1643 389.719 39.5368 389.874 39.8473C390.247 40.4682 390.309 41.1202 390.433 41.5238C390.495 41.9275 390.526 42.1758 390.526 42.1758C390.526 42.1758 390.309 42.0516 389.968 41.8033C389.626 41.5859 389.222 41.1823 388.664 40.8719C388.384 40.7166 388.136 40.4993 387.856 40.3441C387.546 40.2199 387.266 40.0336 386.987 39.9094C386.677 39.8473 386.397 39.661 386.087 39.63C385.776 39.5679 385.466 39.5058 385.155 39.5368C384.845 39.4747 384.503 39.5989 384.193 39.5679C383.851 39.661 383.51 39.661 383.168 39.7852C382.485 39.9404 381.833 40.2199 381.212 40.4372C380.032 40.9029 379.101 41.2444 379.101 41.2444Z" fill="#26045D"/>
<path d="M363.887 42.7025C363.887 42.7025 364.105 41.8021 365.005 40.8396C365.44 40.3739 366.061 39.8772 366.837 39.5046C367.24 39.3494 367.644 39.1631 368.11 39.0699C368.575 38.9768 369.041 38.9147 369.538 38.9458C370.035 38.9458 370.5 39.0699 370.966 39.1941C371.432 39.2873 371.804 39.5978 372.208 39.753C372.953 40.2187 373.512 40.7775 373.853 41.3674C374.257 41.8952 374.412 42.423 374.536 42.7956C374.661 43.1682 374.692 43.3855 374.692 43.3855C374.692 43.3855 374.474 43.3234 374.133 43.1682C373.791 43.044 373.357 42.7956 372.829 42.6093C372.549 42.5162 372.301 42.361 372.022 42.2678C371.742 42.1747 371.463 42.0815 371.183 41.9884C370.593 41.8642 370.035 41.74 369.445 41.74C368.855 41.6779 368.265 41.74 367.644 41.8331C367.023 41.9263 366.433 42.0815 365.874 42.2057C364.694 42.5162 363.918 42.7025 363.918 42.7025H363.887Z" fill="#26045D"/>
<path d="M375.281 48.6955C374.847 49.9684 374.412 51.2413 373.915 52.4832C373.418 53.6941 373.046 54.967 372.549 56.2089C372.332 56.8298 372.083 57.4508 371.804 58.0407C371.587 58.6616 371.431 59.2826 371.183 59.9035C370.748 61.1454 370.314 62.3873 369.817 63.5981L369.6 62.8219C370.003 63.1324 370.376 63.505 370.842 63.7844C371.276 64.0949 371.773 64.3433 372.27 64.6227C373.263 65.1505 374.288 65.6162 375.374 66.0819C374.195 66.0819 373.046 65.8646 371.928 65.523C371.369 65.3368 370.779 65.1815 370.252 64.8711C369.693 64.6227 369.165 64.2812 368.637 63.9086L368.265 63.6602L368.42 63.1635C368.792 61.8595 369.165 60.5866 369.6 59.2826C370.003 57.9786 370.5 56.7367 371.09 55.5259C371.68 54.315 372.239 53.1042 372.953 51.9554C373.667 50.8067 374.381 49.689 375.281 48.6644V48.6955Z" fill="#26045D"/>
<path d="M381.15 52.2355C381.15 52.2355 381.026 51.5214 381.15 50.4658C381.181 49.938 381.336 49.317 381.554 48.665C381.709 48.3235 381.833 47.982 382.143 47.6405C382.423 47.2989 382.889 46.9574 383.541 46.9574C384.099 47.0195 384.565 47.2989 384.813 47.5784C385.186 47.8578 385.31 48.1683 385.528 48.4787C385.9 49.0686 386.086 49.6585 386.304 50.1553C386.583 51.1798 386.676 51.8939 386.676 51.8939C386.676 51.8939 386.211 51.3351 385.621 50.4968C385.279 50.1242 384.969 49.5964 384.596 49.1618C384.41 48.9444 384.224 48.6961 384.006 48.5719C383.789 48.3546 383.634 48.3235 383.51 48.2925C383.447 48.2925 383.292 48.2925 383.137 48.5098C382.982 48.665 382.795 48.9134 382.64 49.1618C382.361 49.6896 382.112 50.1863 381.895 50.652C381.46 51.6145 381.181 52.2355 381.181 52.2355H381.15Z" fill="#26045D"/>
<path d="M366.34 50.8675C366.34 50.8675 366.278 50.1534 366.495 49.0978C366.589 48.57 366.775 47.9801 367.085 47.3281C367.272 47.0177 367.427 46.6762 367.768 46.3657C368.079 46.0552 368.576 45.7758 369.196 45.8379C369.755 45.9621 370.19 46.2725 370.407 46.583C370.749 46.8935 370.842 47.235 371.028 47.5455C371.37 48.1664 371.494 48.7874 371.618 49.2841C371.804 50.3397 371.804 51.0538 371.804 51.0538C371.804 51.0538 371.37 50.4639 370.873 49.5635C370.594 49.1599 370.314 48.6011 369.973 48.1354C369.786 47.918 369.631 47.6386 369.445 47.4834C369.259 47.266 369.103 47.204 368.979 47.1729L368.576 47.3592C368.389 47.5144 368.203 47.7318 368.048 47.9491C367.737 48.4458 367.427 48.9426 367.178 49.3773C366.651 50.2776 366.309 50.8675 366.309 50.8675H366.34Z" fill="#26045D"/>
<path d="M367.055 71.98L386.211 73.4082C386.211 73.4082 373.202 82.0703 367.055 71.98Z" fill="#26045D"/>
<path d="M410.303 23.9193C407.912 22.46 406.111 22.7084 404.931 23.3294C404.838 23.112 404.776 22.9257 404.683 22.7084C392.978 -3.80588 356.964 14.6361 356.964 14.6361C358.236 15.5986 359.509 16.2196 360.751 16.6232C355.287 17.8651 351.002 18.7033 351.002 18.7033C354.324 21.6218 357.864 22.9878 361.031 23.5777C357.957 26.0926 356.436 30.0977 356.436 30.0977C374.226 36.5244 387.514 34.7547 393.91 33.1092C394.22 35.3446 395.462 43.0754 395.462 43.0754C395.462 43.0754 400.74 47.0184 400.895 52.2964C400.616 54.6249 400.243 57.5123 399.809 60.3687C401.516 61.0827 403.255 61.7347 404.994 62.3867C405.335 59.7167 405.614 56.643 405.677 53.0415C406.763 52.2653 407.912 52.0791 407.912 52.0791C413.035 44.7209 415.27 26.9308 410.365 23.9503L410.303 23.9193Z" fill="#26045D"/>
<path d="M379.256 90.951C379.256 90.951 389.967 99.2406 404.063 83.3445C404.063 83.3445 424.461 79.1842 449.764 92.5655C468.268 102.345 482.084 115.696 480.998 126.531C479.911 137.367 466.188 166.892 462.835 169.314L452.434 163.105L457.712 124.886L435.327 116.037C435.327 116.037 449.609 170.028 444.735 193.345L374.661 181.795L369.414 131.933L359.665 162.018L384.596 172.046L375.934 182.354C375.934 182.354 348.302 181.267 335.852 172.605C335.852 172.605 337.715 100.42 379.318 90.9821L379.256 90.951Z" fill="#E0FAE1"/>
<path d="M375.002 187.568L343.583 203.092C343.583 203.092 331.661 212.841 336.721 230.196C345.57 260.56 364.539 317.967 364.539 317.967L384.41 316.507L366.34 231.624L432.44 190.083L375.002 187.568Z" fill="#7BB68A"/>
<path d="M416.885 187.568C416.885 187.568 360.907 195.144 360.162 221.876C359.448 248.607 407.851 321.568 407.851 321.568L428.093 315.079C428.093 315.079 396.301 232.711 390.526 228.396L445.231 227.681L444.859 190.114L416.885 187.6V187.568Z" fill="#E0FAE1"/>
<path d="M370.874 146.028L373.109 167.419L375.686 168.785L374.972 187.569L444.704 193.344C449.144 172.139 437.718 125.537 435.638 117.309C420.052 134.354 394.035 143.606 370.874 146.028Z" fill="#7BB68A"/>
<path d="M398.07 175.895C400.088 169.158 379.535 166.798 379.535 166.798C379.535 166.798 378.728 174.312 376.927 177.261L375.872 178.348C378.324 179.155 396.456 181.235 398.07 175.895Z" fill="#7747FF"/>
<path d="M459.762 164.656C458.675 163.942 457.588 163.197 456.502 162.421C456.347 162.297 455.912 162.017 455.695 161.862L455.446 161.707C455.105 161.521 454.887 161.055 454.546 161.086C441.879 162.98 425.02 183.813 457.992 170.524C461.749 169.003 463.425 167.668 463.829 166.426C462.37 166.023 460.973 165.433 459.731 164.625L459.762 164.656Z" fill="#7747FF"/>
<path d="M454.701 146.246L452.434 163.105L462.835 169.314C464.543 168.383 467.833 161.925 471.559 154.008C465.878 152.052 459.823 149.413 454.701 146.277V146.246Z" fill="#7BB68A"/>
<path d="M261.028 261.99C261.028 261.99 254.446 266.585 243.3 265.001C243.3 265.001 241.344 279.904 243.921 281.208C246.498 282.481 288.473 293.627 294.062 289.746C299.681 285.896 261.028 261.99 261.028 261.99Z" fill="#7BB68A"/>
<path d="M264.63 263.604C264.63 263.604 242.617 261.275 240.754 276.426C240.754 276.426 260.469 289 264.63 263.604Z" fill="#7BB68A"/>
<path d="M176.86 85.082C175.556 89.3044 172.234 93.7131 163.975 93.9615C163.851 93.9926 163.758 93.9926 163.634 93.9926C152.395 94.1788 144.788 85.7651 141.187 80.456C146.371 80.7044 151.898 79.773 151.898 79.773C151.96 77.0718 152.022 74.8054 152.022 72.7252C152.022 69.5584 151.929 66.8573 151.68 63.8147C152.829 64.3735 153.947 64.8393 155.065 65.2118C158.914 66.5469 162.609 66.8573 165.962 66.2985L166.552 73.7808L166.738 76.1094L177.512 77.7859C177.512 78.0654 177.574 78.469 177.574 78.9968C177.636 80.456 177.543 82.7535 176.86 85.082Z" fill="#7747FF"/>
<path d="M197.257 101.88C197.257 101.88 196.17 128.984 200.424 131.437C204.677 133.89 213.246 126.407 213.246 126.407L209.583 101.88H197.257Z" fill="#7747FF"/>
<path d="M193.532 139.911C193.532 140.656 193.532 141.308 193.47 141.991C193.47 142.674 193.376 143.358 193.314 144.041C193.097 146.524 192.6 165.867 192.166 168.071C178.629 171.983 167.359 181.08 154.412 176.392C154.381 176.392 130.754 179.962 130.723 179.962C127.712 178.876 144.167 147.58 141.528 146.028L139.603 130.504C139.603 130.504 141.186 128.983 143.794 126.747C145.688 125.133 148.11 123.177 150.873 121.159C158.2 115.819 167.856 110.137 176.021 110.075C176.611 110.075 177.17 110.075 177.729 110.168C178.07 110.168 178.381 110.23 178.722 110.292H178.753C182.355 110.882 185.584 112.838 187.943 116.781C189.744 119.762 191.017 122.866 191.886 126.002C192.041 126.561 192.197 127.12 192.321 127.71C193.283 131.808 193.625 135.968 193.501 139.911H193.532Z" fill="#7BB68A"/>
<path d="M165.961 66.2985C162.608 66.8574 158.914 66.5469 155.064 65.2119C153.946 64.8393 151.524 64.3736 150.376 63.8147C149.91 58.754 148.699 54.3143 146.898 44.0066C146.898 44.0066 146.836 42.5474 146.836 42.5164C146.65 41.4608 146.774 40.4362 146.557 39.2564C145.719 34.4131 147.023 30.0664 147.612 26.4339C149.413 25.9061 151.059 25.3162 152.58 24.6953C164.875 19.6346 168.352 11.9659 169.221 6.90524C174.965 8.79912 180.243 13.7356 183.286 23.9812C189.619 45.3727 180.647 63.9389 165.961 66.2985Z" fill="#7747FF"/>
<path d="M170.215 38.1083C171.457 39.1018 172.482 40.1885 173.475 41.2751C174.003 41.803 174.469 42.3618 174.966 42.8586C175.214 43.1069 175.462 43.3553 175.711 43.5726C175.928 43.79 176.27 43.9452 176.207 43.9452L176.953 44.9077C176.828 45.2802 176.704 45.5907 176.518 45.9012C176.363 46.2117 176.176 46.4911 175.959 46.7705C175.555 47.2983 175.059 47.7951 174.5 48.1676C173.382 48.9438 171.985 49.1922 170.774 49.0059C171.985 48.6954 173.072 48.1676 173.848 47.3604C174.251 46.9568 174.562 46.5221 174.841 46.0254C174.966 45.777 175.09 45.5286 175.183 45.2802C175.276 45.0319 175.369 44.7524 175.431 44.5351L176.176 45.4976C175.742 45.4976 175.493 45.3423 175.245 45.2492C175.028 45.125 174.841 45.0008 174.655 44.8766C174.314 44.5972 174.003 44.3488 173.724 44.0694C173.196 43.4795 172.699 42.8896 172.264 42.2376C171.395 40.9647 170.65 39.5986 170.215 38.1083Z" fill="#26045D"/>
<path d="M192.352 127.68C193.315 131.778 193.656 135.938 193.532 139.881C192.725 140.316 191.949 140.75 191.141 141.154C190.583 141.433 190.024 141.713 189.465 141.961C188.906 142.241 188.378 142.489 187.819 142.706C187.478 142.893 187.136 143.048 186.795 143.172C185.77 143.607 184.777 144.041 183.783 144.414C183.038 144.693 182.262 144.973 181.486 145.252C180.616 145.563 179.747 145.842 178.878 146.122C177.512 146.556 176.177 146.96 174.873 147.27C174.531 147.363 174.221 147.457 173.91 147.519C173.817 147.519 173.724 147.581 173.631 147.581C172.979 147.767 172.327 147.922 171.675 148.047C168.881 148.667 166.179 149.133 163.603 149.444C161.864 149.661 160.218 149.785 158.604 149.878C158.169 149.909 157.735 149.94 157.331 149.94C156.772 149.94 156.213 150.002 155.654 150.002C155.065 150.034 154.475 150.034 153.916 150.034C153.419 150.034 152.953 150.034 152.488 150.002C163.913 143.452 176.611 132.15 178.66 130.691C178.629 130.691 178.567 130.691 178.536 130.66C179.499 130.039 180.337 129.542 180.896 129.232C181.113 129.108 181.331 128.952 181.517 128.828C184.715 126.407 182.728 122.153 182.728 122.153C182.914 121.812 183.038 121.439 183.069 121.098V121.035C183.162 120.446 183.038 119.887 182.852 119.39C182.852 119.297 182.79 119.235 182.759 119.173C182.728 119.142 182.728 119.111 182.728 119.079C182.231 118.086 181.486 117.403 181.486 117.403C181.486 115.23 179.778 113.553 179.778 113.553C179.716 112.932 179.344 112.653 178.785 112.653C177.884 112.591 176.456 113.181 175.183 113.833C175.556 113.584 175.835 113.336 176.115 113.118C176.301 112.963 176.425 112.839 176.58 112.684C177.636 111.69 177.729 111.069 177.729 111.069C177.822 110.759 177.853 110.448 177.76 110.138C177.76 110.076 177.729 109.983 177.698 109.921C177.543 109.548 176.891 109.641 176.052 110.045C173.351 111.318 168.353 115.478 168.353 115.478C166.055 118.49 167.483 123.768 167.98 125.258C166.863 125.599 165.465 125.972 163.851 126.376C158.697 127.742 151.37 129.729 144.85 133.299C144.788 132.709 144.446 130.256 143.826 126.717C143.267 123.395 142.49 119.142 141.466 114.609C140.876 111.939 140.193 109.175 139.448 106.443C135.908 107.685 131.903 108.182 128.24 108.337C123.179 108.554 118.77 108.089 117.032 107.903C116.504 107.809 116.225 107.778 116.225 107.778C113.244 90.454 125.135 81.5745 127.277 80.9535C130.196 80.1153 141.155 80.3947 141.187 80.4568C141.187 80.4568 152.395 94.1796 163.634 93.9934C163.758 93.9934 163.851 93.9934 163.975 93.9934C172.234 93.745 175.556 89.3363 176.86 85.1139C177.543 82.7853 177.636 80.4878 177.574 79.0286C177.574 78.5008 177.543 78.0972 177.512 77.8178C177.481 77.5384 177.45 77.3831 177.45 77.3831L181.486 78.0041L184.684 78.5008H184.808L186.019 78.7181H186.05C187.105 80.4568 188.13 82.1023 189.03 83.7167C192.818 90.3298 195.457 96.415 197.258 101.91C197.258 101.91 197.258 101.941 197.289 102.035C197.537 103.401 199.897 116.503 191.949 126.003C191.949 126.003 192.228 127.121 192.352 127.711V127.68Z" fill="#E0FAE1"/>
<path d="M180.895 129.231C180.336 129.542 179.498 130.038 178.536 130.659C178.536 130.69 178.629 130.69 178.66 130.69C176.611 132.15 163.912 143.451 152.487 150.002C151.68 150.002 150.873 150.002 150.127 149.94C147.985 149.815 146.029 149.629 144.291 149.35C143.701 149.257 143.142 149.163 142.614 149.07C142.304 149.008 142.024 148.946 141.745 148.884C141.465 148.884 141.186 148.791 140.906 148.729C137.647 147.953 135.66 147.021 135.256 146.214L134.945 145.407C134.821 145.096 134.697 144.724 134.573 144.32C134.573 144.227 134.511 144.134 134.48 144.01L132.275 135.689C130.909 129.883 129.45 122.214 128.55 113.77C128.363 112.155 128.208 110.51 128.084 108.864C128.146 108.678 128.208 108.492 128.239 108.336C131.903 108.181 135.908 107.684 139.447 106.442C142.862 118.892 144.663 131.777 144.849 133.298C153.418 128.61 163.323 126.654 167.98 125.257C167.483 123.767 166.055 118.489 168.352 115.477C168.352 115.477 176.983 108.305 177.697 109.92C178.287 111.255 176.704 112.776 175.12 113.863C177.139 112.807 179.622 111.876 179.778 113.552C179.778 113.552 181.485 115.229 181.485 117.402C181.485 117.402 184.062 119.7 182.727 122.152C182.727 122.152 184.962 126.934 180.895 129.231Z" fill="#E0FAE1"/>
<path d="M192.352 127.679C193.314 131.777 193.656 135.938 193.531 139.881C177.728 149.661 165.868 150.033 153.915 150.033C153.419 150.033 152.953 150.033 152.487 150.002C151.68 150.002 150.904 150.002 150.159 149.94H150.096C146.868 149.754 144.042 149.381 141.745 148.915C137.988 148.139 135.66 147.084 135.256 146.214C134.821 145.345 133.61 141.464 132.275 135.658C130.909 129.884 129.45 122.184 128.55 113.739C128.363 112.125 128.208 111.721 128.084 110.044C128.643 108.337 134.138 108.026 135.194 108.492C137.15 110.727 139.261 112.777 141.465 114.608C144.415 117.123 147.582 119.296 150.904 121.128C155.002 123.395 159.349 125.164 163.85 126.375C169.532 128.021 175.462 128.797 181.516 128.828H181.734C185.335 128.828 188.905 128.455 192.352 127.679Z" fill="#7BB68A"/>
<path d="M175.245 38.2325C175.245 38.2325 175.401 38.1704 175.618 38.0152C175.835 37.8599 176.177 37.7047 176.58 37.4563C177.357 37.0216 178.35 36.4628 179.282 36.2144C179.499 36.1523 179.716 36.0902 179.902 36.1213L180.368 36.2144C180.648 36.3076 180.927 36.6801 181.113 37.0216C181.3 37.3942 181.486 37.7357 181.548 37.9841C181.641 38.2325 181.734 38.3877 181.734 38.3877C181.703 38.3877 182.045 37.7978 182.014 36.7733C182.014 36.5249 181.921 36.2144 181.858 35.904C181.703 35.6245 181.548 35.252 181.206 35.0036C181.051 34.8483 180.865 34.7552 180.648 34.6931C180.461 34.6 180.244 34.5379 180.027 34.5379C179.592 34.4758 179.219 34.5379 178.847 34.631C177.419 35.0346 176.487 35.9971 175.897 36.7733C175.618 37.1458 175.432 37.5805 175.339 37.7978C175.245 38.0462 175.214 38.2325 175.214 38.2325H175.245Z" fill="#26045D"/>
<path d="M159.877 39.3496C159.877 39.3496 160.032 39.2875 160.249 39.1323C160.467 38.977 160.808 38.8218 161.212 38.5734C161.988 38.1387 162.981 37.5799 163.913 37.3315C164.13 37.2694 164.348 37.2073 164.534 37.2384L165 37.3315C165.279 37.4247 165.558 37.7662 165.745 38.1387C165.931 38.5113 166.117 38.8528 166.179 39.1012C166.272 39.3496 166.366 39.5048 166.366 39.5048C166.335 39.5048 166.676 38.9149 166.645 37.8904C166.645 37.642 166.552 37.3315 166.459 37.021C166.304 36.7416 166.148 36.3691 165.807 36.1207C165.652 35.9654 165.465 35.8723 165.279 35.8102C165.093 35.7171 164.875 35.655 164.658 35.655C164.223 35.5929 163.851 35.655 163.478 35.7481C162.05 36.1517 161.119 37.1142 160.529 37.8904C160.249 38.2629 160.063 38.6976 159.97 38.9149C159.877 39.1633 159.846 39.3496 159.846 39.3496H159.877Z" fill="#26045D"/>
<path d="M181.268 99.8291C181.268 99.8291 181.205 99.8601 181.174 99.8912C178.442 101.195 173.537 105.293 173.537 105.293C172.202 107.032 172.14 109.547 172.388 111.658C172.574 113.179 172.978 114.452 173.164 115.073C171.27 115.632 148.885 129.665 143.825 132.429C143.638 130.907 141.838 118.023 138.422 105.573C134.883 106.815 130.878 107.311 127.214 107.467C122.154 107.684 117.745 107.218 116.006 107.032C118.894 118.116 126.966 141.215 132.679 149.939C133.765 151.647 134.79 152.796 135.659 153.199C139.168 154.876 144.973 152.796 151.183 149.287C151.276 149.225 151.369 149.194 151.462 149.132C162.888 142.581 181.795 121.966 183.844 120.506C183.844 120.506 183.751 120.506 183.72 120.475C184.683 119.855 185.521 119.358 186.08 119.047C189.868 116.905 188.191 112.589 187.943 112.031C187.943 112 187.943 111.969 187.943 111.969C189.278 109.516 186.701 107.218 186.701 107.218C186.701 106.908 186.67 106.597 186.608 106.318C186.235 104.579 184.59 102.499 184.093 102.468C185.024 101.537 183.099 98.8356 181.299 99.8291H181.268ZM143.017 132.863C142.49 132.956 142.272 133.019 142.241 133.019C142.396 132.956 142.862 132.832 143.266 132.739L143.017 132.863Z" fill="#7747FF"/>
<path d="M122.185 319.986C122.371 319.21 122.682 318.434 123.023 317.657C122.651 318.434 122.371 319.21 122.185 319.986Z" fill="#26045D"/>
<path d="M175.027 113.925C174.034 114.608 173.071 115.105 172.637 115.322C173.04 115.043 173.972 114.484 175.027 113.925Z" fill="#7747FF"/>
<path d="M197.256 101.879C197.256 101.879 197.101 102.034 197.039 102.128L184.465 79.401L184.186 78.9042V78.8111H184.713L185.024 78.749L186.017 78.6869C186.793 78.9663 200.61 82.2263 202.038 85.0826C202.441 85.8898 209.427 97.6567 209.551 99.0228C209.862 102.593 204.335 101.6 197.225 101.91L197.256 101.879Z" fill="#E0FAE1"/>
<path d="M221.132 71.7942H207.689C205.857 71.7942 204.491 70.1487 204.832 68.3479L210.576 38.3564C210.824 36.9903 212.035 35.9968 213.432 35.9968H226.876C228.708 35.9968 230.074 37.6423 229.732 39.443L223.988 69.4346C223.74 70.8007 222.529 71.7942 221.132 71.7942Z" fill="#FFD2B9"/>
<path d="M219.145 68.1932C219.145 68.1932 197.94 115.82 198.437 125.91C198.934 136 210.048 134.479 211.383 133.485C212.719 132.492 221.319 127.586 223.15 115.82C224.951 104.301 231.906 74.5579 231.906 46.3981C231.906 45.063 230.509 44.1006 229.298 44.6594C227.932 45.2804 226.597 47.019 226.845 51.4277C226.845 51.4277 223.492 44.6284 221.784 44.3179C220.077 44.0074 212.035 43.8522 210.173 45.032C208.31 46.2118 204.957 55.6501 207.999 57.1404C211.042 58.6306 214.054 56.9851 215.14 58.6617C216.227 60.3382 220.387 65.2437 219.083 68.1621L219.145 68.1932Z" fill="#7747FF"/>
<path d="M183.316 316.974C183.316 316.974 191.109 334.267 213.743 316.974C213.743 316.974 203.373 299.618 183.316 316.974Z" fill="#7BB68A"/>
<path d="M130.723 179.963C130.723 179.963 124.855 218.058 155.529 214.363C186.173 210.637 201.976 205.452 201.976 205.452L183.348 316.974C183.348 316.974 200.268 306.573 213.774 316.974L231.719 212.873L206.913 173.536C206.913 173.536 145.377 172.046 130.723 179.963Z" fill="#7BB68A"/>
<path d="M171.021 173.411L222.032 156.025C222.032 156.025 234.544 152.64 238.021 160.464C241.499 168.288 264.629 263.448 264.629 263.448L240.753 276.27L206.912 173.504L171.021 173.38V173.411Z" fill="#E0FAE1"/>
<path d="M150.345 32.5196C149.351 36.7109 149.134 41.5854 150.096 47.1428C150.935 51.893 154.847 66.9199 155.561 71.2975C147.706 73.1603 140.627 70.956 132.989 69.4036C133.083 64.8087 129.947 45.1868 129.45 38.7911C127.805 18.0516 133.672 8.89266 141.434 4.23558C149.227 -0.390449 168.507 -1.19768 170.96 8.9858C170.96 8.9858 174.282 25.4098 150.345 32.5196Z" fill="#26045D"/>
<path d="M186.546 12.7111C173.102 -6.75551 146.277 7.89877 146.277 7.89877C155.592 21.5285 183.907 20.4729 187.322 36.7106C187.322 36.7106 193.469 22.7083 186.546 12.68V12.7111Z" fill="#26045D"/>
<path d="M177.294 53.4764L162.174 53.197C162.174 53.197 173.724 61.6419 177.294 53.4764Z" fill="#26045D"/>
<path d="M151.493 188.066C151.493 200.92 214.208 211.351 291.578 211.351C368.948 211.351 431.663 200.92 431.663 188.066C431.663 175.212 368.948 164.781 291.578 164.781C214.208 164.781 151.493 175.212 151.493 188.066Z" fill="#26045D"/>
<path d="M431.663 188.067H151.493V172.077H431.663V188.067Z" fill="#26045D"/>
<path d="M151.493 172.077C151.493 184.931 214.208 195.362 291.578 195.362C368.948 195.362 431.663 184.931 431.663 172.077C431.663 159.224 368.948 148.792 291.578 148.792C214.208 148.792 151.493 159.224 151.493 172.077Z" fill="#7747FF"/>
<path d="M270.373 198.219H312.783V339.98C312.783 344.233 309.337 347.68 305.083 347.68H270.404V198.219H270.373Z" fill="#26045D"/>
<path d="M235.134 173.412H267.051L268.324 122.401H239.264L235.134 173.412Z" fill="#E0FAE1"/>
<path d="M279.78 122.402H239.264V177.945H279.78V122.402Z" fill="#26045D"/>
<path d="M250.999 133.796C250.999 133.547 251.186 133.361 251.434 133.361H259.351C259.599 133.361 259.786 133.547 259.786 133.796V141.713C259.786 141.961 259.599 142.147 259.351 142.147H250.968V133.765L250.999 133.796Z" fill="#E0FAE1"/>
<path d="M260.717 133.796C260.717 133.547 260.903 133.361 261.151 133.361H269.068C269.317 133.361 269.503 133.547 269.503 133.796V141.713C269.503 141.961 269.317 142.147 269.068 142.147H260.686V133.765L260.717 133.796Z" fill="#E0FAE1"/>
<path d="M265.56 148.139C265.56 148.139 265.653 147.922 265.778 147.922H269.286C269.286 147.922 269.503 148.015 269.503 148.139V151.648C269.503 151.648 269.41 151.865 269.286 151.865H265.529V148.108L265.56 148.139Z" fill="#E0FAE1"/>
<path d="M250.999 143.513C250.999 143.264 251.186 143.078 251.434 143.078H259.351C259.599 143.078 259.786 143.264 259.786 143.513V151.43C259.786 151.678 259.599 151.864 259.351 151.864H250.968V143.482L250.999 143.513Z" fill="#E0FAE1"/>
<path d="M262.922 130.598C262.611 130.598 262.363 130.846 262.363 131.157C262.363 131.467 262.611 131.716 262.922 131.716V130.598ZM271.18 139.974C271.18 140.285 271.429 140.533 271.739 140.533C272.05 140.533 272.298 140.285 272.298 139.974H271.18ZM262.922 131.716H271.304V130.598H262.922V131.716ZM271.18 131.592V139.974H272.298V131.592H271.18ZM271.304 131.716C271.304 131.716 271.18 131.654 271.18 131.592H272.298C272.298 131.033 271.832 130.567 271.273 130.567V131.685L271.304 131.716Z" fill="#E0FAE1"/>
<path d="M262.922 154.224C262.611 154.224 262.363 153.976 262.363 153.665C262.363 153.355 262.611 153.107 262.922 153.107V154.224ZM271.18 144.848C271.18 144.538 271.429 144.289 271.739 144.289C272.05 144.289 272.298 144.538 272.298 144.848H271.18ZM262.922 153.107H271.304V154.224H262.922V153.107ZM271.18 153.231V144.848H272.298V153.231H271.18ZM271.304 153.107C271.304 153.107 271.18 153.169 271.18 153.231H272.298C272.298 153.79 271.832 154.255 271.273 154.255V153.138L271.304 153.107Z" fill="#E0FAE1"/>
<path d="M257.612 130.598C257.923 130.598 258.171 130.846 258.171 131.157C258.171 131.467 257.923 131.716 257.612 131.716V130.598ZM249.354 139.974C249.354 140.285 249.105 140.533 248.795 140.533C248.484 140.533 248.236 140.285 248.236 139.974H249.354ZM257.612 131.716H249.229V130.598H257.612V131.716ZM249.354 131.591V139.974H248.236V131.591H249.354ZM249.229 131.716C249.229 131.716 249.354 131.654 249.354 131.591H248.236C248.236 131.033 248.702 130.567 249.26 130.567V131.685L249.229 131.716Z" fill="#E0FAE1"/>
<path d="M257.612 154.224C257.923 154.224 258.171 153.976 258.171 153.665C258.171 153.355 257.923 153.107 257.612 153.107V154.224ZM249.354 144.848C249.354 144.538 249.105 144.289 248.795 144.289C248.484 144.289 248.236 144.538 248.236 144.848H249.354ZM257.612 153.107H249.229V154.224H257.612V153.107ZM249.354 153.231V144.848H248.236V153.231H249.354ZM249.229 153.107C249.229 153.107 249.354 153.169 249.354 153.231H248.236C248.236 153.79 248.702 154.255 249.26 154.255V153.138L249.229 153.107Z" fill="#E0FAE1"/>
<path d="M250.161 164.502C250.161 165.402 249.385 166.116 248.484 166.116H247.832C247.832 166.116 247.677 166.054 247.677 165.961V164.595C247.677 164.595 247.708 164.471 247.801 164.44H247.863C247.863 164.44 248.112 164.315 248.205 164.222C248.236 164.191 248.298 164.16 248.329 164.129C248.578 163.881 248.733 163.539 248.733 163.136C248.733 162.732 248.578 162.391 248.329 162.142C248.329 162.142 248.267 162.08 248.236 162.08C248.143 162.08 248.05 162.142 248.05 162.235V162.949C248.05 162.949 247.988 163.105 247.895 163.105C247.895 163.105 247.739 163.043 247.739 162.949V162.328C247.739 162.328 247.708 162.142 247.646 162.08C247.553 161.987 247.429 161.956 247.274 161.987C247.118 162.049 247.025 162.173 247.025 162.328V162.918C247.025 162.918 246.963 163.074 246.87 163.105C246.777 163.105 246.684 163.043 246.684 162.949V162.235C246.684 162.235 246.497 162.018 246.404 162.111C246.156 162.391 246.001 162.732 246.001 163.136C246.001 163.539 246.156 163.881 246.435 164.129C246.591 164.284 246.746 164.378 246.963 164.44C247.025 164.44 247.056 164.533 247.056 164.595V165.961C247.056 165.961 246.994 166.116 246.901 166.116H245.349V161.366C245.349 161.18 245.504 161.024 245.69 161.024H248.578C249.23 161.024 249.788 161.552 249.788 162.204C249.788 162.515 249.664 162.794 249.509 162.98C249.478 163.011 249.509 163.074 249.509 163.105C249.944 163.415 250.254 163.912 250.254 164.502H250.161Z" fill="#E0FAE1"/>
<path d="M252.242 166.115C251.372 166.115 250.658 165.463 250.658 164.531C250.658 163.6 251.372 162.948 252.242 162.948C253.111 162.948 253.825 163.6 253.825 164.531C253.825 165.463 253.111 166.115 252.242 166.115ZM252.242 165.432C252.738 165.432 253.049 165.09 253.049 164.531C253.049 163.973 252.738 163.631 252.242 163.631C251.745 163.631 251.434 163.973 251.434 164.531C251.434 165.09 251.745 165.432 252.242 165.432Z" fill="#E0FAE1"/>
<path d="M254.818 166.116H254.073V163.88C254.073 163.88 254.135 163.725 254.228 163.725H254.818V164.129C254.974 163.88 255.253 163.694 255.564 163.694V164.47H255.377C255.036 164.47 254.818 164.594 254.818 164.998V166.116Z" fill="#E0FAE1"/>
<path d="M256.775 163.663C257.085 163.663 257.365 163.818 257.52 164.035V163.073C257.52 163.073 257.582 162.917 257.675 162.917H258.265V166.084H257.52V165.743C257.396 165.96 257.147 166.115 256.775 166.115C256.185 166.115 255.719 165.65 255.719 164.873C255.719 164.097 256.185 163.632 256.775 163.632V163.663ZM256.992 164.315C256.713 164.315 256.464 164.532 256.464 164.904C256.464 165.277 256.713 165.494 256.992 165.494C257.272 165.494 257.52 165.277 257.52 164.904C257.52 164.532 257.272 164.315 256.992 164.315Z" fill="#E0FAE1"/>
<path d="M259.725 166.147C259.01 166.147 258.514 165.682 258.514 164.905C258.514 164.129 259.01 163.663 259.725 163.663C260.439 163.663 260.904 164.129 260.904 164.843C260.904 164.905 260.904 164.998 260.904 165.061H259.259C259.259 165.371 259.476 165.526 259.725 165.526C259.942 165.526 260.035 165.433 260.097 165.309H260.873C260.749 165.775 260.345 166.147 259.725 166.147ZM259.259 164.688H260.19C260.19 164.44 259.973 164.284 259.725 164.284C259.476 164.284 259.29 164.44 259.259 164.688Z" fill="#E0FAE1"/>
<path d="M261.867 166.116H261.122V163.88C261.122 163.88 261.184 163.725 261.277 163.725H261.867V164.129C262.022 163.88 262.301 163.694 262.612 163.694V164.47H262.426C262.084 164.47 261.867 164.594 261.867 164.998V166.116Z" fill="#E0FAE1"/>
<path d="M264.102 166.115H262.953V163.165C262.953 163.165 263.015 163.01 263.108 163.01H264.071C264.723 163.01 265.064 163.383 265.064 163.786C265.064 164.19 264.816 164.407 264.505 164.5C264.847 164.562 265.126 164.873 265.126 165.276C265.126 165.742 264.754 166.115 264.102 166.115ZM264.009 163.32H263.481C263.481 163.32 263.326 163.383 263.326 163.476V164.314H264.009C264.381 164.314 264.599 164.128 264.599 163.817C264.599 163.507 264.381 163.32 263.978 163.32H264.009ZM264.04 164.656H263.481C263.481 164.656 263.326 164.718 263.326 164.811V165.742H264.04C264.443 165.742 264.692 165.556 264.692 165.214C264.692 164.873 264.443 164.656 264.04 164.656Z" fill="#E0FAE1"/>
<path d="M267.454 166.115H267.05V165.773C266.895 166.022 266.616 166.146 266.305 166.146C265.777 166.146 265.343 165.804 265.343 165.152V163.942C265.343 163.942 265.405 163.786 265.498 163.786H265.746V165.121C265.746 165.587 265.995 165.836 266.398 165.836C266.802 165.836 267.081 165.587 267.081 165.09V163.942C267.081 163.942 267.144 163.786 267.237 163.786H267.485V166.146L267.454 166.115Z" fill="#E0FAE1"/>
<path d="M268.852 163.724C269.224 163.724 269.566 163.91 269.721 164.19V163.103C269.721 163.103 269.783 162.948 269.876 162.948H270.125V166.115H269.721V165.68C269.566 165.929 269.286 166.146 268.852 166.146C268.231 166.146 267.734 165.649 267.734 164.935C267.734 164.221 268.231 163.724 268.852 163.724ZM268.914 164.066C268.479 164.066 268.106 164.376 268.106 164.935C268.106 165.494 268.479 165.804 268.914 165.804C269.348 165.804 269.721 165.494 269.721 164.935C269.721 164.376 269.348 164.066 268.914 164.066Z" fill="#E0FAE1"/>
<path d="M271.491 163.724C271.863 163.724 272.205 163.91 272.36 164.19V163.103C272.36 163.103 272.422 162.948 272.515 162.948H272.764V166.115H272.36V165.68C272.205 165.929 271.925 166.146 271.491 166.146C270.87 166.146 270.373 165.649 270.373 164.935C270.373 164.221 270.87 163.724 271.491 163.724ZM271.553 164.066C271.118 164.066 270.746 164.376 270.746 164.935C270.746 165.494 271.118 165.804 271.553 165.804C271.988 165.804 272.36 165.494 272.36 164.935C272.36 164.376 271.988 164.066 271.553 164.066Z" fill="#E0FAE1"/>
<path d="M274.968 163.756H275.279L273.851 167.202H273.447L273.913 166.085L273.043 163.973C273.043 163.973 273.075 163.756 273.199 163.756H273.416L274.161 165.65L274.844 163.849C274.844 163.849 274.937 163.756 274.999 163.756H274.968Z" fill="#E0FAE1"/>
<path d="M364.199 158.23L363.795 165.464C363.64 167.264 361.839 168.475 360.1 167.978L329.922 165.65C328.587 165.277 327.718 163.973 327.842 162.607L328.246 155.373C328.401 153.573 330.202 152.362 331.941 152.858L362.118 155.187C363.453 155.56 364.323 156.864 364.199 158.23Z" fill="#FFD2B9"/>
</svg>
