<svg width="387" height="422" viewBox="0 0 387 422" fill="none" xmlns="http://www.w3.org/2000/svg">
<path d="M201.542 71.2978C201.542 71.2978 213.203 74.9819 212.594 89.1414C211.985 103.301 203.624 106.761 203.624 106.761C203.624 106.761 202.887 90.0384 201.51 71.2978H201.542Z" fill="#7BB68A"/>
<path d="M177.739 123.066L168.129 192.069L118.506 164.263L122.254 84.0149L177.739 123.066Z" fill="#7747FF"/>
<path d="M169.796 180.024L177.74 123.065L122.063 87.8268L119.693 138.699L119.244 160.547C134.813 171.278 152.112 171.086 169.764 180.024" fill="#7747FF"/>
<path d="M141.22 36.4107C111.779 44.4835 114.022 62.9678 114.022 62.9678C114.022 62.9678 116.072 77.1914 117.994 94.202C114.951 90.9345 110.178 89.8132 105.501 91.9916C95.6337 96.5726 105.404 124.988 120.685 121.496C121.967 129.537 123.344 135.752 124.658 137.866C129.655 145.811 155.187 164.807 172.294 165.704C189.4 166.569 205.706 141.037 204.297 123.002C202.887 104.998 200.677 35.8341 200.677 35.8341C200.677 35.8341 189.945 23.0841 141.22 36.4427V36.4107Z" fill="#7747FF"/>
<path d="M106.462 33.5601C111.555 30.4527 115.336 31.0614 117.834 32.4069C118.891 26.6405 121.839 19.6249 128.886 12.8334C145.128 -2.83176 169.763 15.0759 182.641 13.378C195.519 11.7122 190.49 0.499893 190.49 0.499893C205.258 9.85415 201.83 21.3868 200.805 24.0137L205.61 12.8014C213.459 30.1644 201.542 36.8277 201.542 36.8277L206.155 35.7385C196.32 56.3691 157.846 51.4998 145.545 49.3534C142.854 50.2504 140.483 51.6279 138.433 53.3258L128.854 67.0048C127.285 70.6888 126.612 73.4759 126.612 73.4759C126.612 73.4759 126.131 86.1298 125.843 96.9897C128.053 114.545 132.282 136.841 139.49 137.29C151.439 138.027 149.933 121.625 169.347 121.625C181.328 121.625 194.687 117.652 202.663 123.194C203.656 118.966 203.496 113.167 203.272 105.159C203.272 105.159 211.889 136.201 209.647 147.765C207.533 182.491 159.608 182.844 127.509 143.28C127.509 143.28 116.777 131.844 116.104 93.658C113.862 92.0563 111.491 91.6398 111.491 91.6398C100.92 76.4231 96.3067 39.6788 106.398 33.4961L106.462 33.5601Z" fill="#26045D"/>
<path d="M168.642 74.3088C168.642 74.3088 168.161 72.2906 166.207 69.9841C165.246 68.8629 163.965 67.5814 162.203 66.6524C161.37 66.1399 160.377 65.7554 159.352 65.4031C158.263 65.2109 157.173 64.8905 155.988 64.9866C154.835 64.9866 153.682 65.2108 152.592 65.6273C151.439 65.8836 150.606 66.6845 149.709 67.197C148.876 67.8057 148.268 68.6066 147.627 69.2473C147.018 69.92 146.698 70.7209 146.313 71.3936C145.513 72.7071 145.384 74.0205 145.192 74.8214C145.032 75.6863 145 76.1669 145 76.1669C145 76.1669 145.448 75.9106 146.153 75.398C146.89 74.9495 147.691 74.1166 148.812 73.4759C149.357 73.1556 149.901 72.7071 150.478 72.3867C151.119 72.0984 151.695 71.778 152.304 71.4577C152.945 71.2975 153.553 70.9451 154.194 70.9131C154.835 70.785 155.443 70.6568 156.116 70.6889C156.757 70.5607 157.462 70.785 158.134 70.785C158.807 70.9772 159.544 70.9772 160.249 71.2335C161.658 71.5858 163.036 72.1304 164.285 72.5789C166.72 73.572 168.642 74.2768 168.642 74.2768V74.3088Z" fill="#26045D"/>
<path d="M201.542 71.2975C201.542 71.2975 201.094 69.4395 199.236 67.4533C198.307 66.4602 197.057 65.4351 195.456 64.6983C194.655 64.3459 193.79 63.9935 192.829 63.8013C191.868 63.6091 190.907 63.4809 189.913 63.545C188.92 63.545 187.927 63.7693 186.998 64.0576C186.037 64.2818 185.236 64.8585 184.435 65.2429C182.93 66.236 181.745 67.3892 181.008 68.5425C180.175 69.5997 179.854 70.7529 179.598 71.4577C179.374 72.1945 179.278 72.643 179.278 72.643C179.278 72.643 179.726 72.4828 180.431 72.1945C181.136 71.9382 182.033 71.3936 183.122 71.0092C183.667 70.817 184.179 70.5287 184.756 70.3365C185.332 70.1763 185.941 69.952 186.518 69.7598C187.735 69.5036 188.888 69.2152 190.138 69.2473C191.355 69.1512 192.604 69.2793 193.886 69.4395C195.135 69.6317 196.385 69.952 197.538 70.2083C199.973 70.849 201.574 71.2655 201.574 71.2655L201.542 71.2975Z" fill="#26045D"/>
<path d="M178.028 83.7271C178.957 86.386 179.822 89.0128 180.815 91.5436C181.873 94.0744 182.641 96.7013 183.667 99.232C184.147 100.513 184.66 101.763 185.172 103.012C185.621 104.294 185.973 105.607 186.454 106.888C187.319 109.451 188.248 111.982 189.273 114.545L189.753 112.975C188.92 113.616 188.183 114.417 187.19 114.961C186.293 115.602 185.268 116.147 184.275 116.723C182.225 117.78 180.079 118.773 177.868 119.735C180.271 119.67 182.673 119.254 185.012 118.581C186.165 118.197 187.351 117.844 188.472 117.268C189.625 116.787 190.714 116.05 191.771 115.314L192.54 114.769L192.252 113.712C191.515 111.021 190.682 108.362 189.817 105.703C189.016 103.044 187.991 100.449 186.71 97.9506C185.46 95.4519 184.371 92.9211 182.834 90.5826C181.36 88.212 179.854 85.8734 178.06 83.7591L178.028 83.7271Z" fill="#26045D"/>
<path d="M152.849 92.0247C152.849 92.0247 152.945 90.9356 153.618 89.3658C153.938 88.597 154.515 87.7 155.316 86.803C155.764 86.3866 156.213 85.906 156.982 85.4896C157.686 85.1052 158.808 84.7528 160.089 84.945C161.178 85.2333 161.979 85.8099 162.396 86.3225C163.004 86.8351 163.1 87.3797 163.389 87.8922C163.901 88.9173 163.997 89.8464 164.158 90.6472C164.222 92.281 164.093 93.3382 164.093 93.3382C164.093 93.3382 163.389 92.3771 162.62 90.9035C162.139 90.2308 161.755 89.3338 161.146 88.565C160.858 88.1805 160.602 87.732 160.249 87.4758C159.929 87.0913 159.576 86.9632 159.384 86.8991C159.224 86.8991 158.936 86.8671 158.519 87.0913C158.103 87.2836 157.654 87.5719 157.238 87.8922C156.437 88.565 155.668 89.2377 155.06 89.8784C153.746 91.1278 152.881 91.9927 152.881 91.9927L152.849 92.0247Z" fill="#26045D"/>
<path d="M187.607 87.7951C187.607 87.7951 187.703 86.7059 188.376 85.1362C188.696 84.3673 189.273 83.4703 190.074 82.5734C190.522 82.1569 190.971 81.6764 191.739 81.2599C192.444 80.8755 193.565 80.5231 194.847 80.7153C195.936 81.0036 196.737 81.5803 197.153 82.0928C197.762 82.6054 197.858 83.15 198.146 83.6625C198.659 84.6877 198.755 85.6167 198.915 86.4176C198.979 88.0514 198.851 89.1085 198.851 89.1085C198.851 89.1085 198.146 88.1475 197.378 86.6738C196.897 86.0011 196.513 85.1041 195.904 84.3353C195.616 83.9509 195.359 83.5024 195.007 83.2461C194.687 82.8617 194.334 82.7335 194.142 82.6695C193.982 82.6695 193.694 82.6374 193.277 82.8617C192.861 83.0539 192.412 83.3422 191.996 83.6625C191.195 84.3353 190.426 85.008 189.817 85.6487C188.504 86.8981 187.639 87.763 187.639 87.763L187.607 87.7951Z" fill="#26045D"/>
<path d="M119.724 138.7C119.724 138.7 120.557 161.861 117.642 164.264C114.726 166.667 47.9973 209.978 41.9106 213.694C35.8239 217.41 5.96721 320.115 5.96721 326.105C5.96721 332.096 -2.77838 400.171 0.905662 407.539C4.5897 414.907 7.79321 425.478 26.6619 419.968C58.0832 410.793 95.4372 388.279 125.875 383.128C127.957 382.775 192.348 379.988 193.405 378.931C194.462 377.874 193.244 373.678 186.421 373.87C179.598 374.062 176.971 374.03 176.971 374.03C176.971 374.03 203.207 361.44 203.207 360.223C203.207 359.005 199.523 356.026 196.032 357.083C192.54 358.14 205.642 353.399 204.329 350.708C203.015 348.017 188.888 350.708 188.888 350.708C188.888 350.708 200.484 344.141 199.203 342.059C197.922 339.977 186.357 342.924 186.357 342.924C186.357 342.924 167.136 349.427 162.779 347.857C162.779 347.857 176.266 341.13 174.984 334.787C174.984 334.787 158.807 340.874 152.336 341.13C145.865 341.386 140.387 340.553 137.664 344.301C134.941 348.049 128.758 358.14 126.067 358.845C123.376 359.55 50.7523 370.57 47.709 372.813C47.709 372.813 55.7177 336.581 55.7177 334.563C55.7177 332.544 75.6436 293.43 75.6436 293.43L105.917 290.642L216.31 312.17C216.31 312.17 233.288 340.906 250.78 343.693C268.271 346.48 284.705 358.749 290.439 348.594C296.173 338.439 286.531 293.846 280.54 287.855C274.55 281.865 233.609 213.278 231.783 207.832C229.957 202.386 226.849 198.542 226.625 194.153C226.401 189.764 220.282 151.898 219.353 150.265C218.424 148.631 216.918 145.523 212.786 143.121C208.653 140.718 192.123 132.261 191.547 132.165C190.97 132.069 188.311 130.883 187.863 132.165C187.414 133.446 198.146 145.107 207.596 147.285C207.596 147.285 181.744 140.141 180.687 142.192C179.63 144.242 180.687 147.157 182.545 147.734C182.545 147.734 180.943 148.31 180.815 149.816C180.687 151.322 183.121 154.653 186.357 155.935C186.357 155.935 184.627 157.312 185.332 158.946C186.037 160.58 196.64 173.266 198.723 174.643C198.723 174.643 200.805 192.647 203.688 195.082C206.571 197.516 207.148 199.246 210.255 199.118L235.243 295.32L173.831 182.043C173.831 182.043 162.331 179.224 158.679 175.861C155.027 172.497 157.077 175.06 150.542 171.792C138.368 165.706 119.724 138.732 119.724 138.732V138.7Z" fill="#7747FF"/>
<path d="M235.178 295.287C232.423 293.813 218.937 305.09 213.811 311.689C212.594 313.194 211.857 314.476 211.793 315.277C211.44 319.537 211.793 415.258 211.793 415.258H65.0078C65.0078 415.258 69.5567 405.219 70.1974 402.143C91.3374 394.885 94.3619 391.255 125.874 383.127C127.95 382.592 192.347 379.988 193.405 378.931C194.462 377.873 193.244 373.677 186.421 373.869C179.597 374.029 176.971 374.029 176.971 374.029C176.971 374.029 203.207 361.439 203.207 360.222C203.207 359.005 199.523 356.025 196.031 357.051C195.679 357.147 195.519 357.211 195.455 357.211C196.16 356.73 205.45 352.982 204.328 350.708C203.079 348.113 190.041 350.483 188.952 350.708C189.945 350.131 200.42 344.076 199.203 342.058C197.921 339.976 186.325 342.955 186.325 342.955C186.325 342.955 167.136 349.458 162.779 347.888C162.779 347.888 176.266 341.161 174.984 334.818C174.984 334.818 158.775 340.937 152.335 341.161C145.896 341.385 140.386 340.584 137.663 344.333C134.972 348.081 128.758 358.172 126.067 358.877C124.433 359.293 97.3312 363.49 75.4192 367.238C75.4832 367.013 75.5153 366.821 75.5793 366.629C78.1742 356.698 71.0304 318.064 70.1974 318.288C69.3325 318.48 62.6372 337.477 62.6372 337.477C60.2666 336.324 57.9921 335.267 55.7816 334.306C29.0003 322.549 12.9507 323.414 6.15924 324.727C3.62847 325.24 2.41113 325.816 2.41113 325.816C2.41113 312.233 24.0028 244.896 30.9544 228.718C32.5882 224.906 35.7277 220.997 39.5719 217.249C42.1988 214.622 45.178 212.092 48.2214 209.721C59.6259 200.815 72.1196 194.12 72.1196 194.12C72.1516 194.12 72.2157 194.152 72.2477 194.152C181.808 231.761 173.799 182.043 173.799 182.043C178.316 182.876 196.352 191.942 205.225 196.523C208.269 198.06 210.223 199.085 210.223 199.085C212.919 207.37 225.952 259.792 225.952 259.792C225.952 259.792 236.684 296.12 235.178 295.319V295.287Z" fill="#7BB68A"/>
<path d="M113.637 112.335C122.059 112.335 128.886 104.403 128.886 94.6194C128.886 84.8355 122.059 76.904 113.637 76.904C105.215 76.904 98.3882 84.8355 98.3882 94.6194C98.3882 104.403 105.215 112.335 113.637 112.335Z" fill="#7BB68A"/>
<path d="M107.551 108.906C114.062 108.906 119.34 102.394 119.34 94.362C119.34 86.3296 114.062 79.8181 107.551 79.8181C101.04 79.8181 95.7622 86.3296 95.7622 94.362C95.7622 102.394 101.04 108.906 107.551 108.906Z" fill="#E0FAE1"/>
<path d="M113.637 76.9039C113.637 76.9039 121.23 31.8304 144.647 25.7438C168.065 19.6571 190.778 16.6138 200.356 36.2513L193.244 29.7161C193.244 29.7161 180.014 17.8631 153.905 29.4598C127.797 41.0566 118.218 78.1212 118.218 78.1212L113.637 76.9039Z" fill="#7BB68A"/>
<path d="M190.169 133.542C189.785 133.542 189.529 133.542 189.433 133.542L189.561 130.082C189.561 130.082 204.361 130.53 207.885 121.945C211.409 113.295 204.777 106.472 204.489 106.184L206.956 103.749C207.308 104.101 215.509 112.495 211.12 123.29C207.18 132.997 193.533 133.606 190.169 133.606V133.542Z" fill="#7BB68A"/>
<path d="M186.998 134.599C189.493 134.599 191.515 133.337 191.515 131.78C191.515 130.223 189.493 128.961 186.998 128.961C184.503 128.961 182.481 130.223 182.481 131.78C182.481 133.337 184.503 134.599 186.998 134.599Z" fill="#7BB68A"/>
<path d="M101.335 412.215C101.335 414.81 103.45 416.924 106.045 416.924H314.785C317.348 416.924 319.719 415.579 321.064 413.4L385.775 307.108C388.306 302.943 385.423 297.593 380.554 297.433L220.314 291.859C213.298 291.603 206.763 295.575 203.752 301.918L154.994 404.174C153.873 406.513 151.534 407.986 148.94 407.954L106.109 407.538C103.482 407.538 101.367 409.62 101.367 412.247L101.335 412.215Z" fill="#FFD2B9"/>
</svg>
