<svg width="156" height="256" viewBox="0 0 156 256" fill="none" xmlns="http://www.w3.org/2000/svg">
<path d="M114.294 27.4663C111.011 23.498 106.43 20.8643 101.321 20.2949C98.5021 11.5575 87.8991 7.05532 80.5635 11.3795C70.6012 -2.57182 48.5463 -2.57182 38.6321 11.3795C31.2805 7.01973 20.6775 11.5397 17.8265 20.2949C-5.89401 22.0922 -5.89401 62.9853 17.8265 64.8538C20.6775 73.6446 31.2645 78.0578 38.6321 73.7691C48.5784 87.6671 70.6012 87.6671 80.5635 73.7691C87.8991 78.0756 98.454 73.5734 101.321 64.8538C117.418 63.7861 125.554 40.1364 114.294 27.4485V27.4663Z" fill="#FFD2B9"/>
<path d="M87.6514 132.798L95.8348 152.371L119.255 140.859V98.4155H86.7964C86.7964 98.4155 94.0637 116.217 93.3614 122.386C93.0255 125.347 87.6514 132.829 87.6514 132.829V132.798Z" fill="#7747FF"/>
<path d="M154.585 180.647C154.585 180.647 158.738 146.173 152.631 142.325C146.524 138.509 118.615 127.027 118.615 127.027C118.615 127.027 105.24 147.303 87.652 132.768C87.652 132.768 56.6894 140.402 52.1092 145.012C47.5289 149.593 35.376 179.487 35.376 179.487L59.1933 186.235L59.0101 182.082L59.7735 205.777L63.8347 255.916H140.844L131.622 184.372L154.554 182.143" fill="#7BB68A"/>
<path d="M59.1616 186.266C58.4898 194.297 58.9479 211.732 63.864 215.885C67.8641 219.275 95.3457 232.618 92.7502 234.481C88.4142 237.565 91.5899 253.779 85.1164 251.336C81.8492 250.115 78.5208 244.924 66.6122 238.084C55.7417 231.855 40.81 223.885 40.1077 221.962C34.245 205.534 37.6649 180.159 37.6649 180.159L59.1616 186.266Z" fill="#26045D"/>
<path d="M64.3515 238.663L74.0616 245.655C76.1991 247.182 79.0083 246.907 80.3824 245.045L100.077 230.021C101.421 228.159 100.78 225.38 98.6729 223.853L88.9627 216.861C86.8253 215.334 84.0161 215.609 82.642 217.472L62.9469 232.495C61.6033 234.357 62.2446 237.136 64.3515 238.663Z" fill="#FFD2B9"/>
<path d="M122.185 59.851C134.552 67.8512 130.827 76.004 130.827 76.004C130.827 76.004 127.804 82.2637 124.445 89.7753C126.308 88.7066 128.689 88.8898 130.521 90.5693C134.399 94.1113 125.758 105.745 119.254 101.928C117.483 105.44 115.956 108.096 115.04 108.86C111.59 111.791 97.0855 116.799 89.0853 114.722C81.0851 112.646 77.3293 98.5084 80.5966 90.4471C83.8638 82.3858 94.9481 50.9042 94.9481 50.9042C94.9481 50.9042 101.727 46.5988 122.185 59.851Z" fill="#7747FF"/>
<path d="M105.941 66.1405L99.498 65.5298C107.071 70.2628 117.208 69.1024 121.483 68.3085C124.445 72.675 124.231 78.6599 124.231 78.6599C124.231 78.6599 120.262 95.668 119.865 96.0649C119.437 96.4619 122.216 96.5229 122.216 96.5229L124.903 89.8358C126.491 88.3395 128.72 88.6143 128.72 88.6143C128.72 88.6143 135.224 79.8813 136.445 71.6368C136.965 68.2169 135.224 65.8047 133.636 64.339C133.209 52.4914 122.399 47.4836 113.117 45.4988C101.544 42.995 96.3529 47.9111 96.3529 47.9111C100.872 47.4531 106.796 49.4684 106.796 49.4684C96.6582 46.537 88.1084 53.7433 88.1084 53.7433C92.7803 63.1786 104.231 65.7741 105.971 66.11L105.941 66.1405Z" fill="#26045D"/>
<path d="M106.246 78.416C106.246 78.416 107.162 78.6908 108.353 79.0267C108.933 79.2099 109.605 79.3931 110.216 79.6679C110.552 79.7596 110.796 79.9733 111.132 80.0954C111.376 80.2786 111.712 80.4008 111.895 80.6451C112.139 80.8283 112.353 81.042 112.536 81.2863C112.75 81.5 112.872 81.8054 113.055 82.0497C113.178 82.3245 113.3 82.6298 113.452 82.9047C113.575 83.21 113.636 83.5154 113.727 83.7902C113.941 84.3703 114.002 84.92 114.124 85.2864C114.246 85.6833 114.307 85.8971 114.307 85.8971C114.307 85.8971 114.46 85.7139 114.643 85.3169C114.826 84.9505 115.162 84.4009 115.284 83.6986C115.346 83.3322 115.468 82.9352 115.468 82.5077C115.468 82.0802 115.468 81.5917 115.346 81.1336C115.162 80.6756 115.101 80.126 114.765 79.6985C114.491 79.2404 114.155 78.813 113.727 78.4771C113.33 78.1107 112.842 77.9274 112.384 77.6832C111.926 77.5 111.437 77.3778 110.979 77.3167C110.063 77.1641 109.208 77.2862 108.506 77.4389C107.101 77.7748 106.307 78.3855 106.307 78.3855L106.246 78.416Z" fill="#26045D"/>
<path d="M87.7417 73.713L89.6349 73.4077C90.1845 73.3466 90.7647 73.255 91.3448 73.2245C91.925 73.2245 92.5357 73.1634 93.0853 73.2855C93.6655 73.2855 94.1846 73.5298 94.7342 73.6825C95.2533 73.8962 95.7724 74.1405 96.261 74.3848C96.7495 74.5985 97.1465 74.8734 97.4519 75.026C97.7572 75.1787 97.9709 75.2703 97.9709 75.2703C97.9709 75.2703 97.9709 75.0566 97.8793 74.7207C97.7877 74.3848 97.6961 73.8352 97.3602 73.3466C97.0854 72.797 96.5969 72.2168 95.9251 71.6977C95.5587 71.484 95.2228 71.1786 94.7953 71.0565C94.3678 70.9038 93.9403 70.7511 93.4823 70.69C93.0243 70.629 92.5662 70.6595 92.1082 70.69C91.6807 70.69 91.2532 70.8733 90.8563 70.9649C90.0929 71.2397 89.4517 71.6366 88.9936 72.0336C88.047 72.858 87.7722 73.6825 87.7722 73.6825L87.7417 73.713Z" fill="#26045D"/>
<path d="M97.3603 83.1177C93.6961 88.7667 82.3371 94.5989 93.0549 99.2097C91.7419 98.66 90.4289 96.7669 89.5739 95.7287C89.1159 95.179 89.1158 94.4157 89.5128 93.8355C92.1693 90.1102 94.6427 86.904 97.3909 83.1177H97.3603Z" fill="#26045D"/>
<path d="M104.78 84.9505C104.261 86.2024 104.444 87.4849 105.147 87.7597C105.879 88.0651 106.857 87.2711 107.376 86.0192C107.895 84.7673 107.712 83.4848 107.009 83.21C106.276 82.9046 105.299 83.6985 104.78 84.9505Z" fill="#26045D"/>
<path d="M90.1537 80.3094C89.6346 81.5613 89.8178 82.8438 90.5201 83.1186C91.253 83.4239 92.2301 82.63 92.7492 81.3781C93.2683 80.1261 93.0851 78.8437 92.3828 78.5689C91.6499 78.2635 90.6728 79.0574 90.1537 80.3094Z" fill="#26045D"/>
<path d="M96.7498 102.844C97.788 103.119 94.9788 101.287 93.4826 101.073C92.536 100.951 88.597 101.714 91.223 102.05C93.849 102.386 93.7269 102.05 96.7804 102.844H96.7498Z" fill="#26045D"/>
<path fill-rule="evenodd" clip-rule="evenodd" d="M90.9788 132.19C90.9788 132.19 84.6275 128.098 82.826 126.358L82.8565 126.327C66.1843 110.266 80.7496 100.922 82.2458 101.044C83.7982 101.171 86.93 105.149 89.7423 108.722C91.6871 111.193 93.4792 113.47 94.4904 114.144C96.9332 115.762 98.0019 114.938 98.0019 114.938C98.0019 114.938 99.8035 114.205 98.2767 110.815C96.7805 107.487 96.7805 105.838 99.0095 105.289C99.0095 105.289 100.872 108.281 101.483 109.716C101.504 109.768 101.542 109.855 101.593 109.972C102.35 111.721 106.088 120.353 103.742 125.045L105.947 128.481C106.019 128.571 106.088 128.666 106.156 128.768C115.325 142.598 132.023 171.545 132.32 172.06C133.198 171.831 155.573 166.158 154.615 180.647C154.518 182.101 154.463 183.74 154.405 185.501C153.983 198.158 153.354 217.049 135.286 217.961C116.864 218.89 98.981 156.162 96.1761 136.006C95.455 135.481 94.6141 134.862 93.6581 134.158C92.847 133.561 91.953 132.903 90.9788 132.19Z" fill="#26045D"/>
</svg>
