<svg width="507" height="438" viewBox="0 0 507 438" fill="none" xmlns="http://www.w3.org/2000/svg">
<path d="M427.557 150.239V184.086H501.362C504.215 184.086 506.53 181.271 506.53 177.801V150.239H427.557ZM449.925 167.555C449.925 168.014 449.629 168.374 449.252 168.374H434.717V161.074C434.717 160.616 435.013 160.256 435.363 160.256H449.252C449.629 160.256 449.925 160.616 449.925 161.074V167.555ZM464.352 167.555C464.352 168.014 464.056 168.374 463.706 168.374H454.097V161.074C454.097 160.616 454.393 160.256 454.77 160.256H463.706C464.056 160.256 464.352 160.616 464.352 161.074V167.555Z" fill="#26045D"/>
<path d="M506.504 124.641V133.152H427.531V124.641C427.531 119.993 430.653 116.13 434.529 116.13H499.479C503.301 116.13 506.477 119.928 506.477 124.641H506.504Z" fill="#26045D"/>
<path d="M288.649 357.317C288.649 357.317 268.498 355.181 266.792 369.076C266.792 369.076 284.841 380.608 288.649 357.317Z" fill="#7BB68A"/>
<path d="M216.939 415.091C218.019 418.337 223.988 424.06 223.988 424.06L232.031 428.018L237.801 422.978L234.248 418.137C234.248 418.137 232.003 417.796 232.145 410.335C232.287 402.875 223.362 403.302 223.362 403.302C223.362 403.302 214.864 408.94 216.91 415.091H216.939Z" fill="#7747FF"/>
<path d="M293.026 395.073C293.026 403.501 287.938 410.335 281.629 410.335H259.8C253.519 410.335 248.403 403.501 248.403 395.073V267.966C248.403 259.538 253.49 252.704 259.8 252.704H281.629C287.91 252.704 293.026 259.538 293.026 267.966V395.073Z" fill="#FFD2B9"/>
<path d="M282.425 395.073C282.425 403.501 276.428 410.335 269.009 410.335H255.765C248.346 410.335 242.349 403.501 242.349 395.073V267.966C242.349 259.538 248.346 252.704 255.765 252.704H269.009C276.428 252.704 282.425 259.538 282.425 267.966V395.073Z" fill="#FCE4D5"/>
<path d="M161.572 215.83V315.062H109.076C106.461 315.062 103.988 314.435 101.828 313.296C96.57 310.677 92.9888 305.21 92.9888 298.946V231.946C92.9888 223.063 100.18 215.83 109.076 215.83H161.572Z" fill="#FFD2B9"/>
<path d="M239.989 231.946V298.946C239.989 302.248 238.995 305.352 237.261 307.886C234.39 312.214 229.473 315.062 223.902 315.062H161.572V215.83H223.902C232.798 215.83 239.989 223.063 239.989 231.946Z" fill="#FFD2B9"/>
<path d="M118.626 215.83H161.572V315.062H118.626C113.51 315.062 108.99 312.67 106.035 308.968C103.846 306.235 102.539 302.733 102.539 298.946V231.946C102.539 223.063 109.729 215.83 118.626 215.83Z" fill="#FCE4D5"/>
<path d="M249.539 231.946V298.946C249.539 302.248 248.544 305.352 246.811 307.886C243.94 312.214 239.023 315.062 233.452 315.062H161.572V215.83H233.452C242.348 215.83 249.539 223.063 249.539 231.946Z" fill="#FCE4D5"/>
<path d="M109.843 307.886H161.572V410.335H109.843C103.562 410.335 98.4458 401.993 98.4458 391.713V326.508C98.4458 321.326 99.7532 316.656 101.828 313.296C102.993 311.389 104.443 309.88 106.035 308.968C107.228 308.257 108.507 307.886 109.843 307.886Z" fill="#FFD2B9"/>
<path d="M292.287 326.508V391.714C292.287 401.993 287.199 410.335 280.889 410.335H161.572V307.886H280.889C287.199 307.886 292.287 316.229 292.287 326.508Z" fill="#FFD2B9"/>
<path d="M137.185 395.073C137.185 403.502 132.098 410.335 125.788 410.335H103.959C97.678 410.335 92.562 403.502 92.562 395.073V267.966C92.562 259.538 97.6496 252.704 103.959 252.704H125.788C132.069 252.704 137.185 259.538 137.185 267.966V395.073Z" fill="#FFD2B9"/>
<path d="M126.186 395.073C126.186 403.502 121.099 410.335 114.789 410.335H92.9604C86.679 410.335 81.563 403.502 81.563 395.073V267.966C81.563 259.538 86.6506 252.704 92.9604 252.704H114.789C121.07 252.704 126.186 259.538 126.186 267.966V395.073Z" fill="#FCE4D5"/>
<path d="M208.298 193.592C207.105 197.465 204.064 201.508 196.503 201.736C196.389 201.764 196.304 201.764 196.191 201.764C185.902 201.935 178.938 194.219 175.641 189.35C180.388 189.577 185.447 188.723 185.447 188.723C185.504 186.246 185.561 184.167 185.561 182.26C185.561 179.355 185.475 176.878 185.248 174.088C186.3 174.6 187.323 175.027 188.346 175.369C191.87 176.593 195.253 176.878 198.322 176.365L198.862 183.228L199.033 185.363L208.895 186.901C208.895 187.157 208.952 187.527 208.952 188.011C209.009 189.35 208.924 191.457 208.298 193.592Z" fill="#26045D"/>
<path d="M226.973 208.997C226.973 208.997 225.978 233.854 229.872 236.104C233.766 238.353 241.61 231.491 241.61 231.491L238.256 208.997H226.973Z" fill="#7747FF"/>
<path d="M210.601 142.368C210.601 142.368 199.317 138.239 189.71 121.667C189.71 121.667 205.258 104.925 219.014 126.138C221.203 129.526 221.6 133.171 220.947 136.701C220.861 137.954 221.998 142.396 224.983 143.848C229.076 145.813 232.515 151.252 229.019 157.117C225.892 162.356 233.538 168.877 230.781 175.255C223.789 191.4 202.643 189.122 194.343 183.683C190.393 181.092 199.63 158.911 207.986 153.7L210.629 142.396" fill="#26045D"/>
<path d="M203.495 125.027C203.495 125.027 208.64 134.11 197.1 139.406C185.959 144.503 190.819 153.245 190.819 153.245C190.819 153.245 196.333 159.965 189.824 166.599C186.811 169.646 194.457 179.014 190.336 182.715C175.755 195.813 161.004 182.573 158.417 174.145C155.802 165.745 169.132 155.807 168.251 152.903C167.37 149.999 163.817 143.08 170.525 137.47C176.579 132.43 172.458 126.223 178.569 121.696C181.212 119.731 193.661 109.509 203.524 124.999L203.495 125.027Z" fill="#7747FF"/>
<path d="M223.988 424.06C227.683 429.84 230.752 433.655 233.339 435.763C233.765 436.104 234.191 436.417 234.589 436.702C234.959 436.93 235.3 437.129 235.641 437.272C236.209 437.556 236.778 437.727 237.289 437.813C237.517 437.813 237.716 437.87 237.943 437.87C239.876 437.87 241.496 436.531 242.917 434.083C243.542 433.029 243.798 431.976 243.77 430.95C243.77 430.409 243.685 429.868 243.542 429.356C243.514 429.299 243.514 429.214 243.486 429.157C242.235 424.8 236.948 420.814 234.277 418.137C235.328 421.155 233.879 424.515 230.497 424.829C228.251 425.056 226.063 424.829 223.988 424.06Z" fill="#7BB68A"/>
<path d="M223.59 243.849C223.59 244.532 223.59 245.13 223.533 245.756C223.533 246.383 223.447 247.009 223.391 247.636C223.192 249.914 222.737 267.653 222.339 269.675C209.947 273.262 199.629 281.605 187.777 277.306C187.749 277.306 166.119 280.58 166.091 280.58C163.334 279.583 178.398 250.882 175.982 249.458L174.22 235.221C174.22 235.221 175.669 233.826 178.057 231.776C179.791 230.295 182.007 228.501 184.537 226.651C191.245 221.753 200.084 216.542 207.559 216.485C208.099 216.485 208.611 216.485 209.122 216.571C209.435 216.571 209.719 216.628 210.032 216.685H210.06C213.357 217.226 216.313 219.02 218.473 222.636C220.122 225.369 221.287 228.217 222.083 231.092C222.225 231.605 222.367 232.118 222.481 232.659C223.362 236.417 223.675 240.233 223.561 243.849H223.59Z" fill="#7BB68A"/>
<path d="M198.322 176.365C195.253 176.878 191.87 176.593 188.346 175.369C187.323 175.027 185.106 174.6 184.054 174.088C183.628 169.446 182.519 165.375 180.871 155.921C180.871 155.921 180.814 154.583 180.814 154.554C180.643 153.586 180.757 152.647 180.558 151.565C179.791 147.123 180.985 143.136 181.525 139.805C183.173 139.321 184.679 138.78 186.072 138.21C197.327 133.569 200.511 126.536 201.307 121.895C206.565 123.632 211.397 128.159 214.182 137.556C219.98 157.174 211.766 174.201 198.322 176.365Z" fill="#7747FF"/>
<path d="M202.216 149.799C203.353 150.711 204.291 151.707 205.201 152.704C205.684 153.188 206.11 153.7 206.565 154.156C206.792 154.384 207.02 154.611 207.247 154.811C207.446 155.01 207.759 155.152 207.702 155.152L208.384 156.035C208.27 156.377 208.157 156.662 207.986 156.946C207.844 157.231 207.673 157.487 207.474 157.744C207.105 158.228 206.65 158.683 206.139 159.025C205.115 159.737 203.836 159.965 202.728 159.794C203.836 159.509 204.831 159.025 205.542 158.285C205.911 157.914 206.195 157.516 206.451 157.06C206.565 156.832 206.679 156.605 206.764 156.377C206.849 156.149 206.934 155.893 206.991 155.693L207.673 156.576C207.275 156.576 207.048 156.434 206.821 156.348C206.622 156.234 206.451 156.121 206.281 156.007C205.968 155.75 205.684 155.523 205.428 155.266C204.945 154.725 204.49 154.184 204.092 153.586C203.296 152.419 202.614 151.166 202.216 149.799Z" fill="#26045D"/>
<path d="M198.123 141.058C198.123 141.058 197.327 140.688 196.162 140.261C194.997 139.833 193.433 139.349 191.956 139.406C191.217 139.406 190.478 139.577 189.824 139.862C189.483 139.976 189.199 140.175 188.914 140.318C188.602 140.46 188.374 140.688 188.119 140.859C187.891 141.058 187.635 141.2 187.465 141.371C187.294 141.542 187.124 141.713 186.982 141.827C186.726 142.083 186.527 142.225 186.527 142.225C186.527 142.225 186.584 142.026 186.754 141.684C186.925 141.343 187.095 140.802 187.522 140.289C187.721 140.033 187.92 139.691 188.232 139.463C188.545 139.207 188.829 138.894 189.227 138.723C189.625 138.524 190.023 138.296 190.478 138.21C190.932 138.068 191.387 138.04 191.87 137.983C192.808 137.983 193.718 138.125 194.514 138.467C195.309 138.751 195.963 139.179 196.503 139.549C197.555 140.346 198.066 141.058 198.066 141.058H198.123Z" fill="#26045D"/>
<path d="M213.273 139.89C213.273 139.89 212.591 139.577 211.568 139.065C211.056 138.837 210.488 138.581 209.891 138.381C209.578 138.267 209.265 138.182 208.953 138.097C208.64 137.983 208.327 137.983 208.015 137.926C207.702 137.926 207.389 137.869 207.105 137.954L206.679 138.011L206.281 138.154C205.997 138.239 205.769 138.41 205.514 138.524C205.258 138.638 205.059 138.837 204.86 139.008C204.434 139.321 204.121 139.663 203.894 139.89C203.638 140.118 203.496 140.261 203.496 140.261C203.496 140.261 203.524 140.061 203.638 139.748C203.751 139.435 203.837 138.922 204.206 138.41C204.377 138.154 204.519 137.84 204.803 137.613C205.059 137.356 205.315 137.072 205.713 136.901C206.054 136.673 206.452 136.502 206.906 136.417C207.333 136.274 207.759 136.331 208.214 136.303C208.64 136.388 209.066 136.417 209.464 136.559C209.862 136.673 210.232 136.844 210.544 137.043C211.226 137.413 211.767 137.84 212.164 138.267C213.017 139.093 213.358 139.833 213.358 139.833L213.273 139.89Z" fill="#26045D"/>
<path d="M222.509 232.658C223.39 236.417 223.703 240.233 223.589 243.849C222.85 244.247 222.14 244.646 221.401 245.016C220.889 245.272 220.378 245.529 219.866 245.756C219.354 246.013 218.871 246.24 218.36 246.44C218.047 246.611 217.734 246.753 217.422 246.867C216.484 247.266 215.574 247.664 214.665 248.006C213.983 248.262 213.272 248.518 212.562 248.775C211.766 249.059 210.97 249.316 210.174 249.572C208.923 249.971 207.701 250.341 206.508 250.625C206.195 250.711 205.911 250.796 205.626 250.853C205.541 250.853 205.456 250.91 205.371 250.91C204.774 251.081 204.177 251.223 203.58 251.337C201.022 251.907 198.549 252.334 196.19 252.619C194.599 252.818 193.092 252.932 191.614 253.017C191.216 253.046 190.818 253.074 190.449 253.074C189.937 253.074 189.426 253.131 188.914 253.131C188.374 253.16 187.834 253.16 187.322 253.16C186.868 253.16 186.441 253.16 186.015 253.131C196.474 247.123 208.099 236.759 209.975 235.42C209.947 235.42 209.89 235.42 209.861 235.392C210.743 234.822 211.51 234.367 212.022 234.082C212.22 233.968 212.419 233.826 212.59 233.712C215.517 231.491 213.698 227.59 213.698 227.59C213.869 227.277 213.983 226.935 214.011 226.622V226.565C214.096 226.024 213.983 225.512 213.812 225.056C213.812 224.971 213.755 224.914 213.727 224.857C213.698 224.828 213.698 224.8 213.698 224.771C213.244 223.86 212.562 223.234 212.562 223.234C212.562 221.24 210.998 219.703 210.998 219.703C210.941 219.133 210.6 218.877 210.089 218.877C209.265 218.82 207.957 219.361 206.792 219.959C207.133 219.731 207.389 219.504 207.644 219.304C207.815 219.162 207.929 219.048 208.071 218.906C209.037 217.994 209.122 217.425 209.122 217.425C209.208 217.14 209.236 216.855 209.151 216.571C209.151 216.514 209.122 216.428 209.094 216.371C208.952 216.03 208.355 216.115 207.588 216.485C205.115 217.653 200.539 221.468 200.539 221.468C198.436 224.23 199.743 229.071 200.198 230.437C199.175 230.751 197.896 231.092 196.418 231.463C191.699 232.715 184.992 234.538 179.023 237.812C178.966 237.271 178.654 235.022 178.085 231.776C177.574 228.729 176.863 224.828 175.925 220.671C175.385 218.222 174.76 215.688 174.078 213.182C170.837 214.321 167.171 214.777 163.817 214.919C159.184 215.119 155.148 214.691 153.557 214.521C153.073 214.435 152.818 214.407 152.818 214.407C150.089 198.518 160.975 190.375 162.936 189.805C165.608 189.036 175.641 189.293 175.669 189.35C175.669 189.35 185.93 201.935 196.219 201.764C196.332 201.764 196.418 201.764 196.531 201.764C204.092 201.536 207.133 197.493 208.327 193.621C208.952 191.485 209.037 189.378 208.98 188.04C208.98 187.556 208.952 187.186 208.923 186.929C208.895 186.673 208.867 186.531 208.867 186.531L212.562 187.1L215.489 187.556H215.603L216.711 187.755H216.74C217.706 189.35 218.644 190.859 219.468 192.339C222.936 198.404 225.352 203.985 227 209.025C227 209.025 227 209.054 227.029 209.139C227.256 210.392 229.416 222.408 222.14 231.121C222.14 231.121 222.396 232.146 222.509 232.687V232.658Z" fill="#E0FAE1"/>
<path d="M212.022 234.082C211.51 234.367 210.743 234.822 209.862 235.392C209.862 235.42 209.947 235.42 209.975 235.42C208.1 236.759 196.475 247.123 186.015 253.131C185.276 253.131 184.537 253.131 183.855 253.074C181.894 252.96 180.103 252.789 178.512 252.533C177.972 252.448 177.46 252.362 176.977 252.277C176.693 252.22 176.437 252.163 176.181 252.106C175.925 252.106 175.67 252.021 175.414 251.964C172.429 251.252 170.61 250.398 170.241 249.657L169.957 248.917C169.843 248.632 169.729 248.291 169.616 247.92C169.616 247.835 169.559 247.749 169.53 247.636L167.512 240.005C166.262 234.68 164.926 227.647 164.102 219.902C163.931 218.421 163.789 216.912 163.675 215.403C163.732 215.232 163.789 215.061 163.817 214.919C167.171 214.777 170.838 214.321 174.078 213.182C177.204 224.6 178.853 236.417 179.023 237.812C186.868 233.513 195.935 231.719 200.198 230.437C199.743 229.071 198.436 224.23 200.539 221.468C200.539 221.468 208.441 214.891 209.094 216.371C209.634 217.596 208.185 218.991 206.735 219.987C208.583 219.019 210.857 218.165 210.999 219.703C210.999 219.703 212.562 221.24 212.562 223.233C212.562 223.233 214.921 225.341 213.699 227.59C213.699 227.59 215.745 231.975 212.022 234.082Z" fill="#E0FAE1"/>
<path d="M222.51 232.658C223.391 236.417 223.703 240.232 223.59 243.849C209.123 252.818 198.265 253.16 187.323 253.16C186.868 253.16 186.442 253.16 186.015 253.131C185.276 253.131 184.566 253.131 183.884 253.074H183.827C180.871 252.903 178.284 252.562 176.181 252.134C172.742 251.423 170.61 250.455 170.241 249.657C169.843 248.86 168.734 245.301 167.512 239.976C166.262 234.68 164.926 227.618 164.102 219.874C163.931 218.393 163.789 218.023 163.675 216.485C164.187 214.919 169.218 214.634 170.184 215.061C171.975 217.112 173.907 218.991 175.925 220.671C178.625 222.977 181.525 224.97 184.566 226.65C188.318 228.729 192.297 230.352 196.418 231.462C201.619 232.972 207.048 233.683 212.59 233.712H212.789C216.086 233.712 219.355 233.37 222.51 232.658Z" fill="#7BB68A"/>
<path d="M204.86 149.629C204.86 149.629 205.002 149.572 205.201 149.429C205.4 149.287 205.713 149.145 206.082 148.917C206.793 148.518 207.702 148.006 208.555 147.778C208.754 147.721 208.953 147.664 209.123 147.692L209.55 147.778C209.805 147.863 210.061 148.205 210.232 148.518C210.402 148.86 210.573 149.173 210.63 149.401C210.715 149.629 210.8 149.771 210.8 149.771C210.772 149.771 211.084 149.23 211.056 148.29C211.056 148.063 210.971 147.778 210.914 147.493C210.772 147.237 210.63 146.895 210.317 146.667C210.175 146.525 210.004 146.44 209.805 146.383C209.635 146.297 209.436 146.24 209.237 146.24C208.839 146.183 208.498 146.24 208.157 146.326C206.85 146.696 205.997 147.578 205.457 148.29C205.201 148.632 205.031 149.031 204.945 149.23C204.86 149.458 204.832 149.629 204.832 149.629H204.86Z" fill="#26045D"/>
<path d="M191.587 151.65C191.587 151.65 191.729 151.593 191.928 151.451C192.127 151.308 192.439 151.166 192.809 150.938C193.519 150.54 194.429 150.027 195.281 149.799C195.48 149.742 195.679 149.685 195.85 149.714L196.276 149.799C196.532 149.885 196.788 150.198 196.958 150.54C197.129 150.881 197.299 151.195 197.356 151.422C197.442 151.65 197.527 151.792 197.527 151.792C197.498 151.792 197.811 151.251 197.783 150.312C197.783 150.084 197.697 149.799 197.612 149.515C197.47 149.258 197.328 148.917 197.015 148.689C196.873 148.546 196.703 148.461 196.532 148.404C196.361 148.319 196.163 148.262 195.964 148.262C195.566 148.205 195.225 148.262 194.884 148.347C193.576 148.717 192.723 149.6 192.183 150.312C191.928 150.654 191.757 151.052 191.672 151.251C191.587 151.479 191.558 151.65 191.558 151.65H191.587Z" fill="#26045D"/>
<path d="M222.254 202.106C221.515 201.963 216.228 204.583 212.363 207.089C212.363 207.117 212.306 207.117 212.277 207.146C209.776 208.341 205.285 212.1 205.285 212.1C204.063 213.695 204.006 216.001 204.234 217.937C204.404 219.332 204.774 220.5 204.944 221.069C203.211 221.582 182.718 234.452 178.085 236.986C177.915 235.591 176.266 223.774 173.14 212.356C169.899 213.495 166.233 213.951 162.879 214.093C158.246 214.292 154.21 213.865 152.619 213.695C155.262 223.86 162.652 245.044 167.882 253.045C168.876 254.611 169.814 255.665 170.61 256.035C173.822 257.573 179.137 255.665 184.821 252.447C184.907 252.391 184.992 252.362 185.077 252.305C195.537 246.297 212.846 227.39 214.722 226.052C214.722 226.052 214.636 226.052 214.608 226.024C215.489 225.454 216.256 224.999 216.768 224.714C220.236 222.749 218.701 218.791 218.473 218.279C218.473 218.25 218.473 218.222 218.473 218.222C219.696 215.972 217.337 213.865 217.337 213.865C217.337 213.581 217.308 213.296 217.251 213.04C216.91 211.445 215.404 209.537 214.949 209.509C217.564 207.886 222.396 204.668 222.936 202.903C223.106 202.39 222.652 202.191 222.282 202.106H222.254ZM177.346 237.385C176.863 237.47 176.664 237.527 176.636 237.527C176.778 237.47 177.204 237.356 177.574 237.271L177.346 237.385Z" fill="#7747FF"/>
<path d="M158.247 409.026C158.417 408.314 158.701 407.602 159.014 406.89C158.673 407.602 158.417 408.314 158.247 409.026Z" fill="#26045D"/>
<path d="M206.622 220.044C205.712 220.671 204.831 221.126 204.433 221.326C204.803 221.069 205.655 220.557 206.622 220.044Z" fill="#7747FF"/>
<path d="M226.972 208.997C226.972 208.997 226.83 209.139 226.773 209.224L215.262 188.381L215.006 187.926V187.84H215.49L215.774 187.784L216.683 187.727C217.394 187.983 230.042 190.973 231.349 193.592C231.719 194.333 238.114 205.124 238.227 206.377C238.512 209.651 233.453 208.74 226.944 209.025L226.972 208.997Z" fill="#E0FAE1"/>
<path d="M248.829 181.405H236.522C234.845 181.405 233.594 179.896 233.907 178.245L239.165 150.739C239.393 149.486 240.501 148.575 241.78 148.575H254.087C255.764 148.575 257.014 150.084 256.702 151.736L251.444 179.241C251.216 180.494 250.108 181.405 248.829 181.405Z" fill="#FFD2B9"/>
<path d="M247.01 178.102C247.01 178.102 227.598 221.781 228.052 231.035C228.507 240.289 238.682 238.894 239.904 237.983C241.127 237.072 249 232.573 250.677 221.781C252.353 210.99 258.692 183.94 258.692 158.114C258.692 156.889 257.413 156.007 256.304 156.519C255.054 157.089 253.831 158.683 254.059 162.726C254.059 162.726 250.989 156.491 249.426 156.206C247.863 155.921 240.501 155.779 238.796 156.861C237.091 157.943 234.021 166.599 236.806 167.966C239.592 169.332 242.349 167.823 243.344 169.361C244.338 170.898 248.147 175.397 246.953 178.074L247.01 178.102Z" fill="#7747FF"/>
<path d="M214.21 406.264C214.21 406.264 221.344 422.124 242.064 406.264C242.064 406.264 232.571 390.347 214.21 406.264Z" fill="#7BB68A"/>
<path d="M166.063 280.608C166.063 280.608 160.691 315.546 188.773 312.157C216.854 308.769 231.293 303.985 231.293 303.985L214.239 406.263C214.239 406.263 229.729 396.725 242.093 406.263L258.521 310.79L235.812 274.714C235.812 274.714 179.479 273.347 166.063 280.608Z" fill="#7BB68A"/>
<path d="M202.956 274.6L249.654 258.655C249.654 258.655 261.108 255.551 264.291 262.727C267.475 269.902 288.649 357.175 288.649 357.175L266.792 368.934L235.812 274.686L202.956 274.572V274.6Z" fill="#E0FAE1"/>
<path d="M275.915 366.286C274.978 371.098 271.652 371.696 275.347 373.433C279.042 375.17 281.316 375.369 284.215 379.185C287.114 383 293.168 373.889 293.168 373.889L281.543 364.122L275.915 366.315V366.286Z" fill="#7BB68A"/>
<path d="M285.067 359.111L293.736 371.953L294.248 381.093L284.243 379.185C284.243 379.185 281.088 374.06 278.331 372.465C275.006 370.557 272.05 371.668 272.561 365.831C273.073 359.994 272.561 365.831 272.561 365.831L285.067 359.083" fill="#7747FF"/>
<path d="M284.215 379.157C287.768 384.054 290.667 387.186 292.998 388.781C293.339 389.009 293.652 389.208 293.964 389.407C294.277 389.578 294.561 389.72 294.845 389.834C295.13 389.948 295.414 390.034 295.698 390.091C295.954 390.148 296.181 390.176 296.409 390.176C297.688 390.176 298.626 389.407 299.308 387.955C299.592 387.386 299.819 386.702 299.99 385.933C300.103 385.563 300.189 385.136 300.246 384.709C300.331 384.254 300.359 383.826 300.359 383.371C300.359 383.001 300.359 382.659 300.274 382.289C300.246 381.947 300.16 381.577 300.075 381.207C299.905 380.495 299.62 379.783 299.308 379.071C299.023 378.445 298.654 377.818 298.284 377.22C298.228 377.164 298.199 377.107 298.142 377.021C297.716 376.366 297.233 375.711 296.721 375.085C296.75 375.142 296.778 375.199 296.806 375.256C295.869 374.06 294.817 372.921 293.737 371.924C293.68 372.551 293.509 373.206 293.168 373.861C291.321 377.477 287.967 379.128 284.215 379.157Z" fill="#7BB68A"/>
<path d="M195.964 163.239C196.617 163.837 197.328 164.35 198.095 164.777C198.493 165.005 198.891 165.175 199.289 165.346C199.715 165.489 200.113 165.66 200.568 165.745C200.767 165.802 200.994 165.859 201.222 165.859C201.449 165.859 201.648 165.944 201.875 165.944C202.33 165.973 202.757 165.973 203.211 165.944C203.666 165.944 204.092 165.83 204.547 165.773C204.775 165.773 204.974 165.66 205.201 165.631L205.855 165.46L206.224 165.688L205.997 165.773L205.343 166.03C205.116 166.087 204.917 166.201 204.689 166.257C204.235 166.371 203.78 166.485 203.268 166.514C203.012 166.514 202.785 166.571 202.529 166.571H201.79C201.534 166.571 201.307 166.485 201.051 166.457C200.795 166.428 200.568 166.371 200.341 166.314C200.113 166.257 199.857 166.201 199.63 166.115C199.403 166.03 199.175 165.944 198.976 165.83C198.55 165.631 198.152 165.375 197.754 165.119C197.015 164.578 196.361 163.951 195.907 163.239H195.964Z" fill="#26045D"/>
<path d="M198.664 288.467C198.664 300.255 256.077 309.822 326.906 309.822C397.734 309.822 455.148 300.255 455.148 288.467C455.148 276.679 397.734 267.112 326.906 267.112C256.077 267.112 198.664 276.679 198.664 288.467Z" fill="#26045D"/>
<path d="M455.119 288.467H198.664V273.774H455.119V288.467Z" fill="#26045D"/>
<path d="M198.664 273.774C198.664 285.563 256.077 295.13 326.906 295.13C397.734 295.13 455.148 285.563 455.148 273.774C455.148 261.986 397.734 252.419 326.906 252.419C256.077 252.419 198.664 261.986 198.664 273.774Z" fill="#7747FF"/>
<path d="M307.493 297.75H346.318V427.761C346.318 431.662 343.163 434.823 339.269 434.823H307.521V297.75H307.493Z" fill="#26045D"/>
<path d="M275.234 274.999H304.452L305.617 228.216H278.986L275.234 274.999Z" fill="#E0FAE1"/>
<path d="M316.077 228.216H278.986V279.156H316.077V228.216Z" fill="#26045D"/>
<path d="M289.729 238.695C289.729 238.467 289.9 238.296 290.127 238.296H297.375C297.602 238.296 297.773 238.467 297.773 238.695V245.955C297.773 246.183 297.602 246.354 297.375 246.354H289.701V238.666L289.729 238.695Z" fill="#E0FAE1"/>
<path d="M298.626 238.695C298.626 238.467 298.796 238.296 299.023 238.296H306.271C306.499 238.296 306.669 238.467 306.669 238.695V245.955C306.669 246.183 306.499 246.354 306.271 246.354H298.597V238.666L298.626 238.695Z" fill="#E0FAE1"/>
<path d="M303.059 251.85C303.059 251.85 303.144 251.65 303.258 251.65H306.47C306.47 251.65 306.669 251.736 306.669 251.85V255.067C306.669 255.067 306.584 255.266 306.47 255.266H303.031V251.821L303.059 251.85Z" fill="#E0FAE1"/>
<path d="M289.729 247.578C289.729 247.351 289.9 247.18 290.127 247.18H297.375C297.602 247.18 297.773 247.351 297.773 247.578V254.839C297.773 255.067 297.602 255.238 297.375 255.238H289.701V247.55L289.729 247.578Z" fill="#E0FAE1"/>
<path d="M300.643 235.733C300.359 235.733 300.131 235.961 300.131 236.246C300.131 236.531 300.359 236.758 300.643 236.758V235.733ZM308.203 244.332C308.203 244.617 308.431 244.845 308.715 244.845C308.999 244.845 309.227 244.617 309.227 244.332H308.203ZM300.643 236.758H308.317V235.733H300.643V236.758ZM308.203 236.645V244.332H309.227V236.645H308.203ZM308.317 236.758C308.317 236.758 308.203 236.701 308.203 236.645H309.227C309.227 236.132 308.8 235.705 308.289 235.705V236.73L308.317 236.758Z" fill="#E0FAE1"/>
<path d="M300.643 257.402C300.359 257.402 300.131 257.174 300.131 256.889C300.131 256.605 300.359 256.377 300.643 256.377V257.402ZM308.203 248.803C308.203 248.518 308.431 248.29 308.715 248.29C308.999 248.29 309.227 248.518 309.227 248.803H308.203ZM300.643 256.377H308.317V257.402H300.643V256.377ZM308.203 256.491V248.803H309.227V256.491H308.203ZM308.317 256.377C308.317 256.377 308.203 256.434 308.203 256.491H309.227C309.227 257.003 308.8 257.43 308.289 257.43V256.405L308.317 256.377Z" fill="#E0FAE1"/>
<path d="M295.812 235.733C296.096 235.733 296.323 235.961 296.323 236.246C296.323 236.531 296.096 236.758 295.812 236.758V235.733ZM288.251 244.332C288.251 244.617 288.024 244.845 287.74 244.845C287.455 244.845 287.228 244.617 287.228 244.332H288.251ZM295.812 236.758H288.138V235.733H295.812V236.758ZM288.251 236.645V244.332H287.228V236.645H288.251ZM288.138 236.758C288.138 236.758 288.251 236.701 288.251 236.645H287.228C287.228 236.132 287.654 235.705 288.166 235.705V236.73L288.138 236.758Z" fill="#E0FAE1"/>
<path d="M295.812 257.402C296.096 257.402 296.323 257.174 296.323 256.889C296.323 256.605 296.096 256.377 295.812 256.377V257.402ZM288.251 248.803C288.251 248.518 288.024 248.29 287.74 248.29C287.455 248.29 287.228 248.518 287.228 248.803H288.251ZM295.812 256.377H288.138V257.402H295.812V256.377ZM288.251 256.491V248.803H287.228V256.491H288.251ZM288.138 256.377C288.138 256.377 288.251 256.434 288.251 256.491H287.228C287.228 257.003 287.654 257.43 288.166 257.43V256.405L288.138 256.377Z" fill="#E0FAE1"/>
<path d="M288.99 266.827C288.99 267.652 288.279 268.307 287.455 268.307H286.858C286.858 268.307 286.716 268.25 286.716 268.165V266.912C286.716 266.912 286.745 266.798 286.83 266.77H286.887C286.887 266.77 287.114 266.656 287.199 266.57C287.228 266.542 287.285 266.513 287.313 266.485C287.54 266.257 287.683 265.944 287.683 265.574C287.683 265.204 287.54 264.89 287.313 264.663C287.313 264.663 287.256 264.606 287.228 264.606C287.142 264.606 287.057 264.663 287.057 264.748V265.403C287.057 265.403 287 265.545 286.915 265.545C286.915 265.545 286.773 265.488 286.773 265.403V264.834C286.773 264.834 286.745 264.663 286.688 264.606C286.602 264.52 286.489 264.492 286.347 264.52C286.205 264.577 286.119 264.691 286.119 264.834V265.375C286.119 265.375 286.062 265.517 285.977 265.545C285.892 265.545 285.807 265.488 285.807 265.403V264.748C285.807 264.748 285.636 264.549 285.551 264.634C285.323 264.89 285.181 265.204 285.181 265.574C285.181 265.944 285.323 266.257 285.579 266.485C285.721 266.627 285.863 266.713 286.062 266.77C286.119 266.77 286.148 266.855 286.148 266.912V268.165C286.148 268.165 286.091 268.307 286.006 268.307H284.584V263.951C284.584 263.78 284.727 263.638 284.897 263.638H287.54C288.137 263.638 288.649 264.122 288.649 264.72C288.649 265.004 288.535 265.261 288.393 265.431C288.365 265.46 288.393 265.517 288.393 265.545C288.791 265.83 289.075 266.286 289.075 266.827H288.99Z" fill="#E0FAE1"/>
<path d="M290.894 268.307C290.099 268.307 289.445 267.709 289.445 266.855C289.445 266.001 290.099 265.403 290.894 265.403C291.69 265.403 292.344 266.001 292.344 266.855C292.344 267.709 291.69 268.307 290.894 268.307ZM290.894 267.681C291.349 267.681 291.633 267.368 291.633 266.855C291.633 266.343 291.349 266.029 290.894 266.029C290.44 266.029 290.155 266.343 290.155 266.855C290.155 267.368 290.44 267.681 290.894 267.681Z" fill="#E0FAE1"/>
<path d="M293.225 268.308H292.542V266.257C292.542 266.257 292.599 266.115 292.685 266.115H293.225V266.485C293.367 266.257 293.623 266.087 293.907 266.087V266.798H293.736C293.424 266.798 293.225 266.912 293.225 267.282V268.308Z" fill="#E0FAE1"/>
<path d="M295.044 266.086C295.328 266.086 295.584 266.229 295.726 266.428V265.545C295.726 265.545 295.783 265.403 295.868 265.403H296.408V268.307H295.726V267.994C295.612 268.193 295.385 268.336 295.044 268.336C294.504 268.336 294.078 267.909 294.078 267.197C294.078 266.485 294.504 266.058 295.044 266.058V266.086ZM295.243 266.684C294.987 266.684 294.76 266.884 294.76 267.225C294.76 267.567 294.987 267.766 295.243 267.766C295.499 267.766 295.726 267.567 295.726 267.225C295.726 266.884 295.499 266.684 295.243 266.684Z" fill="#E0FAE1"/>
<path d="M297.715 268.336C297.062 268.336 296.607 267.909 296.607 267.197C296.607 266.485 297.062 266.058 297.715 266.058C298.369 266.058 298.795 266.485 298.795 267.14C298.795 267.197 298.795 267.282 298.795 267.339H297.289C297.289 267.624 297.488 267.766 297.715 267.766C297.914 267.766 298 267.681 298.056 267.567H298.767C298.653 267.994 298.284 268.336 297.715 268.336ZM297.289 266.997H298.142C298.142 266.77 297.943 266.627 297.715 266.627C297.488 266.627 297.318 266.77 297.289 266.997Z" fill="#E0FAE1"/>
<path d="M299.705 268.307H299.023V266.257C299.023 266.257 299.08 266.115 299.165 266.115H299.705V266.485C299.847 266.257 300.103 266.086 300.387 266.086V266.798H300.217C299.904 266.798 299.705 266.912 299.705 267.282V268.307Z" fill="#E0FAE1"/>
<path d="M301.723 268.308H300.671V265.602C300.671 265.602 300.728 265.46 300.814 265.46H301.695C302.291 265.46 302.604 265.802 302.604 266.172C302.604 266.542 302.377 266.741 302.093 266.827C302.405 266.884 302.661 267.169 302.661 267.539C302.661 267.966 302.32 268.308 301.723 268.308ZM301.638 265.745H301.155C301.155 265.745 301.012 265.802 301.012 265.887V266.656H301.638C301.979 266.656 302.178 266.485 302.178 266.2C302.178 265.916 301.979 265.745 301.609 265.745H301.638ZM301.666 266.969H301.155C301.155 266.969 301.012 267.026 301.012 267.112V267.966H301.666C302.036 267.966 302.263 267.795 302.263 267.482C302.263 267.169 302.036 266.969 301.666 266.969Z" fill="#E0FAE1"/>
<path d="M304.793 268.307H304.423V267.994C304.281 268.222 304.025 268.336 303.741 268.336C303.258 268.336 302.86 268.022 302.86 267.424V266.314C302.86 266.314 302.917 266.172 303.002 266.172H303.229V267.396C303.229 267.823 303.457 268.051 303.826 268.051C304.196 268.051 304.452 267.823 304.452 267.367V266.314C304.452 266.314 304.508 266.172 304.594 266.172H304.821V268.336L304.793 268.307Z" fill="#E0FAE1"/>
<path d="M306.072 266.115C306.413 266.115 306.725 266.286 306.867 266.542V265.545C306.867 265.545 306.924 265.403 307.009 265.403H307.237V268.307H306.867V267.909C306.725 268.136 306.469 268.336 306.072 268.336C305.503 268.336 305.048 267.88 305.048 267.225C305.048 266.57 305.503 266.115 306.072 266.115ZM306.128 266.428C305.73 266.428 305.389 266.713 305.389 267.225C305.389 267.738 305.73 268.023 306.128 268.023C306.526 268.023 306.867 267.738 306.867 267.225C306.867 266.713 306.526 266.428 306.128 266.428Z" fill="#E0FAE1"/>
<path d="M308.516 266.115C308.857 266.115 309.17 266.286 309.312 266.542V265.545C309.312 265.545 309.369 265.403 309.454 265.403H309.681V268.307H309.312V267.909C309.17 268.136 308.914 268.336 308.516 268.336C307.947 268.336 307.493 267.88 307.493 267.225C307.493 266.57 307.947 266.115 308.516 266.115ZM308.573 266.428C308.175 266.428 307.834 266.713 307.834 267.225C307.834 267.738 308.175 268.023 308.573 268.023C308.971 268.023 309.312 267.738 309.312 267.225C309.312 266.713 308.971 266.428 308.573 266.428Z" fill="#E0FAE1"/>
<path d="M311.699 266.143H311.983L310.676 269.304H310.306L310.733 268.279L309.937 266.343C309.937 266.343 309.965 266.143 310.079 266.143H310.278L310.96 267.88L311.586 266.229C311.586 266.229 311.671 266.143 311.728 266.143H311.699Z" fill="#E0FAE1"/>
<path d="M5.61838 316.087C4.08357 316.087 2.74771 314.919 2.54875 313.353C1.2129 302.618 0.530762 291.713 0.530762 280.893C0.530762 255.779 4.11199 230.95 11.1892 207.145C11.6724 205.494 13.4061 204.554 15.0546 205.038C16.7031 205.522 17.6411 207.259 17.1579 208.911C10.2512 232.146 6.7837 256.377 6.7837 280.893C6.7837 291.428 7.43742 302.077 8.74485 312.584C8.9438 314.293 7.75006 315.83 6.04472 316.058C5.9026 316.058 5.78891 316.058 5.6468 316.058L5.61838 316.087ZM25.8552 301.138C24.2351 301.138 22.8992 299.885 22.7571 298.262C22.3308 292.681 22.1318 286.844 22.1318 280.921C22.1318 264.72 23.7803 248.518 26.9921 232.829C27.3331 231.149 28.9816 230.067 30.6586 230.409C32.3355 230.75 33.4155 232.402 33.0745 234.082C29.948 249.372 28.3279 265.147 28.3279 280.921C28.3279 286.673 28.5269 292.368 28.9532 297.806C29.0953 299.515 27.7879 301.024 26.0825 301.138C25.9973 301.138 25.912 301.138 25.8552 301.138ZM493.12 295.927C493.12 295.927 493.006 295.927 492.95 295.927C491.244 295.813 489.937 294.361 490.022 292.653C490.221 289.065 490.335 285.221 490.335 280.921C490.335 260.904 487.805 241.115 482.803 222.094C482.376 220.443 483.343 218.734 485.02 218.307C486.668 217.88 488.374 218.848 488.8 220.528C493.944 240.09 496.559 260.392 496.559 280.95C496.559 285.363 496.446 289.321 496.247 293.023C496.161 294.674 494.769 295.956 493.149 295.956L493.12 295.927ZM443.182 105.978C442.358 105.978 441.562 105.665 440.936 105.038C410.496 73.4891 372.296 50.3113 330.458 38.0391C328.81 37.5551 327.872 35.8181 328.355 34.1951C328.838 32.5436 330.572 31.604 332.221 32.0881C375.082 44.6735 414.219 68.3923 445.427 100.739C446.621 101.963 446.593 103.928 445.342 105.124C444.745 105.722 443.949 106.006 443.182 106.006V105.978ZM411.69 105.978C410.979 105.978 410.269 105.722 409.672 105.237C389.577 87.9538 366.924 74.4003 342.311 64.9185C340.719 64.292 339.923 62.4982 340.52 60.9036C341.145 59.3091 342.936 58.4834 344.528 59.1098C369.795 68.8478 393.073 82.8001 413.708 100.511C415.015 101.621 415.157 103.586 414.049 104.896C413.424 105.608 412.571 105.978 411.69 105.978ZM81.5347 99.9129C80.7105 99.9129 79.9146 99.5996 79.3178 98.9732C78.124 97.7488 78.1525 95.7841 79.403 94.5882C113.283 61.7009 155.376 38.751 201.108 28.2156C202.785 27.8455 204.433 28.8705 204.831 30.5505C205.229 32.2304 204.178 33.8819 202.501 34.2806C157.877 44.5596 116.807 66.9686 83.6948 99.0586C83.098 99.6566 82.3021 99.9413 81.5347 99.9413V99.9129ZM120.303 95.357C119.365 95.357 118.399 94.9299 117.802 94.1042C116.779 92.709 117.063 90.7727 118.455 89.7477C134.884 77.5893 152.818 67.595 171.719 60.0494C173.311 59.3945 175.13 60.1918 175.755 61.7863C176.38 63.3809 175.613 65.2032 174.021 65.8296C155.604 73.1474 138.181 82.8855 122.15 94.7306C121.582 95.1292 120.957 95.3286 120.303 95.3286V95.357Z" fill="#26045D"/>
<path d="M19.1655 124.765C19.1655 123.66 20.061 122.765 21.1655 122.765H43.7038C44.8084 122.765 45.7038 123.66 45.7038 124.765V147.303C45.7038 148.408 44.8084 149.303 43.7038 149.303H19.1655V124.765Z" fill="#26045D"/>
<path d="M48.3579 124.765C48.3579 123.661 49.2533 122.765 50.3579 122.765H72.8962C74.0008 122.765 74.8962 123.661 74.8962 124.765V147.303C74.8962 148.408 74.0008 149.303 72.8962 149.303H48.3579V124.765Z" fill="#26045D"/>
<path d="M62.9546 167.553C62.9546 167.001 63.4023 166.553 63.9546 166.553H73.8968C74.4491 166.553 74.8968 167.001 74.8968 167.553V177.496C74.8968 178.048 74.4491 178.496 73.8968 178.496H62.9546V167.553Z" fill="#26045D"/>
<path d="M19.1655 153.958C19.1655 152.853 20.061 151.958 21.1655 151.958H43.7038C44.8084 151.958 45.7038 152.853 45.7038 153.958V176.496C45.7038 177.6 44.8084 178.496 43.7038 178.496H19.1655V153.958Z" fill="#26045D"/>
<path d="M54.9927 113.63C53.612 113.63 52.4927 114.75 52.4927 116.13C52.4927 117.511 53.612 118.63 54.9927 118.63V113.63ZM79.031 142.669C79.031 144.049 80.1503 145.169 81.531 145.169C82.9117 145.169 84.031 144.049 84.031 142.669H79.031ZM54.9927 118.63H79.531V113.63H54.9927V118.63ZM79.031 118.13V142.669H84.031V118.13H79.031ZM79.531 118.63C79.2548 118.63 79.031 118.407 79.031 118.13H84.031C84.031 115.645 82.0163 113.63 79.531 113.63V118.63Z" fill="#26045D"/>
<path d="M54.9927 186.303C53.612 186.303 52.4927 185.184 52.4927 183.803C52.4927 182.422 53.612 181.303 54.9927 181.303V186.303ZM79.031 157.264C79.031 155.884 80.1503 154.764 81.531 154.764C82.9117 154.764 84.031 155.884 84.031 157.264H79.031ZM54.9927 181.303H79.531V186.303H54.9927V181.303ZM79.031 181.803V157.264H84.031V181.803H79.031ZM79.531 181.303C79.2548 181.303 79.031 181.527 79.031 181.803H84.031C84.031 184.288 82.0163 186.303 79.531 186.303V181.303Z" fill="#26045D"/>
<path d="M39.0688 113.63C40.4496 113.63 41.5688 114.75 41.5688 116.13C41.5688 117.511 40.4496 118.63 39.0688 118.63V113.63ZM15.0305 142.669C15.0305 144.049 13.9113 145.169 12.5305 145.169C11.1498 145.169 10.0305 144.049 10.0305 142.669H15.0305ZM39.0688 118.63H14.5305V113.63H39.0688V118.63ZM15.0305 118.13V142.669H10.0305V118.13H15.0305ZM14.5305 118.63C14.8067 118.63 15.0305 118.407 15.0305 118.13H10.0305C10.0305 115.645 12.0453 113.63 14.5305 113.63V118.63Z" fill="#26045D"/>
<path d="M39.0688 186.303C40.4496 186.303 41.5688 185.184 41.5688 183.803C41.5688 182.422 40.4496 181.303 39.0688 181.303V186.303ZM15.0305 157.264C15.0305 155.884 13.9113 154.764 12.5305 154.764C11.1498 154.764 10.0305 155.884 10.0305 157.264H15.0305ZM39.0688 181.303H14.5305V186.303H39.0688V181.303ZM15.0305 181.803V157.264H10.0305V181.803H15.0305ZM14.5305 181.303C14.8067 181.303 15.0305 181.527 15.0305 181.803H10.0305C10.0305 184.288 12.0453 186.303 14.5305 186.303V181.303Z" fill="#26045D"/>
<path d="M307.531 31.0499C307.093 32.0355 306.68 33.0333 306.214 34.0047C299.187 48.6836 287.645 57.7359 271.498 60.464C250.129 64.074 229.62 52.7363 221.138 33.2388C220.299 31.3117 220.338 29.7711 221.2 27.9072C227.787 13.6569 238.699 4.67847 254.128 1.1844C256.189 0.717122 258.322 0.56956 260.422 0.269165C260.652 0.235788 260.879 0.177817 261.108 0.130386C262.938 0.130386 264.77 0.130386 266.6 0.130386C267.77 0.262138 268.945 0.349973 270.105 0.529156C286.031 2.99555 297.805 11.2573 305.325 25.411C306.143 26.9533 306.799 28.58 307.531 30.1681V31.0464V31.0499ZM263.751 53.3564C265.9 53.1632 267.92 53.1246 269.889 52.782C283.095 50.4755 292.686 43.3257 298.714 31.4557C299.008 30.8778 299.017 30.4263 298.732 29.829C291.531 14.7777 275.477 6.04869 258.733 8.3886C245.045 10.3016 235.199 17.6675 228.998 29.8817C228.737 30.3947 228.702 30.804 228.976 31.3398C236.232 45.5181 248.005 52.6028 263.753 53.3582L263.751 53.3564Z" fill="#26045D"/>
<path d="M263.551 12.1304C253.62 12.1179 245.54 20.1835 245.531 30.1215C245.524 40.0665 253.579 48.1286 263.523 48.1304C273.491 48.1304 281.527 40.1076 281.531 30.15C281.534 20.1889 273.508 12.1447 263.551 12.1304ZM263.617 42.9544V37.4571C263.617 36.7557 264.081 36.1346 264.758 35.9489C267.521 35.1975 268.728 34.0124 269.381 31.3833C269.556 30.6873 270.182 30.1982 270.9 30.1982H274.721C275.653 30.1982 276.381 31.005 276.28 31.9295C275.701 37.2304 270.786 42.9937 263.617 42.9526V42.9544Z" fill="#26045D"/>
</svg>
