<svg  viewBox="0 0 35 33" fill="none" xmlns="http://www.w3.org/2000/svg">
<path fill-rule="evenodd" clip-rule="evenodd" d="M10.5168 0.738578C12.3231 0.660033 12.899 0.642578 17.5002 0.642578C22.1013 0.642578 22.6773 0.661487 24.482 0.738578C26.2867 0.815669 27.5186 1.08767 28.5966 1.48185C29.7253 1.88476 30.7493 2.51458 31.5962 3.32912C32.4586 4.12767 33.1238 5.09349 33.5488 6.16112C33.9677 7.17931 34.2541 8.34294 34.3372 10.0448C34.4204 11.7539 34.4389 12.2979 34.4389 16.6426C34.4389 20.9888 34.4188 21.5328 34.3372 23.2389C34.2556 24.9408 33.9677 26.1044 33.5488 27.1226C33.1238 28.1904 32.4575 29.1578 31.5962 29.9575C30.7493 30.772 29.7253 31.4004 28.5966 31.8019C27.5186 32.1975 26.2867 32.468 24.4851 32.5466C22.6773 32.6251 22.1013 32.6426 17.5002 32.6426C12.899 32.6426 12.3231 32.6237 10.5168 32.5466C8.71518 32.4695 7.48328 32.1975 6.40536 31.8019C5.27497 31.4003 4.2508 30.771 3.40414 29.9575C2.54239 29.1585 1.87552 28.1915 1.45003 27.124C1.03273 26.1059 0.746309 24.9422 0.663155 23.2404C0.580002 21.5313 0.561523 20.9873 0.561523 16.6426C0.561523 12.2964 0.581542 11.7524 0.663155 10.0477C0.744769 8.34294 1.03273 7.17931 1.45003 6.16112C1.87615 5.09361 2.54353 4.12667 3.40568 3.32767C4.25114 2.51385 5.27428 1.88395 6.40382 1.48185C7.48174 1.08767 8.71364 0.817124 10.5153 0.738578H10.5168ZM24.345 3.61858C22.5587 3.54149 22.0228 3.52549 17.5002 3.52549C12.9776 3.52549 12.4417 3.54149 10.6554 3.61858C9.00314 3.68985 8.10693 3.95021 7.50946 4.16985C6.7195 4.46076 6.15436 4.80549 5.56151 5.36549C4.99952 5.88193 4.56703 6.51063 4.29573 7.20549C4.06321 7.76985 3.78757 8.6164 3.71212 10.1771C3.6305 11.8644 3.61356 12.3706 3.61356 16.6426C3.61356 20.9146 3.6305 21.4208 3.71212 23.108C3.78757 24.6688 4.06321 25.5153 4.29573 26.0797C4.56675 26.7735 4.99945 27.4033 5.56151 27.9197C6.10817 28.4506 6.77493 28.8593 7.50946 29.1153C8.10693 29.3349 9.00314 29.5953 10.6554 29.6666C12.4417 29.7437 12.976 29.7597 17.5002 29.7597C22.0244 29.7597 22.5587 29.7437 24.345 29.6666C25.9972 29.5953 26.8935 29.3349 27.4909 29.1153C28.2809 28.8244 28.846 28.4797 29.4389 27.9197C30.0009 27.4033 30.4336 26.7735 30.7047 26.0797C30.9372 25.5153 31.2128 24.6688 31.2883 23.108C31.3699 21.4208 31.3868 20.9146 31.3868 16.6426C31.3868 12.3706 31.3699 11.8644 31.2883 10.1771C31.2128 8.6164 30.9372 7.76985 30.7047 7.20549C30.3967 6.45931 30.0317 5.92549 29.4389 5.36549C28.8921 4.83468 28.2265 4.42616 27.4909 4.16985C26.8935 3.95021 25.9972 3.68985 24.345 3.61858ZM15.3367 21.5749C16.5449 22.05 17.8904 22.1142 19.1431 21.7564C20.3959 21.3985 21.4783 20.641 22.2055 19.6131C22.9326 18.5852 23.2594 17.3508 23.1301 16.1205C23.0007 14.8903 22.4232 13.7407 21.4962 12.868C20.9052 12.3102 20.1907 11.883 19.404 11.6173C18.6173 11.3516 17.778 11.254 16.9466 11.3315C16.1152 11.4089 15.3123 11.6596 14.5957 12.0653C13.8791 12.4711 13.2667 13.0218 12.8025 13.678C12.3383 14.3342 12.0339 15.0794 11.9112 15.86C11.7885 16.6406 11.8506 17.4372 12.093 18.1924C12.3353 18.9477 12.7519 19.6427 13.3128 20.2276C13.8737 20.8125 14.5649 21.2727 15.3367 21.5749ZM11.3438 10.8273C12.1522 10.0636 13.112 9.45786 14.1684 9.04456C15.2247 8.63126 16.3568 8.41854 17.5002 8.41854C18.6435 8.41854 19.7757 8.63126 20.832 9.04456C21.8884 9.45785 22.8482 10.0636 23.6566 10.8273C24.4651 11.591 25.1064 12.4976 25.544 13.4954C25.9815 14.4932 26.2067 15.5626 26.2067 16.6426C26.2067 17.7226 25.9815 18.792 25.544 19.7898C25.1064 20.7876 24.4651 21.6942 23.6566 22.4579C22.0238 24.0002 19.8093 24.8666 17.5002 24.8666C15.1911 24.8666 12.9765 24.0002 11.3438 22.4579C9.71097 20.9155 8.79368 18.8237 8.79368 16.6426C8.79368 14.4614 9.71097 12.3696 11.3438 10.8273ZM28.1377 9.64331C28.338 9.46479 28.4984 9.25011 28.6093 9.012C28.7203 8.77388 28.7795 8.51715 28.7835 8.25702C28.7875 7.99689 28.7363 7.73865 28.6327 7.49757C28.5292 7.2565 28.3755 7.0375 28.1807 6.85354C27.986 6.66959 27.7541 6.52441 27.4989 6.4266C27.2437 6.3288 26.9703 6.28036 26.6949 6.28415C26.4195 6.28795 26.1477 6.34389 25.8957 6.44868C25.6436 6.55347 25.4163 6.70497 25.2273 6.89421C24.8597 7.26226 24.6585 7.75112 24.6663 8.25702C24.6741 8.76293 24.8904 9.24604 25.2691 9.6038C25.6479 9.96157 26.1593 10.1658 26.6949 10.1732C27.2305 10.1806 27.748 9.99049 28.1377 9.64331Z" fill="#F9F7F0"/>
</svg>
