
<svg id="klokk" xmlns="http://www.w3.org/2000/svg" viewBox="0 0 110 110">
  <path d="M55,110C24.67,110,0,85.33,0,55S24.67,0,55,0s55,24.67,55,55-24.67,55-55,55Zm0-100C30.19,10,10,30.19,10,55s20.19,45,45,45,45-20.19,45-45S79.81,10,55,10Z" fill="#f9f7f0"/>
  <path d="M51.35,58.65c-.48-.45-.86-1.03-1.1-1.65,.24,.62,.62,1.17,1.1,1.65Z" fill="#f9f7f0"/>
  <path d="M78.13,78.16l-3.65,3.65-3.82-3.82-19.3-19.34c-.48-.45-.86-1.03-1.1-1.65-.28-.58-.41-1.27-.41-2V23.68c0-2.86,2.31-5.16,5.16-5.16s5.16,2.31,5.16,5.16v29.18l17.83,17.79s.14,.14,.14,.21c.21,.21,.38,.41,.52,.62,.17,.21,.31,.45,.41,.69,.96,1.93,.65,4.37-.93,5.99h0Z" fill="#f9f7f0"/>
</svg>