<svg viewBox="0 0 32 32" fill="none" xmlns="http://www.w3.org/2000/svg">
<path fill-rule="evenodd" clip-rule="evenodd" d="M0.561524 3.23249C0.561524 2.5456 0.834388 1.88685 1.32009 1.40115C1.80579 0.915446 2.46455 0.642582 3.15143 0.642582H28.9688C29.3092 0.642026 29.6464 0.708616 29.961 0.838539C30.2756 0.968463 30.5615 1.15917 30.8024 1.39974C31.0432 1.64031 31.2342 1.92601 31.3645 2.2405C31.4948 2.55499 31.5617 2.89209 31.5615 3.23249V29.0499C31.5619 29.3903 31.4951 29.7275 31.365 30.0422C31.235 30.3568 31.0441 30.6427 30.8035 30.8835C30.5628 31.1243 30.277 31.3153 29.9624 31.4456C29.6478 31.5758 29.3107 31.6428 28.9702 31.6426H3.15143C2.8112 31.6426 2.47431 31.5755 2.15999 31.4453C1.84568 31.3151 1.56011 31.1242 1.31959 30.8835C1.07908 30.6429 0.888337 30.3572 0.758264 30.0428C0.628192 29.7284 0.561339 29.3915 0.561524 29.0513V3.23249ZM12.8319 12.462H17.0296V14.57C17.6355 13.3582 19.1855 12.2676 21.5147 12.2676C25.9801 12.2676 27.0383 14.6814 27.0383 19.1101V27.3139H22.5194V20.119C22.5194 17.5968 21.9135 16.1736 20.3747 16.1736C18.24 16.1736 17.3522 17.7081 17.3522 20.119V27.3139H12.8319V12.462ZM5.08189 27.1208H9.60225V12.2676H5.08189V27.1194V27.1208ZM10.249 7.42313C10.2575 7.81016 10.1887 8.19501 10.0465 8.55507C9.90423 8.91513 9.69152 9.24316 9.4208 9.5199C9.15009 9.79664 8.82683 10.0165 8.46998 10.1666C8.11314 10.3168 7.72991 10.3941 7.34277 10.3941C6.95564 10.3941 6.57241 10.3168 6.21556 10.1666C5.85872 10.0165 5.53546 9.79664 5.26474 9.5199C4.99403 9.24316 4.78132 8.91513 4.63909 8.55507C4.49687 8.19501 4.428 7.81016 4.43652 7.42313C4.45325 6.66342 4.76679 5.94047 5.31 5.40909C5.8532 4.87772 6.58288 4.58017 7.34277 4.58017C8.10266 4.58017 8.83234 4.87772 9.37555 5.40909C9.91875 5.94047 10.2323 6.66342 10.249 7.42313Z" fill="#F9F7F0"/>
</svg>
