<svg xmlns="http://www.w3.org/2000/svg" viewBox="0 0 406 84">
  <g id="template"/>
  <g id="illu"/>
  <g id="logo">
    <g>
      <path d="M66.28,47.24c-.17,12.17-10.4,21.82-22.58,21.82h-8.74c-1.18-.05-2.13-1.03-2.13-2.23v-18.22c0-.93,.58-1.78,1.47-2.09,.22-.08,.44-.16,.66-.25,1.73-.68,3.33-1.61,4.77-2.75,.58-.45,1.13-.94,1.65-1.46,3.43-3.42,5.54-8.13,5.54-13.35s-2.11-9.95-5.54-13.37c-.09-.1-.2-.21-.3-.31-.4-.38-.88-.56-1.35-.6-1.21-.09-2.42,.84-2.42,2.24v9.58c0,1.23-1.01,2.24-2.24,2.24h-.11c-1.18-.05-2.13-1.04-2.13-2.24v-8.21c0-1.32-.54-2.53-1.41-3.4-1.19-1.18-2.98-1.77-4.82-1.2-2.05,.63-3.38,2.63-3.38,4.78v7.92c0,1.17-.85,2.23-2.02,2.33-1.34,.12-2.45-.93-2.45-2.23v-9.6c0-1.95-2.35-2.99-3.76-1.65-.07,.07-.14,.13-.2,.2-.04,.04-.08,.08-.11,.12-3.43,3.42-5.54,8.13-5.54,13.37s2.16,10.04,5.65,13.47c1.95,1.93,4.33,3.43,6.98,4.36,.88,.3,1.46,1.15,1.46,2.08v18.22c0,1.23-1,2.23-2.24,2.23H.08V4.93C.08,2.29,2.21,.16,4.84,.16H43.76c8.77,0,16.37,7.17,16.43,15.95,.02,4.08-1.47,7.81-3.96,10.65-.46,.53-.37,1.35,.21,1.74,6.02,4.02,9.95,10.93,9.83,18.74Z" fill="#13751c"/>
      <g>
        <path d="M94.82,26.53c-11.74,0-21.29,8.73-21.29,21.18s9.55,21.23,21.29,21.23,21.18-8.79,21.18-21.23-9.38-21.18-21.18-21.18Zm0,33.21c-6.73,0-10.97-4.78-10.97-12.03s4.24-12.04,10.97-12.04,10.91,4.66,10.91,12.04-4.3,12.03-10.91,12.03Z" fill="#1c092e"/>
        <path d="M129.33,42.1v-5.37h-7.84c-1.12,0-2.04,.91-2.04,2.03v30.18h9.88v-14.95c0-5.54,2.71-7.16,7.39-7.16h2.71v-10.45c-4.33,0-7.85,2.31-10.1,5.72Z" fill="#1c092e"/>
        <path d="M168.78,26.22c-1.16,0-2.1,.94-2.1,2.1v12.85c-1.96-2.94-5.66-4.91-9.93-4.91-7.91,0-14.2,6.35-14.2,16.52s6.29,16.62,14.2,16.62c4.73,0,8.14-2.13,9.93-5.08v4.62h9.87V26.22h-7.77Zm-9.15,34.58c-3.69,0-7.04-2.88-7.04-8.02s3.35-7.91,7.04-7.91,7.05,2.83,7.05,7.96-3.29,7.97-7.05,7.97Z" fill="#1c092e"/>
        <path d="M212.34,52.31c0-9.81-6.64-16.05-16.05-16.05s-16.28,6.35-16.28,16.57,6.81,16.57,16.28,16.57c8.03,0,13.74-4.85,15.3-11.14h-9.35c-.69,0-1.29,.35-1.65,.87-.02,.02-.03,.04-.04,.06-.9,1.27-2.35,2.19-4.61,2.19-3.17,0-5.77-1.96-6.11-6.18h22.34c.11-.98,.17-1.96,.17-2.89Zm-22.46-2.59c.58-3.58,3.06-5.55,6.3-5.55s6.06,2.02,6.06,5.55h-12.36Z" fill="#1c092e"/>
        <path d="M225.84,42.1v-5.37h-7.79c-1.15,0-2.08,.93-2.08,2.08v30.13h9.87v-14.95c0-5.54,2.71-7.16,7.39-7.16h2.71v-10.45c-4.33,0-7.85,2.31-10.1,5.72Z" fill="#1c092e"/>
        <path d="M260.56,47.34c4.03-1.33,7.34-4.4,7.34-9.69,0-5.84-4.45-10.65-13.3-10.65h-12.87c-1.2,0-2.17,.97-2.17,2.16v39.78h15.65c8.66,0,13.66-4.93,13.66-11.25,0-5.18-3.74-9.57-8.31-10.35Zm-15.52-13.67c0-1.19,.96-2.16,2.15-2.16h6.93c5.36,0,8.19,2.65,8.19,6.8s-2.95,6.8-8.07,6.8h-9.2v-11.44Zm9.68,30.76h-9.68v-12.65c0-1.19,.96-2.16,2.15-2.16h7.35c5.36,0,8.85,2.89,8.85,7.53s-3.25,7.28-8.67,7.28Z" fill="#1c092e"/>
        <path d="M297.67,37.3c-1.14,0-2.08,.94-2.08,2.08v15.3c0,6.81-3.63,10.16-9.06,10.16s-8.83-3.29-8.83-9.7v-17.84h-3.15c-1.13,0-2.05,.92-2.05,2.05v16.49c0,9.06,5.72,13.56,12.99,13.56,4.22,0,8.08-1.84,10.1-5.13v4.67h5.26v-31.64h-3.18Z" fill="#1c092e"/>
        <path d="M333.35,26.22c-1.16,0-2.09,.94-2.09,2.09v14.65c-2.2-3.64-6.76-6.18-11.72-6.18-8.55,0-15.07,6.36-15.07,16.23s6.52,16.45,15.01,16.45c5.77,0,9.87-2.94,11.78-6.46v5.94h5.31V26.22h-3.22Zm-12.83,38.62c-5.78,0-10.68-4.38-10.68-11.83s4.9-11.67,10.68-11.67,10.74,4.39,10.74,11.73-4.97,11.77-10.74,11.77Z" fill="#1c092e"/>
        <path d="M369.07,26.22c-1.15,0-2.08,.93-2.08,2.08v14.66c-2.19-3.64-6.75-6.18-11.72-6.18-8.54,0-15.07,6.36-15.07,16.23s6.53,16.45,15.01,16.45c5.78,0,9.88-2.94,11.78-6.46v5.94h5.31V26.22h-3.23Zm-12.82,38.62c-5.77,0-10.68-4.38-10.68-11.83s4.91-11.67,10.68-11.67,10.74,4.39,10.74,11.73-4.96,11.77-10.74,11.77Z" fill="#1c092e"/>
        <path d="M401.92,37.3c-.86,0-1.63,.54-1.94,1.34l-9.3,24.3-9.93-25.64h-2.78c-1.46,0-2.45,1.48-1.9,2.83l11.6,28.46-6.23,15.25h5.43l19.05-46.54h-4Z" fill="#1c092e"/>
      </g>
    </g>
  </g>
</svg>
