<svg width="76" height="100" viewBox="0 0 76 100" fill="none" xmlns="http://www.w3.org/2000/svg">
<path d="M38.5054 0.0101385C37.7627 0.0101386 37.0201 0.172331 36.3186 0.456162C36.0298 0.537257 35.741 0.658893 35.4935 0.86163C35.3284 0.942725 35.1221 1.06437 35.0396 1.14546C34.7508 1.3482 34.4207 1.55095 34.2144 1.79423L1.82573 33.6239C-0.608582 36.0162 -0.608581 39.8277 1.82573 42.22L6.19922 46.518L32.399 20.7704L32.399 100L38.6292 100C42.0537 100 44.8181 97.2428 44.8181 93.9179L44.8181 41.5712L44.7768 41.1657L44.7768 20.7704L69.5738 45.1394L73.9473 40.8414C76.3816 38.4491 76.3403 34.5971 73.9473 32.2453L42.9614 1.79423C42.6313 1.46985 42.3013 1.22655 41.9712 0.983267C41.8062 0.902172 41.6411 0.780531 41.4761 0.699437C41.311 0.618342 41.1047 0.537257 40.8984 0.456162C40.5271 0.33452 40.1558 0.172323 39.7432 0.131776L39.7432 0.0912506C39.3719 0.0507032 39.0418 0.0101472 38.7117 0.0506946C38.6704 -0.0304002 38.5879 0.0101385 38.5054 0.0101385Z" fill="#7747FF"/>
</svg>