<svg id="Layer_1" data-name="Layer 1" xmlns="http://www.w3.org/2000/svg" viewBox="0 0 80 113">
  <path d="M40,0C18.03,0,0,17.16,0,38.47c0,6.81,1.93,13.19,5.16,18.73,.03,.05,.01,.12,.04,.16,.04,.11,.1,.22,.16,.32,.02,.07,.05,.13,.08,.2l32.54,53.84c.48,.8,1.33,1.29,2.25,1.29s1.77-.49,2.25-1.29l31.95-53.68c.04-.05,.08-.1,.12-.16v-.04l.08-.12s.03-.02,.04-.04c.09-.15,.17-.31,.23-.48,3.23-5.54,5.12-11.91,5.12-18.73C80,17.32,62.22,.29,40.47,.04c-.13-.02-.26-.04-.39-.04h-.08Zm0,15.61c12.5,0,22.7,9.77,22.7,21.73s-10.19,21.69-22.7,21.69-22.7-9.73-22.7-21.69S27.5,15.61,40,15.61Z" fill="#f9f7f0"/>
</svg>