<svg id="qr_kode" data-name="qr kode" xmlns="http://www.w3.org/2000/svg" viewBox="0 0 109.96 109.96" >
  <path d="M13.48,15.82c0-1.16,.92-2.09,2.06-2.09H50.95c1.14,0,2.06,.94,2.06,2.09V51.88c0,1.16-.92,2.09-2.06,2.09H13.48V15.82Z" fill="#7747FF"/>
  <path d="M56.96,15.82c0-1.16,.92-2.09,2.06-2.09h35.41c1.14,0,2.06,.94,2.06,2.09V51.88c0,1.16-.92,2.09-2.06,2.09H56.96V15.82Z" fill="#7747FF"/>
  <path d="M78.7,81.18c0-.58,.46-1.05,1.03-1.05h15.73c.57,0,1.03,.47,1.03,1.05v16.02c0,.58-.46,1.05-1.03,1.05h-16.76v-17.07Z" fill="#7747FF"/>
  <path d="M13.48,60.09c0-1.16,.92-2.09,2.06-2.09H50.95c1.14,0,2.06,.94,2.06,2.09v36.06c0,1.16-.92,2.09-2.06,2.09H13.48V60.09Z" fill="#7747FF"/>
  <path d="M109.96,5.76V43.91c0,2.02-1.61,3.66-3.6,3.66s-3.6-1.64-3.6-3.66V7.33h-35.93c-1.98,0-3.6-1.64-3.6-3.66s1.61-3.66,3.6-3.66h37.47c3.12,0,5.65,2.57,5.65,5.76Z" fill="#7747FF"/>
  <path d="M109.96,66.04v38.16c0,3.18-2.53,5.76-5.65,5.76h-37.47c-1.98,0-3.6-1.64-3.6-3.66s1.62-3.67,3.6-3.67h35.93v-36.59c0-2.02,1.61-3.66,3.59-3.66s3.6,1.64,3.6,3.66Z" fill="#7747FF"/>
  <path d="M46.72,3.66c0,2.02-1.61,3.66-3.6,3.66H7.19V43.91c0,2.02-1.61,3.66-3.6,3.66s-3.6-1.64-3.6-3.66V5.76C0,2.57,2.53,0,5.65,0H43.12c1.98,0,3.6,1.64,3.6,3.66Z" fill="#7747FF"/>
  <path d="M46.72,106.3c0,2.02-1.61,3.66-3.6,3.66H5.65c-3.12,0-5.65-2.58-5.65-5.76v-38.16c0-2.02,1.61-3.66,3.6-3.66s3.6,1.64,3.6,3.66v36.59H43.12c1.98,0,3.6,1.63,3.6,3.66Z" fill="#7747FF"/>
</svg>