<svg id="rabat" xmlns="http://www.w3.org/2000/svg" viewBox="0 0 109.49 109.62">
  <path d="M39.88,19.91C39.88,8.91,30.9,0,19.97,0,14.64,0,9.63,2.08,5.86,5.86,2.08,9.63,0,14.64,0,19.97s2.21,10.47,5.86,14.12c3.64,3.64,8.65,5.86,14.12,5.86,10.99,0,19.91-8.91,19.91-19.91v-.13Z" fill="#f9f7f0"/>
  <path d="M109.49,89.52c0-10.99-8.98-19.91-19.91-19.91-5.33,0-10.34,2.08-14.12,5.86-3.77,3.77-5.86,8.78-5.86,14.12s2.21,10.47,5.86,14.12,8.65,5.86,14.12,5.86c10.99,0,19.91-8.91,19.91-19.91v-.13Z" fill="#f9f7f0"/>
  <path d="M89,6.57L6.63,88.93c-3.77,3.77-3.84,9.95,0,13.79l6.9,6.9L102.79,20.36c3.84-3.84,3.84-9.95,0-13.79-3.84-3.84-9.95-3.84-13.79,0Z" fill="#f9f7f0"/>
</svg>