<svg id="search" xmlns="http://www.w3.org/2000/svg" viewBox="0 0 107.49 108.85">
  <path d="M106.26,94.48l-5.13-5.13-.84-.83h.01l-21.58-21.4c4.82-6.91,7.65-15.29,7.65-24.33C86.37,19.16,67.04,0,43.19,0S0,19.16,0,42.8s19.33,42.79,43.19,42.79c9.12,0,17.58-2.8,24.56-7.59l20.29,20.09h-.01l10.74,10.75,7.3-7.3c1.82-1.98,1.88-5,.19-7.06Zm-63.07-19.44c-17.98,0-32.55-14.43-32.55-32.24S25.21,10.55,43.19,10.55s32.55,14.43,32.55,32.25c-.01,17.81-14.57,32.24-32.55,32.24Z" fill="#f9f7f0" fill-rule="evenodd"/>
</svg>